<svg width="116" height="63" viewBox="0 0 116 63" fill="none" xmlns="http://www.w3.org/2000/svg">
<path d="M2.43282 59.8373V58.06C4.56489 57.7756 6.41232 57.6761 8.48711 57.6761C11.1204 57.6761 12.5239 57.6761 12.5239 58.7709C12.5239 59.9368 11.0076 59.9368 8.21679 59.9368C6.09726 59.9368 4.03679 59.9084 2.43282 59.8373ZM0 52.0492V61.8687C3.32073 62.0393 5.62465 62.082 8.77353 62.082C13.2382 62.082 15.1142 61.1294 15.1142 58.7709C15.1142 56.3271 13.0538 55.602 8.77353 55.602C6.95653 55.602 4.65081 55.7015 2.43282 56.0143V54.0256C4.10661 53.926 5.68194 53.8407 7.37005 53.8407C9.6883 53.8407 11.8777 53.8976 13.9113 54.2104V52.0652C11.8365 51.7809 9.60416 51.7098 7.24116 51.7098C4.7797 51.7098 2.46146 51.8235 0 52.0492ZM19.4786 56.185V54.0967C21.0092 53.9971 22.785 53.9545 24.645 53.9545C27.1065 53.9545 28.6532 54.0256 28.6532 55.1773C28.6532 56.1867 27.4645 56.4285 25.3468 56.4285C23.4868 56.4267 21.4818 56.3129 19.4786 56.185ZM16.9742 61.8687H19.4786V58.3159C21.5105 58.4581 23.6157 58.6003 25.6332 58.6003C29.5268 58.6003 31.2435 57.3349 31.2435 55.1755C31.2435 52.5184 28.9969 51.708 24.602 51.708C22.2838 51.708 20.2949 51.8218 16.9742 52.0492V61.8687ZM33.1035 61.8687H35.0064C37.4392 61.8687 39.258 60.5322 41.7768 57.733C43.7513 55.5167 45.0688 54.3935 46.2557 54.3793V61.8669H48.7745V51.9195H46.8715C44.4387 51.9195 42.6199 53.256 40.1012 56.0552C38.1266 58.2715 36.8091 59.3947 35.6222 59.4089V51.9213H33.1035V61.8687ZM51.295 61.8687H53.8137V58.0316H64.304V61.8687H66.8228V51.9213H64.304V55.7584H53.8137V51.9213H51.295V61.8687ZM75.0109 51.7098C73.0793 51.7098 71.1173 51.7809 69.0425 52.2074V54.4237C71.0744 53.9971 73.1223 53.9403 75.0109 53.9403C78.1168 53.9403 80.8933 54.6512 81.0652 55.7869H73.0507V57.9462H81.0652C80.8933 59.0979 78.1168 59.8497 75.0109 59.8497C73.1223 59.8497 71.0744 59.7928 69.0425 59.3663V61.5826C71.1173 62.0091 73.0793 62.0802 75.0109 62.0802C80.6069 62.0802 83.7701 60.5037 83.7701 56.8941C83.7701 53.144 80.6069 51.7098 75.0109 51.7098ZM85.7447 61.8687H88.2634V58.0316H90.6676C92.1838 58.0316 92.9429 58.3728 94.0599 59.1406C95.3059 60.0079 96.6073 60.9161 97.8246 61.8687H101.532C99.7293 60.4202 97.8676 58.97 96.695 58.0884C95.6352 57.2922 94.9067 56.9368 94.119 56.7946V56.7093C94.8351 56.5244 95.4222 56.1974 96.4659 55.4438C97.4827 54.7045 99.3283 53.2845 101.059 51.9195H97.5239C96.2636 52.8721 94.9908 53.8087 93.7162 54.6903C92.6708 55.4154 91.9995 55.7566 90.5816 55.7566H88.2634V51.9195H85.7447V61.8687ZM110.318 51.7098C104.565 51.7098 101.201 53.4284 101.201 56.8959C101.201 60.3633 104.565 62.082 110.318 62.082C112.536 62.082 113.925 62.0109 116 61.5843V59.297C113.968 59.752 112.35 59.8088 110.318 59.8088C106.482 59.8088 103.82 59.0837 103.82 56.8959C103.82 54.7081 106.482 53.9829 110.318 53.9829C112.35 53.9829 113.968 54.0398 116 54.4948V52.2074C113.925 51.7809 112.538 51.7098 110.318 51.7098Z" fill="black"/>
<path d="M103.598 6.24805C98.8428 1.7842 92.0548 -0.411049 84.4815 0.0648562L89.135 5.42505L85.1846 11.2254C89.6413 10.9445 93.4629 12.0716 95.9426 14.4011C99.7659 17.9918 99.7695 23.8816 95.9426 27.4759C93.4754 29.7928 89.6807 30.92 85.2544 30.6552C81.898 30.4548 75.4823 28.6532 65.9337 20.9385C64.0033 22.4968 62.436 23.9192 61.4431 24.905C61.3715 24.9765 59.9152 26.4347 57.5088 28.4671C59.0456 29.7642 60.96 31.2921 63.1356 32.8397C70.9451 38.3931 78.1284 41.4114 84.4815 41.8121C88.3657 42.0572 96.9552 41.864 103.598 35.6289C112.129 27.6191 112.139 14.2687 103.598 6.24805Z" fill="#00965E"/>
<path d="M84.4784 0.064279C78.1235 0.465041 70.9419 3.48328 63.1307 9.0367C57.5826 12.9817 53.7145 16.814 53.5553 16.9714C52.5122 18.0038 40.0546 29.8173 30.066 30.6331C28.5739 30.7548 22.8648 31.0536 19.054 27.4771C15.2306 23.8864 15.227 17.9948 19.054 14.4023C21.5337 12.0746 25.3552 10.9475 29.8119 11.2266L25.8616 5.37438L30.515 0.064279C22.9453 -0.413415 16.1556 1.78362 11.4019 6.24747C2.8714 14.2573 2.86066 27.6077 11.4019 35.6284C15.1787 39.1744 21.5176 42.3787 30.5186 41.8115C45.5007 40.8669 61.2002 25.1441 61.4399 24.9044C65.0897 21.285 76.4685 11.7741 85.1833 11.2248L89.1337 5.42447L84.4784 0.064279Z" fill="black"/>
<path d="M53.5596 16.9714C53.6562 16.8765 55.1251 15.4202 57.5082 13.4074C51.8725 8.64303 41.025 0.726182 30.5193 0.064209L25.8658 5.37431L29.8162 11.2265C36.1533 11.6255 43.9001 16.7638 49.0564 20.9289C51.5182 18.9305 53.2036 17.3238 53.5596 16.9714Z" fill="#00965E"/>
</svg>
