<svg width="66" height="27" viewBox="0 0 66 27" fill="none" xmlns="http://www.w3.org/2000/svg">
<path d="M61.8844 3.89512C58.9195 1.11203 54.6874 -0.256642 49.9657 0.0400713L52.867 3.382L50.404 6.99834C53.1827 6.82321 55.5653 7.52595 57.1113 8.97829C59.4951 11.217 59.4973 14.8891 57.1113 17.1301C55.5731 18.5746 53.2072 19.2774 50.4475 19.1123C48.3549 18.9874 44.3549 17.8641 38.4016 13.0542C37.1981 14.0258 36.2209 14.9126 35.6018 15.5272C35.5572 15.5718 34.6492 16.4809 33.1489 17.7481C34.1071 18.5568 35.3007 19.5094 36.6571 20.4743C41.5261 23.9367 46.0047 25.8185 49.9657 26.0683C52.3873 26.2211 57.7427 26.1007 61.8844 22.2133C67.2029 17.2193 67.2096 8.89574 61.8844 3.89512Z" fill="#00965E"/>
<path d="M49.9637 0.0400761C46.0016 0.28994 41.5241 2.17173 36.654 5.63413C33.1949 8.09373 30.7833 10.4831 30.684 10.5812C30.0337 11.2248 22.2667 18.5903 16.0391 19.0989C15.1088 19.1748 11.5493 19.361 9.17339 17.1312C6.78964 14.8925 6.78741 11.2193 9.17339 8.97941C10.7194 7.52819 13.1021 6.82545 15.8807 6.99946L13.4177 3.35078L16.319 0.0400761C11.5995 -0.257753 7.36633 1.11204 4.40254 3.89512C-0.91599 8.88906 -0.922683 17.2127 4.40254 22.2133C6.75729 24.4241 10.7094 26.4219 16.3213 26.0683C25.6622 25.4794 35.4504 15.6767 35.5998 15.5272C37.8754 13.2706 44.9698 7.34079 50.4032 6.99834L52.8661 3.38201L49.9637 0.0400761Z" fill="black"/>
<path d="M30.6867 10.5812C30.7469 10.5221 31.6627 9.61407 33.1485 8.35917C29.6348 5.38869 22.8717 0.452761 16.3217 0.0400391L13.4204 3.35074L15.8834 6.99942C19.8343 7.24817 24.6643 10.4518 27.8791 13.0486C29.4139 11.8026 30.4647 10.8009 30.6867 10.5812Z" fill="#00965E"/>
</svg>
