<svg width="116" height="63" viewBox="0 0 116 63" fill="none" xmlns="http://www.w3.org/2000/svg">
<path d="M2.43282 60.3282V58.538C4.56489 58.2516 6.41232 58.1513 8.48711 58.1513C11.1204 58.1513 12.5239 58.1513 12.5239 59.2541C12.5239 60.4284 11.0076 60.4284 8.21679 60.4284C6.09726 60.4284 4.03679 60.3998 2.43282 60.3282ZM0 52.4837V62.3743C3.32073 62.5462 5.62465 62.5891 8.77353 62.5891C13.2382 62.5891 15.1142 61.6296 15.1142 59.2541C15.1142 56.7926 13.0538 56.0622 8.77353 56.0622C6.95653 56.0622 4.65081 56.1625 2.43282 56.4775V54.4744C4.10661 54.3741 5.68194 54.2882 7.37005 54.2882C9.6883 54.2882 11.8777 54.3455 13.9113 54.6605V52.4998C11.8365 52.2134 9.60416 52.1418 7.24116 52.1418C4.7797 52.1418 2.46146 52.2564 0 52.4837ZM19.4786 56.6494V54.546C21.0092 54.4457 22.785 54.4028 24.645 54.4028C27.1065 54.4028 28.6532 54.4744 28.6532 55.6344C28.6532 56.6512 27.4645 56.8947 25.3468 56.8947C23.4868 56.8929 21.4818 56.7783 19.4786 56.6494ZM16.9742 62.3743H19.4786V58.7958C21.5105 58.939 23.6157 59.0822 25.6332 59.0822C29.5268 59.0822 31.2435 57.8076 31.2435 55.6326C31.2435 52.9563 28.9969 52.14 24.602 52.14C22.2838 52.14 20.2949 52.2546 16.9742 52.4837V62.3743ZM33.1035 62.3743H35.0064C37.4392 62.3743 39.258 61.0281 41.7768 58.2086C43.7513 55.9763 45.0688 54.8449 46.2557 54.8306V62.3725H48.7745V52.353H46.8715C44.4387 52.353 42.6199 53.6992 40.1012 56.5187C38.1266 58.751 36.8091 59.8824 35.6222 59.8967V52.3548H33.1035V62.3743ZM51.295 62.3743H53.8137V58.5094H64.304V62.3743H66.8228V52.3548H64.304V56.2198H53.8137V52.3548H51.295V62.3743ZM75.0109 52.1418C73.0793 52.1418 71.1173 52.2134 69.0425 52.643V54.8754C71.0744 54.4457 73.1223 54.3884 75.0109 54.3884C78.1168 54.3884 80.8933 55.1045 81.0652 56.2484H73.0507V58.4234H81.0652C80.8933 59.5835 78.1168 60.3407 75.0109 60.3407C73.1223 60.3407 71.0744 60.2834 69.0425 59.8538V62.0861C71.1173 62.5157 73.0793 62.5873 75.0109 62.5873C80.6069 62.5873 83.7701 60.9995 83.7701 57.3637C83.7701 53.5865 80.6069 52.1418 75.0109 52.1418ZM85.7447 62.3743H88.2634V58.5094H90.6676C92.1838 58.5094 92.9429 58.8531 94.0599 59.6264C95.3059 60.5 96.6073 61.4148 97.8246 62.3743H101.532C99.7293 60.9153 97.8676 59.4546 96.695 58.5667C95.6352 57.7647 94.9067 57.4066 94.119 57.2634V57.1775C94.8351 56.9913 95.4222 56.6619 96.4659 55.9029C97.4827 55.1582 99.3283 53.7279 101.059 52.353H97.5239C96.2636 53.3126 94.9908 54.256 93.7162 55.1439C92.6708 55.8743 91.9995 56.218 90.5816 56.218H88.2634V52.353H85.7447V62.3743ZM110.318 52.1418C104.565 52.1418 101.201 53.8729 101.201 57.3655C101.201 60.8581 104.565 62.5891 110.318 62.5891C112.536 62.5891 113.925 62.5175 116 62.0879V59.784C113.968 60.2422 112.35 60.2995 110.318 60.2995C106.482 60.2995 103.82 59.5691 103.82 57.3655C103.82 55.1618 106.482 54.4314 110.318 54.4314C112.35 54.4314 113.968 54.4887 116 54.947V52.643C113.925 52.2134 112.538 52.1418 110.318 52.1418Z" fill="white"/>
<path d="M104.129 6.25117C99.3706 1.78474 92.5787 -0.411775 85.001 0.0644048L89.6572 5.4277L85.7045 11.2314C90.1638 10.9503 93.9876 12.0781 96.4687 14.4089C100.294 18.0017 100.298 23.8949 96.4687 27.4913C94.0001 29.8096 90.2032 30.9373 85.7744 30.6724C82.416 30.4719 75.9966 28.6692 66.4425 20.9501C64.5109 22.5093 62.9428 23.9325 61.9492 24.9189C61.8776 24.9905 60.4204 26.4494 58.0127 28.4831C59.5504 29.7809 61.4659 31.3097 63.6427 32.8582C71.4567 38.4148 78.6442 41.4348 85.001 41.8358C88.8874 42.081 97.4819 41.8877 104.129 35.649C112.664 27.6345 112.675 14.2764 104.129 6.25117Z" fill="#00965E"/>
<path d="M84.998 0.0643161C78.6393 0.46531 71.4537 3.48529 63.6379 9.04192C58.0866 12.9892 54.2163 16.8237 54.057 16.9812C53.0133 18.0142 40.5485 29.8345 30.5541 30.6508C29.0611 30.7726 23.3487 31.0715 19.5357 27.493C15.7102 23.9002 15.7066 18.0052 19.5357 14.4106C22.0169 12.0816 25.8406 10.9538 30.2999 11.2331L26.3472 5.37748L31.0034 0.0643161C23.4293 -0.413654 16.6357 1.78465 11.8792 6.25108C3.3438 14.2656 3.33306 27.6237 11.8792 35.6489C15.6583 39.197 22.0008 42.4032 31.007 41.8357C45.9977 40.8905 61.7063 25.1587 61.9462 24.9188C65.5981 21.2973 76.9835 11.7809 85.7033 11.2313L89.6559 5.42761L84.998 0.0643161Z" fill="white"/>
<path d="M54.0613 16.9811C54.158 16.8863 55.6277 15.4291 58.0122 13.4152C52.3732 8.64798 41.5195 0.726565 31.0077 0.064209L26.3516 5.37738L30.3042 11.233C36.6449 11.6322 44.3963 16.7735 49.5555 20.941C52.0188 18.9414 53.7051 17.3338 54.0613 16.9811Z" fill="#00965E"/>
</svg>
