<svg width="71" height="63" viewBox="0 0 71 63" fill="none" xmlns="http://www.w3.org/2000/svg">
<path fill-rule="evenodd" clip-rule="evenodd" d="M26.8295 56.8421C40.7761 56.8421 54.732 45.4966 57.941 31.5501C58.0943 30.8833 58.2121 30.2248 58.3118 29.571L64.584 23.927C64.6329 26.4916 64.362 29.0524 63.7776 31.5501C59.8284 48.7141 42.6504 62.6788 25.4863 62.6788C8.32219 62.6788 -2.43011 48.7143 1.51989 31.5501C5.46989 14.3859 22.6471 0.421263 39.8112 0.421363C45.4918 0.302622 51.0504 2.07811 55.6104 5.46786L50.7635 9.95006C47.1518 7.46439 42.8519 6.17315 38.4683 6.25786C24.5217 6.25786 10.5657 17.6037 7.35679 31.5501C4.14789 45.4965 12.8829 56.8421 26.8295 56.8421ZM30.7339 41.9085H30.7947C32.7943 41.8542 34.7086 41.0871 36.1923 39.7454L71.0771 9.19706L67.6692 5.26416L32.7844 35.8125C32.5994 35.9663 32.3701 36.0571 32.13 36.0718C32.0262 36.0755 31.9233 36.0526 31.8309 36.0052C31.7385 35.9578 31.6599 35.8875 31.6024 35.8011L23.2184 22.8758L17.9468 26.7289L26.3307 39.6542C26.8172 40.3686 27.4753 40.9493 28.2446 41.3432C29.0139 41.7371 29.8699 41.9315 30.7339 41.9085Z" fill="white"/>
</svg>
