<svg width="97" height="68" viewBox="0 0 97 68" fill="none" xmlns="http://www.w3.org/2000/svg">
<path fill-rule="evenodd" clip-rule="evenodd" d="M24.8304 68.3334H13.0289C2.20958 68.3334 -2.81302 53.3258 1.59528 34.1667C6.00358 15.0076 17.9324 0 28.7515 0H40.553C51.3722 0 56.3948 15.0077 51.9866 34.1667C47.5784 53.3257 35.6496 68.3334 24.8304 68.3334ZM27.4086 5.8366C21.0428 5.8366 11.2734 17.4709 7.43188 34.1666C3.59038 50.8623 8.00598 62.4966 14.3719 62.4966H26.1733C32.5391 62.4966 42.3085 50.8623 46.15 34.1666C49.9915 17.4709 45.5758 5.8366 39.21 5.8366H27.4086ZM16.757 52.1308C10.7779 52.1308 10.1977 42.8192 12.1885 34.1668C14.1793 25.5144 19.0444 16.2028 25.0236 16.2028C31.0028 16.2028 31.5825 25.5145 29.5925 34.1668C27.6025 42.8191 22.7361 52.1308 16.757 52.1308ZM23.6551 22.1508C22.4588 23.0476 19.6468 27.1192 18.0251 34.167C16.4034 41.2148 17.3419 45.2864 18.1251 46.1832C19.3213 45.2864 22.1334 41.2149 23.7551 34.167C25.3768 27.1191 24.4386 23.0474 23.6551 22.1506V22.1508ZM66.3581 18.2941H96.5141L95.1711 24.1301H65.0151L66.3581 18.2941ZM63.0012 32.8851H93.1572L91.8142 38.7221H61.6582L63.0012 32.8851ZM89.8003 47.4772H59.6443L58.3013 53.3132H88.4573L89.8003 47.4772Z" fill="white"/>
</svg>
