<svg width="118" height="57" viewBox="0 0 118 57" fill="none" xmlns="http://www.w3.org/2000/svg">
<path fill-rule="evenodd" clip-rule="evenodd" d="M18.1282 56.3213H18.1196C12.7824 56.3213 8.21519 52.9523 5.05893 47.9021C1.89174 42.8344 0 35.8851 0 28.1606C0 20.4362 1.89174 13.4869 5.05893 8.41921C8.21519 3.36899 12.7824 0 18.1196 0H30.9698C36.308 0 40.8756 3.3702 44.032 8.44248C47.1989 13.5317 49.0894 20.5223 49.0894 28.3275C49.0894 35.2022 47.5476 41.5741 44.8914 46.5069C42.2484 51.4152 38.3975 55.2736 33.7036 56.3213H18.1282ZM9.96815 12.4267C7.70938 16.4337 6.25538 22.0249 6.25538 28.1606C6.25538 34.289 7.74901 39.8797 10.0297 43.8898C12.3527 47.9744 15.2559 50.062 17.9483 50.062C20.7317 50.062 23.6329 47.9668 25.9284 43.8946C28.1871 39.8876 29.6411 34.2964 29.6411 28.1606C29.6411 22.0249 28.1871 16.4337 25.9284 12.4267C23.6329 8.35451 20.7317 6.25932 17.9483 6.25932C15.1649 6.25932 12.2637 8.35451 9.96815 12.4267ZM32.46 49.9004C35.0571 49.1654 37.5912 46.7436 39.5402 42.8885C41.5047 39.0025 42.7497 33.8849 42.834 28.3169C42.8324 22.1853 41.3787 16.5983 39.1213 12.5936C36.8257 8.52139 33.9245 6.4262 31.1411 6.4262H29.699C33.7282 11.5958 36.2392 19.4927 36.2392 28.3275C36.2392 36.9729 33.7563 44.8053 29.7698 49.9712L32.46 49.9004ZM117.096 4.99561H57.1993V12.1953H117.096V4.99561ZM116.566 24.9999H57.1992V32.0384H116.566V24.9999ZM57.1995 45H98.4668V52.0384H57.1995V45Z" fill="white"/>
<path fill-rule="evenodd" clip-rule="evenodd" d="M18.1282 56.3213H18.1196C12.7824 56.3213 8.21519 52.9523 5.05893 47.9021C1.89174 42.8344 0 35.8851 0 28.1606C0 20.4362 1.89174 13.4869 5.05893 8.41921C8.21519 3.36899 12.7824 0 18.1196 0H30.9698C36.308 0 40.8756 3.3702 44.032 8.44248C47.1989 13.5317 49.0894 20.5223 49.0894 28.3275C49.0894 35.2022 47.5476 41.5741 44.8914 46.5069C42.2484 51.4152 38.3975 55.2736 33.7036 56.3213H18.1282ZM9.96815 12.4267C7.70938 16.4337 6.25538 22.0249 6.25538 28.1606C6.25538 34.289 7.74901 39.8797 10.0297 43.8898C12.3527 47.9744 15.2559 50.062 17.9483 50.062C20.7317 50.062 23.6329 47.9668 25.9284 43.8946C28.1871 39.8876 29.6411 34.2964 29.6411 28.1606C29.6411 22.0249 28.1871 16.4337 25.9284 12.4267C23.6329 8.35451 20.7317 6.25932 17.9483 6.25932C15.1649 6.25932 12.2637 8.35451 9.96815 12.4267ZM32.46 49.9004C35.0571 49.1654 37.5912 46.7436 39.5402 42.8885C41.5047 39.0025 42.7497 33.8849 42.834 28.3169C42.8324 22.1853 41.3787 16.5983 39.1213 12.5936C36.8257 8.52139 33.9245 6.4262 31.1411 6.4262H29.699C33.7282 11.5958 36.2392 19.4927 36.2392 28.3275C36.2392 36.9729 33.7563 44.8053 29.7698 49.9712L32.46 49.9004ZM117.096 4.99561H57.1993V12.1953H117.096V4.99561ZM116.566 24.9999H57.1992V32.0384H116.566V24.9999ZM57.1995 45H98.4668V52.0384H57.1995V45Z" fill="url(#info)"/>
<defs>
<radialGradient id="info" cx="0" cy="0" r="1" gradientUnits="userSpaceOnUse" gradientTransform="translate(11.1992 1.99999) rotate(26.1818) scale(133.72 124.085)">
<stop offset="0.291833" stop-color="#00FF66" stop-opacity="0"/>
<stop offset="1" stop-color="#00FF66"/>
</radialGradient>
</defs>
</svg>
