<svg width="79" height="59" viewBox="0 0 79 59" fill="none" xmlns="http://www.w3.org/2000/svg">
<path d="M16.5599 35.6845C27.9259 35.6845 33.1197 30.4664 33.1197 19.1227C33.1197 7.70344 27.9259 2.48535 16.5599 2.48535C5.19377 2.48535 0 7.70344 0 19.1227C0 30.4664 5.1185 35.6845 16.5599 35.6845ZM22.8827 56.1031L29.4336 59L55.5508 3.31722L48.4336 0.5L22.8827 56.1031ZM16.5599 28.3489C11.4414 28.3489 9.86064 26.0046 9.86064 19.1227C9.86064 12.2409 11.4414 9.82092 16.5599 9.82092C21.6031 9.82092 23.2591 12.2409 23.2591 19.1227C23.2591 25.9289 21.6031 28.3489 16.5599 28.3489ZM61.9489 56.935C73.315 56.935 78.5088 51.6413 78.5088 40.2976C78.5088 28.8783 73.315 23.7358 61.9489 23.7358C50.5828 23.7358 45.389 28.8783 45.389 40.2976C45.389 51.6413 50.5076 56.935 61.9489 56.935ZM61.9489 49.5238C56.8304 49.5238 55.2497 47.1794 55.2497 40.2976C55.2497 33.4158 56.8304 30.9958 61.9489 30.9958C66.9921 30.9958 68.6481 33.4158 68.6481 40.2976C68.6481 47.1038 66.9921 49.5238 61.9489 49.5238Z" fill="white"/>
</svg>
