<svg width="71" height="62" viewBox="0 0 71 62" fill="none" xmlns="http://www.w3.org/2000/svg">
<path fill-rule="evenodd" clip-rule="evenodd" d="M20.021 27.6317C27.531 27.6317 35.0455 21.5224 36.7733 14.0129C38.5011 6.50344 33.7976 0.394043 26.2881 0.394043C18.7786 0.394043 11.2636 6.50334 9.53571 14.0129C7.80781 21.5225 12.5115 27.6317 20.021 27.6317ZM24.9451 6.23074C29.2361 6.23074 31.924 9.72184 30.9367 14.0129C30.3825 16.1629 29.1538 18.0788 27.431 19.4793C25.7082 20.8799 23.5819 21.6915 21.364 21.795C17.0729 21.795 14.3851 18.3039 15.3724 14.0129C15.9266 11.8629 17.1552 9.94707 18.8781 8.54648C20.6009 7.1459 22.7272 6.3343 24.9451 6.23074ZM50.6098 34.4412C43.1003 34.4412 35.5853 40.5504 33.8575 48.06C32.1297 55.5696 36.8332 61.6788 44.3428 61.6788C51.8524 61.6788 59.3675 55.5695 61.0954 48.0602C62.8233 40.5509 58.1198 34.4412 50.6098 34.4412ZM45.686 55.8421C41.395 55.8421 38.7071 52.351 39.6944 48.06C40.2486 45.9099 41.4772 43.9941 43.2001 42.5935C44.9229 41.1929 47.0493 40.3813 49.2672 40.2778C53.5582 40.2778 56.2461 43.7689 55.2588 48.06C54.7045 50.21 53.4759 52.1258 51.753 53.5264C50.0302 54.9269 47.9039 55.7385 45.686 55.8421ZM0.180176 59.7331L63.1772 2.33911H70.9032L7.90618 59.7331H0.180176Z" fill="white"/>
<path fill-rule="evenodd" clip-rule="evenodd" d="M20.021 27.6317C27.531 27.6317 35.0455 21.5224 36.7733 14.0129C38.5011 6.50344 33.7976 0.394043 26.2881 0.394043C18.7786 0.394043 11.2636 6.50334 9.53571 14.0129C7.80781 21.5225 12.5115 27.6317 20.021 27.6317ZM24.9451 6.23074C29.2361 6.23074 31.924 9.72184 30.9367 14.0129C30.3825 16.1629 29.1538 18.0788 27.431 19.4793C25.7082 20.8799 23.5819 21.6915 21.364 21.795C17.0729 21.795 14.3851 18.3039 15.3724 14.0129C15.9266 11.8629 17.1552 9.94707 18.8781 8.54648C20.6009 7.1459 22.7272 6.3343 24.9451 6.23074ZM50.6098 34.4412C43.1003 34.4412 35.5853 40.5504 33.8575 48.06C32.1297 55.5696 36.8332 61.6788 44.3428 61.6788C51.8524 61.6788 59.3675 55.5695 61.0954 48.0602C62.8233 40.5509 58.1198 34.4412 50.6098 34.4412ZM45.686 55.8421C41.395 55.8421 38.7071 52.351 39.6944 48.06C40.2486 45.9099 41.4772 43.9941 43.2001 42.5935C44.9229 41.1929 47.0493 40.3813 49.2672 40.2778C53.5582 40.2778 56.2461 43.7689 55.2588 48.06C54.7045 50.21 53.4759 52.1258 51.753 53.5264C50.0302 54.9269 47.9039 55.7385 45.686 55.8421ZM0.180176 59.7331L63.1772 2.33911H70.9032L7.90618 59.7331H0.180176Z" fill="url(#paint0_radial)"/>
<defs>
<radialGradient id="paint0_radial" cx="0" cy="0" r="1" gradientUnits="userSpaceOnUse" gradientTransform="translate(6.94423 2.57029) rotate(41.5342) scale(96.822 112.626)">
<stop offset="0.291833" stop-color="#00FF66" stop-opacity="0"/>
<stop offset="1" stop-color="#00FF66"/>
</radialGradient>
</defs>
</svg>
