<svg width="16" height="15" viewBox="0 0 16 15" fill="none" xmlns="http://www.w3.org/2000/svg">
<path d="M14.8501 10.9886L12.7987 8.93721C12.0661 8.20455 10.8206 8.49764 10.5275 9.45006C10.3077 10.1095 9.57504 10.4758 8.91565 10.3292C7.45035 9.96292 5.47218 8.05802 5.10586 6.51945C4.88606 5.86003 5.32565 5.12738 5.98504 4.90761C6.93749 4.61455 7.23055 3.36904 6.4979 2.63639L4.44647 0.58496C3.86035 0.0721031 2.98116 0.0721031 2.46831 0.58496L1.07626 1.977C-0.315776 3.44231 1.2228 7.32537 4.66627 10.7688C8.10974 14.2123 11.9928 15.8242 13.4581 14.3588L14.8501 12.9668C15.363 12.3807 15.363 11.5015 14.8501 10.9886Z" fill="white"/>
</svg>
