<svg width="73" height="61" viewBox="0 0 73 61" fill="none" xmlns="http://www.w3.org/2000/svg">
<path fill-rule="evenodd" clip-rule="evenodd" d="M31.9997 0.408746C13.4727 -0.366869 0 14.3489 0 30.337C0 50.5358 17.2195 60.5901 31.8421 60.59C39.6553 60.59 47.0826 56.8656 52.499 51.3953C57.9219 45.9183 61.6368 38.3831 61.6368 30.337C61.6368 26.8182 60.9954 23.8252 60.0232 21.2878L69.4455 25.5378L72.1589 20.0458L51.6345 10.7807L42.2807 31.5042L48.1456 33.7064L52.7463 23.4029C53.5467 25.2699 54.0968 27.5403 54.0968 30.337C54.0968 36.0621 51.4202 41.7684 47.141 46.0902C42.8554 50.4185 37.2703 53.05 31.842 53.05C19.9816 53.0501 7.54 45.0958 7.54 30.337C7.54 18.4722 17.6043 7.3527 31.6844 7.94215L31.9997 0.408746Z" fill="white"/>
<path fill-rule="evenodd" clip-rule="evenodd" d="M31.9997 0.408746C13.4727 -0.366869 0 14.3489 0 30.337C0 50.5358 17.2195 60.5901 31.8421 60.59C39.6553 60.59 47.0826 56.8656 52.499 51.3953C57.9219 45.9183 61.6368 38.3831 61.6368 30.337C61.6368 26.8182 60.9954 23.8252 60.0232 21.2878L69.4455 25.5378L72.1589 20.0458L51.6345 10.7807L42.2807 31.5042L48.1456 33.7064L52.7463 23.4029C53.5467 25.2699 54.0968 27.5403 54.0968 30.337C54.0968 36.0621 51.4202 41.7684 47.141 46.0902C42.8554 50.4185 37.2703 53.05 31.842 53.05C19.9816 53.0501 7.54 45.0958 7.54 30.337C7.54 18.4722 17.6043 7.3527 31.6844 7.94215L31.9997 0.408746Z" fill="url(#reArrow)"/>
<defs>
<radialGradient id="reArrow" cx="0" cy="0" r="1" gradientUnits="userSpaceOnUse" gradientTransform="translate(6.90138 2.5175) rotate(40.4625) scale(97.1944 112.466)">
<stop offset="0.291833" stop-color="#00FF66" stop-opacity="0"/>
<stop offset="1" stop-color="#00FF66"/>
</radialGradient>
</defs>
</svg>
