<svg width="76" height="63" viewBox="0 0 76 63" fill="none" xmlns="http://www.w3.org/2000/svg">
<path d="M75.6786 6.25774H56.4056C55.2447 6.31207 54.1317 6.73694 53.23 7.47004C52.3282 8.20314 51.685 9.2059 51.3949 10.3312L46.9601 29.6042H52.7967L56.0631 15.4093C58.8507 20.3061 59.6126 26.0989 58.186 31.5499C54.9771 45.4963 41.0211 56.8418 27.0746 56.8418C13.1281 56.8418 4.39295 45.4963 7.60185 31.5499C10.8108 17.6035 24.7668 6.25774 38.7133 6.25774L40.0563 0.421143C22.8922 0.421143 5.71445 14.3857 1.76525 31.5498C-2.18395 48.7139 8.56746 62.6785 25.7317 62.6785C42.8959 62.6785 60.0734 48.7139 64.0227 31.5499C65.7155 24.1923 64.701 17.4273 61.6427 12.0944H74.3357L75.6786 6.25774Z" fill="white"/>
</svg>
