<svg width="100" height="66" viewBox="0 0 100 66" fill="none" xmlns="http://www.w3.org/2000/svg">
<path fill-rule="evenodd" clip-rule="evenodd" d="M72.779 1.28992L97.6526 11.5808C98.2977 11.8609 98.8185 12.3667 99.1174 13.0032C99.4164 13.6398 99.4729 14.3635 99.2765 15.0388L91.5278 50.1335C91.2708 51.1566 90.7644 52.1001 90.0539 52.8799C89.3435 53.6596 88.451 54.2514 87.4562 54.6023L58.7942 64.6287C57.3237 65.1872 55.6994 65.1872 54.2288 64.6287L29.9955 54.6023C29.162 54.2402 28.4891 53.5866 28.1028 52.764C27.7165 51.9414 27.6433 51.0062 27.897 50.1335L29.3222 43.6785H35.3047L34.0671 49.2839L57.7371 59.0779L85.7325 49.2839L92.4391 18.9089L66.7103 27.9089C65.3631 28.4206 63.8751 28.4206 62.5279 27.9089L40.7741 18.9089L38.8378 27.6789H32.8549L35.6456 15.0389C35.8445 14.2472 36.2364 13.517 36.7862 12.9136C37.3361 12.3102 38.0267 11.8524 38.7966 11.5809L68.2136 1.28992C69.6842 0.731484 71.3085 0.731484 72.779 1.28992ZM47.1964 14.5632L65.8605 22.2859L87.9357 14.5632L69.2707 6.84062L47.1964 14.5632ZM10.4909 32.6785H47.5039L46.1791 38.6783H9.16622L16.8334 48.5183L11.6546 52.7605L1.26922 39.4324C-0.34418 37.363 0.39992 33.9939 2.92692 31.9246L19.1978 18.5963L22.5033 22.8385L10.4909 32.6785Z" fill="white"/>
</svg>
