<svg width="75" height="59" viewBox="0 0 75 59" fill="none" xmlns="http://www.w3.org/2000/svg">
<path d="M63.3242 58.7494H43.4534L49.7205 31.5118H28.3198L22.0528 58.7494H2.18171C1.87202 58.7632 1.56358 58.7021 1.28247 58.5714C1.00137 58.4408 0.755872 58.2443 0.56676 57.9987C0.377648 57.7531 0.250485 57.4655 0.196029 57.1603C0.141573 56.8552 0.161427 56.5414 0.253911 56.2455L8.69081 18.231C8.81861 17.7392 9.0556 17.2826 9.38416 16.895C9.71272 16.5074 10.1244 16.1988 10.5886 15.9922L43.0686 1.40569C43.8657 1.0052 44.7454 0.796631 45.6375 0.796631C46.5296 0.796631 47.4093 1.0052 48.2064 1.40569L73.9737 15.9922C74.3458 16.2167 74.6328 16.5583 74.7898 16.9634C74.9468 17.3686 74.9649 17.8144 74.8412 18.231L66.4043 56.2455C66.2266 56.9376 65.8314 57.5544 65.277 58.0051C64.7225 58.4559 64.038 58.7168 63.3242 58.7494ZM50.633 52.9128H61.3345L68.5311 20.2888L44.4311 6.64719L14.0539 20.2888L6.85731 52.9128H17.5588L22.953 29.4687C23.2222 28.42 23.8209 27.4855 24.6611 26.8026C25.5012 26.1197 26.5383 25.7245 27.6198 25.6752H53.1066C53.5758 25.6542 54.0432 25.7466 54.4691 25.9446C54.8951 26.1425 55.267 26.4402 55.5536 26.8123C55.8401 27.1845 56.0327 27.6202 56.1152 28.0826C56.1976 28.545 56.1674 29.0204 56.0272 29.4687L50.633 52.9128Z" fill="white"/>
</svg>
