<svg width="85" height="58" viewBox="0 0 85 58" fill="none" xmlns="http://www.w3.org/2000/svg">
<path fill-rule="evenodd" clip-rule="evenodd" d="M56.2975 0.527344L57.3261 1.02259L84.2081 13.966L84.2651 13.9544V13.9935L84.3261 14.0228L84.2651 14.5022V18.0016V47.7405V50.2504L81.8473 50.9237L59.9861 57.0116V57.6539H57.6796L57.5747 57.6831L57.5362 57.6539H56.6818H3.30432H0V54.3496V22.5593V20.4616L1.89829 19.569L29.1589 6.751L30.5956 6.07547L30.7455 6.14904L55.1826 0.772638L56.2975 0.527344ZM40.9151 10.6783L57.445 18.6757L72.5412 15.6833L55.4877 7.47221L40.9151 10.6783ZM6.60864 24.657V51.0453H53.3775V24.6184L30.5343 13.407L6.60864 24.657ZM59.9926 50.1497V25.6559L77.6565 22.0489V45.2306L59.9926 50.1497Z" fill="white"/>
</svg>
