<svg width="69" height="60" viewBox="0 0 69 60" fill="none" xmlns="http://www.w3.org/2000/svg">
<path fill-rule="evenodd" clip-rule="evenodd" d="M16 0L20.1562 4.5L12.1682 12.4159H64.0906V18.8392H11.6958L20.1562 27.3126L16 32L0 15.8458L16 0ZM52.0908 28L47.9346 32.5L55.9227 40.4159H4.00024V46.8392H56.395L47.9346 55.3126L52.0909 60L68.0908 43.8458L52.0908 28Z" fill="white"/>
<path fill-rule="evenodd" clip-rule="evenodd" d="M16 0L20.1562 4.5L12.1682 12.4159H64.0906V18.8392H11.6958L20.1562 27.3126L16 32L0 15.8458L16 0ZM52.0908 28L47.9346 32.5L55.9227 40.4159H4.00024V46.8392H56.395L47.9346 55.3126L52.0909 60L68.0908 43.8458L52.0908 28Z" fill="url(#thereBack)"/>
<defs>
<radialGradient id="thereBack" cx="0" cy="0" r="1" gradientUnits="userSpaceOnUse" gradientTransform="translate(6.51231 2.13062) rotate(42.0108) scale(93.9136 109.449)">
<stop offset="0.276516" stop-color="#00FF66" stop-opacity="0"/>
<stop offset="0.933432" stop-color="#00FF66"/>
</radialGradient>
</defs>
</svg>
