<svg width="42" height="38" viewBox="0 0 42 38" fill="none" xmlns="http://www.w3.org/2000/svg">
<path d="M40.0489 7.15281L26.2882 0.531397C25.8531 0.341768 25.3836 0.243896 24.909 0.243896C24.4344 0.243896 23.9649 0.341768 23.5299 0.531397L6.8451 7.15281C6.39972 7.32932 6.00275 7.6093 5.687 7.96961C5.37125 8.32992 5.1458 8.7602 5.02927 9.2249L0.874852 28.8755C0.760827 29.2717 0.78838 29.6953 0.952776 30.0735C1.11717 30.4516 1.40814 30.7607 1.77568 30.9476L15.9682 37.7768C16.2525 37.9007 16.5593 37.9647 16.8694 37.9647C17.1796 37.9647 17.4864 37.9007 17.7707 37.7768L34.979 30.9476C35.4244 30.7711 35.8214 30.4911 36.1371 30.1308C36.4529 29.7705 36.6783 29.3402 36.7948 28.8755L40.9498 9.2249C41.0638 8.82863 41.0363 8.40503 40.8718 8.02689C40.7074 7.64875 40.4164 7.33969 40.0489 7.15281ZM35.1905 8.83615L21.9118 14.1055L10.9603 8.83615L24.2388 3.56656L35.1905 8.83615ZM33.617 28.1716L17.5855 34.5332L4.36327 28.1716L7.8871 11.3786L19.5968 17.0131C20.1246 17.2431 20.6942 17.3618 21.2699 17.3618C21.8457 17.3618 22.4152 17.2431 22.943 17.0131L37.1409 11.3786L33.617 28.1716Z" fill="#00965E"/>
</svg>
