<svg width="235" height="29" viewBox="0 0 235 29" fill="none" xmlns="http://www.w3.org/2000/svg">
<path d="M25.1802 0.517856C25.3099 0.509878 25.4388 0.504559 25.5677 0.501899C29.5503 0.421226 32.9003 2.91412 31.7742 7.3485C30.6983 11.5772 27.6847 12.7448 24.6957 13.2394C24.575 13.2625 24.6317 13.3777 24.6957 13.3901C28.2285 14.11 30.4406 16.9061 29.309 21.0027C27.9187 26.0346 24.0842 28.1374 17.0788 28.1374H0.464831C0.279276 28.1374 0.222605 27.9371 0.331378 27.8023C4.59365 22.5975 11.4089 15.7181 17.0551 11.0063C17.2178 10.8689 17.4371 11.0143 17.3805 11.212L13.5423 24.2261H15.9801C16.6136 24.2261 17.2662 23.9619 17.7945 23.5435C18.2826 23.1578 18.6647 22.641 18.8292 22.0807L25.1802 0.517856Z" fill="black"/>
<path d="M133.11 10.1109C134.25 5.82457 137.421 3.58876 143.298 3.58876C150.28 3.58876 152.109 6.79265 150.714 10.8786H144.785C145.463 8.92119 145.394 7.27315 142.63 7.27315C140.867 7.27315 139.779 8.12775 139.358 9.69867C139.131 10.5542 139.123 11.5488 139.91 12.2598C140.56 12.8485 141.717 13.2687 143.008 13.7385C144.783 14.3839 146.814 15.1233 148.138 16.5187C149.319 17.7642 149.639 19.7749 149.141 21.6374C147.686 27.0922 144.293 28.5 138.179 28.5C131.481 28.5 128.193 25.852 130.715 20.0018H137.009C135.878 23.5062 137.066 24.6241 139.048 24.6241C141.109 24.6241 142.145 23.6711 142.676 21.6702C142.836 21.0701 142.892 20.5009 142.706 19.9929C142.573 19.6321 142.318 19.3023 141.89 19.0142C141.013 18.4229 139.873 18.0054 138.704 17.5772C136.72 16.8502 134.652 16.0914 133.636 14.4052C132.911 13.2049 132.795 11.2864 133.11 10.1109Z" fill="black"/>
<path d="M90.35 16.0355C93.1425 5.5595 95.4998 3.78646 104.166 3.78646C111.951 3.78646 112.673 7.3751 111.593 11.4238H104.935C105.602 9.25629 105.579 7.54087 102.957 7.54087C100.229 7.54087 99.115 8.85027 97.1991 16.0355L97.0245 16.6907C95.3316 23.0266 95.0126 24.2208 99.2383 24.2208C100.151 24.2208 100.739 24.1534 101.208 24.1108L103.434 16.1809H110.115L106.982 27.5851C104.277 28.0629 102.416 28.3803 97.9724 28.3803C88.6051 28.3803 87.7486 25.7917 90.35 16.0355Z" fill="black"/>
<path fill-rule="evenodd" clip-rule="evenodd" d="M168.911 16.133C171.858 5.08433 175.109 3.79178 182.608 3.79178C191.385 3.79178 191.808 8.32101 189.725 16.133C186.849 26.9247 183.786 28.4725 176.027 28.4725C168.405 28.4725 166.361 25.7013 168.911 16.133ZM182.938 15.9407C184.782 9.03378 184.466 7.54087 181.61 7.54087C179.06 7.54087 177.474 9.71374 175.813 15.9407C173.82 23.4256 174.243 24.4362 177.103 24.4362C179.312 24.4362 181.115 22.7855 182.938 15.9407Z" fill="black"/>
<path d="M196.008 4.12422C197.411 4.18451 199.796 4.07724 204.933 4.07724C212.052 4.07724 214.628 6.01783 213.112 11.7093L208.731 28.1374H202.774C202.372 28.1374 202.132 27.8147 202.239 27.4176L206.429 11.7093C207.192 8.84583 206.81 7.8485 203.917 7.8485C203.502 7.8485 203.089 7.85914 202.711 7.87066C202.318 7.88219 201.963 7.89371 201.684 7.89548L196.287 28.1374H190.328C189.928 28.1374 189.688 27.8147 189.794 27.4176L196.008 4.12422Z" fill="black"/>
<path d="M30.6938 27.414L36.9048 4.12156H46.4385C52.8534 4.12156 55.3936 7.23325 54.3515 11.1393C53.5627 14.0932 51.7007 15.8361 48.8544 16.6889C48.7712 16.7137 48.7849 16.7882 48.8288 16.8431C48.9933 17.0444 49.1341 17.266 49.2602 17.5187C49.4019 17.8041 49.5253 18.1286 49.6432 18.5089L51.953 28.1348H46.6341C45.2932 28.1348 44.7054 27.6693 44.4111 26.5346L41.9303 14.9132H42.8078C45.1286 14.9132 47.0802 13.54 47.7328 11.0994C48.2273 9.24388 47.3763 7.868 45.0811 7.868C44.2173 7.868 43.6798 7.87687 43.2557 7.88396C43.0062 7.88839 42.7969 7.89194 42.583 7.89282L37.1864 28.1348H31.2294C31.0466 28.1348 30.8976 28.0674 30.7989 27.9574C30.681 27.8254 30.6362 27.6312 30.6938 27.414Z" fill="black"/>
<path fill-rule="evenodd" clip-rule="evenodd" d="M65.0908 27.414L71.3 4.12156H80.214C88.8674 4.12156 90.3326 7.11003 87.9579 16.0258C85.2221 26.2846 83.5403 28.1348 73.5669 28.1348H65.6274C65.3852 28.1348 65.2023 28.0177 65.1173 27.8378C65.0616 27.719 65.0488 27.5727 65.0908 27.414ZM81.1244 16.0284C82.9708 9.1109 82.9754 7.87066 79.1107 7.87066C77.7387 7.87066 77.5321 7.89282 76.9782 7.89548L72.6748 24.0355H74.5029C78.1775 24.0355 79.2624 23.0284 81.1244 16.0284Z" fill="black"/>
<path d="M152.311 8.02314L153.339 4.12156L172.371 4.12422L171.744 5.72262C171.123 7.27846 170.004 8.0258 168.166 8.0258H164.888L159.514 28.1374H153.12C152.72 28.1374 152.477 27.8147 152.583 27.4176L156.926 11.1694C157.232 10.0214 157.877 8.92119 158.934 8.14814C158.996 8.10293 158.996 8.02314 158.929 8.02314H152.311Z" fill="black"/>
<path d="M53.7583 27.4176L59.9703 4.12422H66.2663C66.6685 4.12422 66.9089 4.44692 66.8029 4.84408L60.5891 28.1374H54.2948C53.8927 28.1374 53.6523 27.8147 53.7583 27.4176Z" fill="black"/>
<path d="M114.772 11.1419C116.443 4.86979 117.734 4.12422 122.033 4.12422H132.396L131.393 7.89105H124.261C122.827 7.89105 122.094 8.74034 121.829 9.74122L120.816 13.5648H129.725L128.721 17.329H119.815L118.304 23.0656C118.142 23.7465 118.444 24.0036 119.312 24.0036H128.288L127.556 25.8369C127.216 26.7066 126.646 27.3874 125.837 27.7766C125.35 28.0098 124.777 28.1374 124.116 28.1374H115.174C111.93 28.1374 110.749 26.4645 111.696 22.6126L114.772 11.1419Z" fill="black"/>
<path d="M216.65 11.1419C218.321 4.86979 219.612 4.12422 223.914 4.12422H234.276L233.271 7.89105H226.141C224.708 7.89105 223.975 8.74034 223.707 9.74122L222.696 13.5648H231.605L230.599 17.329H221.693L220.182 23.0656C220.02 23.7465 220.324 24.0036 221.191 24.0036H230.169L229.434 25.8369C228.887 27.2296 227.755 28.1374 225.994 28.1374H217.049C213.808 28.1374 212.627 26.4645 213.574 22.6126L216.65 11.1419Z" fill="black"/>
<path d="M8.0488 3.11625L4.17044 16.3112C4.11651 16.508 4.36696 16.6233 4.50316 16.4806C9.89795 11.0417 17.3338 4.96908 23.5019 0.876011C23.6564 0.773174 23.5924 0.520516 23.3941 0.520516H11.5323C9.97016 0.520516 8.42265 1.7581 8.0488 3.11625Z" fill="black"/>
</svg>
