<svg width="217" height="44" viewBox="0 0 217 44" fill="none" xmlns="http://www.w3.org/2000/svg">
<path d="M33.1964 12.0328C31.6155 11.1023 29.9237 10.5948 28.2318 10.5666C28.1209 10.5384 28.0377 10.5384 27.9267 10.5384C25.8743 10.5384 23.8774 11.1019 22.2133 12.2866C20.577 13.4427 19.2457 15.1063 18.2749 17.0801C17.332 19.0539 16.8605 21.3942 16.8605 23.8474C16.8605 26.6389 17.4152 29.1202 18.5246 31.094C19.5508 33.0956 20.993 34.5618 22.7126 35.5769C24.3489 36.4796 26.1517 37.0432 27.9826 37.0432L27.9267 36.959H28.2318C29.9237 36.9022 31.6432 36.4228 33.2796 35.4927C34.9437 34.5618 36.3582 33.0956 37.4676 31.094C38.4938 29.1202 39.0207 26.6389 39.0207 23.8474C39.0207 21.0277 38.4938 18.5463 37.3844 16.5725C36.275 14.5984 34.8605 13.0197 33.1964 12.0328ZM30.4229 31.8545C30.0901 33.8287 29.369 34.8156 28.2596 34.8156H28.2318C27.067 34.8156 26.3458 33.8287 26.013 31.8545C25.7357 29.8811 25.5693 27.146 25.5693 23.847C25.5693 22.3529 25.6247 20.8581 25.6247 19.6174C25.6247 18.4614 25.7911 17.2489 25.9575 16.2338C26.0685 15.2469 26.3736 14.3446 26.7619 13.6961C27.0669 13.0193 27.6217 12.7092 28.2318 12.7092C29.369 12.7092 30.0901 13.7807 30.4229 15.7544C30.7557 17.7282 30.8944 20.4633 30.8944 23.847C30.8944 27.146 30.7557 29.8811 30.4229 31.8545ZM214.14 32.1651V2.24809H204.127L204.072 4.47565C206.374 4.47565 206.374 4.47565 206.374 6.61862V32.1651C206.374 33.8851 206.374 33.8005 204.266 33.8005L204.322 35.9717H216.248V33.8005C214.833 33.8005 214.14 33.7723 214.14 32.1651ZM76.6572 32.1651V13.6115H78.5709L78.5986 11.5249L76.6572 11.4967V2.24809L74.6325 2.27628C72.3305 6.02648 69.3906 8.87438 65.6464 11.4967V13.6115C67.4769 13.6115 68.1703 13.6397 68.1703 15.4725V32.1651C68.1703 33.7723 67.255 33.8005 65.9515 33.8005V35.9717H78.765V33.8005C77.1291 33.8005 76.6572 33.7441 76.6572 32.1651ZM62.0686 32.3061V16.6853C62.0686 13.1043 60.0162 10.5384 55.8559 10.5384C53.4984 10.5384 51.1132 11.6099 48.8944 14.0348V11.4971H39.104V13.6119C41.1563 13.6119 41.2122 13.6119 41.2122 15.4447L41.2677 32.1937C41.2677 33.7723 41.129 33.8009 39.1043 33.8573V35.9717H51.7238V33.8005C49.8378 33.8005 49.2831 33.7723 49.2831 32.1087V17.2493C49.1444 16.1496 50.2261 14.5706 51.5019 14.5706C52.8613 14.5706 54.1648 15.3319 54.1648 17.0237L54.1371 35.9721H64.4268V33.7723C62.9838 33.7441 62.0686 33.7723 62.0686 32.3061ZM85.5324 10.3692C86.8082 10.3692 87.9176 9.88986 88.6664 8.98756C89.3876 8.14165 89.7481 7.12656 89.7481 6.16786C89.7481 5.15277 89.2766 4.10948 88.5551 3.20718C87.8344 2.36127 86.725 1.88192 85.5324 1.88192C84.9785 1.8822 84.4309 2.00025 83.9246 2.22848C83.4183 2.45671 82.9645 2.79008 82.5925 3.20718C81.8436 3.9403 81.3999 4.955 81.3999 6.11147V6.16786C81.3999 7.32393 81.8436 8.42362 82.5925 9.15674C83.3413 9.88986 84.423 10.3692 85.5324 10.3692Z" fill="black"/>
<path d="M28.2318 39.0457C25.597 39.722 23.0176 39.581 20.7711 38.4531C15.7233 35.9158 11.1748 27.5695 11.1748 22.0429C11.1748 13.2736 18.1363 3.91223 27.0669 5.32207C27.4275 5.37847 27.8158 5.46306 28.2318 5.57585C31.1717 6.36536 34.8327 8.33915 37.3012 10.2002L37.7449 8.45194L29.9237 0.584983L29.4244 2.36139C29.0225 2.23357 28.6247 2.09251 28.2318 1.93844C24.4321 0.556786 24.7649 0.5 21.0211 0.5C17.9702 0.5 15.0303 1.17712 12.5342 2.22041C10.1767 3.1791 7.70828 4.92732 5.96097 6.81651C4.26914 8.62112 2.54957 11.1307 1.66204 13.6684C0.801874 16.2343 0.247559 19.1386 0.247559 22.0429C0.247559 25.9901 1.3011 29.8534 3.02068 33.0675C4.65704 36.1692 7.37507 39.0171 10.5369 40.7649C13.5877 42.5135 17.3874 43.5 21.3813 43.5C23.6001 43.5 25.9853 43.3026 28.2318 42.7673C30.5061 42.2029 32.6417 41.301 34.3062 39.863C36.0808 38.34 36.5801 38.3967 37.7172 37.3252L36.9406 34.2236C34.1394 36.6485 31.1444 38.3403 28.2318 39.0457ZM90.7188 32.1652V11.4972H80.1795V13.5556C82.01 13.612 82.2874 13.6402 82.2874 15.473V32.1656C82.2874 33.7728 81.9823 33.801 80.0408 33.801V35.9722H92.8544V33.801C91.1903 33.8006 90.7188 33.7724 90.7188 32.1652ZM129.742 24.1573L140.475 24.1009C140.475 22.2963 140.198 19.7021 139.698 18.2077C139.282 16.7979 138.478 15.4162 137.563 14.3161C136.675 13.301 135.483 12.3987 134.207 11.863C132.959 11.299 131.517 10.9889 129.964 10.9889H129.742C127.744 10.9889 125.831 11.2709 124.195 12.3987C122.558 13.5548 120.839 15.6132 119.924 17.6716C119.396 18.9122 119.091 20.3221 118.953 21.8165C118.869 22.8038 118.842 23.7903 118.842 24.8054C118.842 25.4257 118.869 26.0461 118.953 26.6664C119.147 28.0481 119.563 29.3733 120.117 30.6136C120.921 32.334 122.198 33.8284 123.917 34.8717C125.526 35.8586 127.522 36.4222 129.741 36.4504H129.963C132.653 36.4504 135.316 35.8582 137.008 34.477C138.589 33.1513 140.308 30.4162 140.225 26.892L137.979 26.8352C137.784 30.7546 135.399 32.8972 133.097 33.6025C132.126 33.9122 130.934 34.11 129.741 33.7431C129.408 33.6307 129.075 33.4611 128.743 33.2637C127.439 31.9952 127.855 27.286 127.855 24.1561H129.742V24.1573ZM127.856 15.4448C127.856 15.4448 127.856 13.668 129.742 13.5838H129.936C131.628 13.612 131.628 15.4448 131.628 15.4448V22.1839H129.742L127.856 22.2117V15.4448ZM163.69 32.3062V16.6855C163.69 13.1044 161.665 10.5385 157.505 10.5385C155.12 10.5385 152.734 11.61 150.516 14.0349V11.4972H140.725V13.612C142.777 13.612 142.833 13.612 142.833 15.4448L142.889 32.1938C142.889 33.7724 142.75 33.801 140.753 33.8574V35.9718H153.373V33.8006C151.459 33.8006 150.904 33.7724 150.904 32.1088V17.2494C150.766 16.1497 151.847 14.5707 153.123 14.5707C154.482 14.5707 155.786 15.332 155.786 17.0238V35.9722H166.048V33.7724C164.633 33.7442 163.69 33.7724 163.69 32.3062ZM116.734 32.3062V16.6855C116.734 13.1044 114.682 10.5385 110.521 10.5385C108.192 10.5385 105.807 11.61 103.56 14.0349V11.4972H93.7974V13.612C95.8494 13.612 95.9326 13.612 95.9326 15.4448L95.9604 32.1938C95.9604 33.7724 95.8221 33.801 93.797 33.8574L93.8248 35.9718H106.444V33.8006C104.53 33.8006 103.976 33.7724 103.976 32.1088V17.2494C103.837 16.1497 104.919 14.5707 106.195 14.5707C107.553 14.5707 108.857 15.332 108.857 17.0238L108.829 35.9722H119.091V33.7724H118.953C117.622 33.7442 116.734 33.7442 116.734 32.3062ZM200.993 32.137L201.049 16.6005C201.049 12.5119 196.805 9.74861 191.73 9.74861C191.536 9.74861 191.342 9.74861 191.12 9.7768C188.346 10.0306 184.075 11.8352 182.051 13.3014C182.217 14.6831 182.078 14.7959 182.078 16.0647L187.93 13.1886C188.54 12.8785 189.982 12.6247 191.12 12.7657C191.841 12.8785 192.423 13.1322 192.645 13.6398C192.811 14.0627 193.145 14.6831 193.145 15.3034L193.172 18.1509C192.506 17.7562 191.813 17.4742 191.12 17.2486C189.289 16.7129 187.459 16.7693 186.211 17.1076C182.355 18.1791 180.664 22.4087 180.664 27.5687C180.664 31.1775 182.799 36.8451 187.486 36.8451C189.123 36.8451 190.149 36.4222 191.12 35.8018C191.592 35.5203 192.035 35.1815 192.534 34.8435C193.727 35.9714 196.085 35.9432 197.166 35.9432L203.323 35.9996L203.268 33.7438C201.353 33.7724 200.993 33.7156 200.993 32.137ZM191.452 32.8141C191.342 32.8141 191.231 32.7859 191.12 32.7859C189.761 32.7009 189.4 31.94 189.095 29.9098C189.095 27.5695 189.095 24.6088 189.067 23.4245C189.012 21.3098 189.761 20.2665 191.036 20.2665H191.12C192.395 20.3229 193.117 21.4225 193.117 22.8324C193.117 24.637 193.172 28.0488 193.172 30.0508C193.199 31.9114 192.562 32.8141 191.452 32.8141ZM177.973 32.1652V13.6116H179.859L179.915 11.525L177.974 11.4968V2.24821L175.949 2.27641C173.647 6.02661 170.707 8.8745 166.963 11.4968V13.6116C168.793 13.6116 169.459 13.6398 169.459 15.4726V32.1652C169.459 33.7724 168.571 33.8006 167.268 33.8006V35.9718H180.109V33.8006C178.417 33.8006 177.973 33.7442 177.973 32.1652Z" fill="black"/>
</svg>
