<svg width="68" height="48" viewBox="0 0 68 48" fill="none" xmlns="http://www.w3.org/2000/svg">
<path fill-rule="evenodd" clip-rule="evenodd" d="M64.7002 11.9C64.7002 12.7 64.6002 13.6 64.4002 14.4C64.2407 15.1175 64.0177 15.7714 63.7818 16.4632C63.7218 16.6391 63.661 16.8175 63.6002 17L65.3002 19.7999L62.4002 23.4L58.9002 22.7999C57.5002 23.9 55.8002 24.7999 54.1002 25.2999L52.1002 28.7H47.9002L47.4002 25.2999C45.9002 24.7999 44.7002 23.9 43.7002 22.7999L40.0002 23.4L38.7002 19.7999L41.6002 17C41.6002 16.2 41.7002 15.3 41.9002 14.5C42.1002 13.6 42.3002 12.8 42.7002 12L41.0002 9.19995L43.9002 5.49995L47.4002 6.09995C48.8002 4.99995 50.5002 4.09995 52.2002 3.59995L54.2002 0.199951H58.4002L58.9002 3.59995C60.4002 4.09995 61.6002 4.99995 62.6002 6.09995L66.3002 5.49995L67.6002 9.09995L64.7002 11.9ZM45.7002 14.4C44.8002 18.6 47.4002 21.9 51.5002 21.9C55.6002 21.9 59.7002 18.6 60.6002 14.4C61.5002 10.2 58.9002 6.89995 54.8002 6.89995C50.7002 6.89995 46.6002 10.3 45.7002 14.4ZM36.9004 17.3L34.3004 21.2C34.7004 22.3 34.9004 23.5 35.0004 24.8L38.6004 26.3L37.5004 31.1L33.2004 32.7C32.6004 33.9 31.9004 35.1 31.0004 36.2L31.8004 40.1L27.7004 43.5L24.1004 41.8C22.8004 42.5 21.5004 43 20.2004 43.3L17.7004 47.3H12.9004L12.2004 43.3C11.0004 42.9 10.0004 42.4 9.00039 41.8L4.70039 43.5L2.10039 40.1L4.70039 36.2C4.30039 35.1 4.10039 34 4.00039 32.7L0.400391 31.1L1.50039 26.3L5.80039 24.7C6.40039 23.5 7.10039 22.3 8.00039 21.2L7.20039 17.3L11.3004 13.9L14.9004 15.6C16.2004 14.9 17.5004 14.4 18.8004 14.1L21.3004 10.1H26.1004L26.8004 14.1C28.0004 14.5 29.0004 15 30.0004 15.6L34.3004 13.9L36.9004 17.3ZM8.20039 28.8C6.80039 35 10.8004 40.1 17.0004 40.1C23.2004 40.1 29.4004 34.9 30.8004 28.7C32.2004 22.5 28.2004 17.4 22.0004 17.4C15.8004 17.4 9.60039 22.6 8.20039 28.8Z" fill="url(#business-icon)"/>
<defs>
<linearGradient id="business-icon" x1="0.431112" y1="23.7472" x2="67.5643" y2="23.7472" gradientUnits="userSpaceOnUse">
<stop offset="0.0838" stop-color="white"/>
<stop offset="1" stop-color="white" stop-opacity="0.3"/>
</linearGradient>
</defs>
</svg>
