<svg width="251" height="45" viewBox="0 0 251 45" fill="none" xmlns="http://www.w3.org/2000/svg">
<path d="M137.311 27.2982L141.896 24.3496C142.184 24.5383 142.472 24.9188 142.658 25.3008C137.282 28.2491 132.478 32.9061 127.935 37.3093C126.909 38.3042 125.896 39.2861 124.893 40.2324C122.521 42.2276 119.845 43.8335 116.966 44.9898C116.564 45.0554 116.444 44.7948 116.309 44.502C116.252 44.3775 116.192 44.2472 116.106 44.1337C116.68 43.6883 117.339 43.4131 117.998 43.1379C118.326 43.0007 118.654 42.8636 118.972 42.7054C122.896 40.7267 125.988 37.6063 129.097 34.4695C131.665 31.8789 134.244 29.2772 137.311 27.2982Z" fill="black"/>
<path fill-rule="evenodd" clip-rule="evenodd" d="M165.585 3.89975C166.827 2.94859 167.973 1.61697 167.973 0C161.575 1.42674 154.218 1.14139 147.533 0.475579C147.026 0.475579 146.506 0.468076 145.978 0.460465C141.537 0.396387 136.571 0.324736 134.351 4.66067C133.397 6.75322 133.587 9.70182 135.021 11.509C134.735 13.6016 134.446 16.2648 135.499 18.2622L135.506 18.2763C135.793 18.8454 136.171 19.5946 136.836 19.689C137.696 18.6427 138.46 17.3111 138.842 15.8843C139.067 14.7068 139.426 15.1174 139.858 15.613C140.159 15.9574 140.496 16.3428 140.848 16.2648C140.894 16.1625 140.941 16.0603 140.988 15.9576C141.336 15.2002 141.696 14.4164 141.612 13.4113C141.723 12.909 142 13.1599 142.344 13.4723C142.587 13.6923 142.863 13.9427 143.139 13.982C143.618 13.5064 143.903 12.5553 144.096 11.8895C144.273 11.4475 144.223 11.0055 144.177 10.5921C144.124 10.1159 144.075 9.67776 144.381 9.32135C145.527 9.70182 147.055 10.0823 148.393 9.51158C148.87 9.41646 150.112 9.036 149.824 8.65554C149.157 8.56042 148.681 8.27508 148.393 7.89462C150.11 7.98973 151.736 7.79794 152.882 6.56299C152.75 6.52369 152.617 6.4862 152.484 6.44877C151.649 6.21442 150.824 5.98262 150.494 5.32648C150.558 5.19921 150.622 5.15709 150.686 5.11466C150.718 5.09368 150.75 5.07262 150.782 5.04114C151.086 5.07084 151.394 5.10165 151.704 5.13274C156.361 5.59951 161.645 6.12915 165.585 3.89975Z" fill="black"/>
<path fill-rule="evenodd" clip-rule="evenodd" d="M95.0945 10.7481H110.09C113.72 10.7481 116.585 13.6 117.35 16.5501C118.782 22.8278 115.535 29.3892 110.568 32.7183C109.039 33.6694 107.13 34.6221 105.505 34.6221H88.9811L95.0945 10.7481ZM108.181 16.7404C108.181 16.7404 108.371 15.7892 108.084 15.0283C107.553 14.0457 106.237 14.1443 105.144 14.2262C104.862 14.2473 104.594 14.2674 104.359 14.2674C104.359 14.2674 99.9646 31.3866 100.062 31.1013V31.2915H102.832C103.262 31.2787 103.676 31.1214 104.005 30.8452C104.335 30.5689 104.561 30.1899 104.647 29.7697L108.181 16.7404Z" fill="black"/>
<path fill-rule="evenodd" clip-rule="evenodd" d="M205.319 10.9383H215.064L215.252 11.5074L217.164 34.6206C214.681 34.5572 212.366 34.5783 210.052 34.5995C208.895 34.61 207.738 34.6206 206.561 34.6206C206.512 34.024 206.488 33.5054 206.463 32.956C206.441 32.4544 206.417 31.9271 206.371 31.2915V31.0062H197.679C197.05 31.7458 196.593 32.5188 196.163 33.245C195.874 33.7328 195.598 34.1995 195.291 34.6206H190.706L190.801 34.4288C191.417 33.435 192.037 32.4364 192.659 31.434C196.855 24.6675 201.158 17.7301 205.319 10.9383ZM205.989 27.0113L205.319 20.0679C205.196 19.9454 205.179 19.7707 205.161 19.596C205.138 19.3636 205.115 19.1311 204.843 19.0216C204.413 19.701 203.957 20.4005 203.493 21.1111C202.204 23.0863 200.859 25.1478 199.876 27.1064C200.831 27.154 201.881 27.154 202.908 27.154C203.934 27.154 204.937 27.154 205.797 27.2016L205.989 27.0113Z" fill="black"/>
<path fill-rule="evenodd" clip-rule="evenodd" d="M39.0263 11.9846C43.0367 9.70181 49.1501 9.41646 53.6396 11.9846C55.265 12.9357 56.1232 14.1723 56.7918 15.3136C59.1799 19.0232 57.1739 26.4422 53.6396 30.3404C49.7232 34.8108 43.4203 36.0473 37.5935 34.527C34.3457 33.4808 31.4801 30.3404 31.1935 26.7275C30.6204 20.7352 33.8681 14.9332 39.0263 11.9846ZM40.3636 30.1501C40.1726 30.9111 40.9383 32.1476 42.083 32.1476C43.2293 32.1476 44.28 31.4818 44.5666 30.1501L48.1964 15.8843C48.483 14.8381 47.7188 13.7918 46.477 13.7918C45.3307 13.7918 44.1845 14.743 43.9934 15.8843L40.3636 30.1501Z" fill="black"/>
<path fill-rule="evenodd" clip-rule="evenodd" d="M83.7274 30.3404C87.2617 26.4422 89.2677 19.0232 86.8796 15.3136C86.211 14.1723 85.3513 12.9357 83.6319 11.9846C79.2363 9.41646 73.1245 9.70181 69.0171 11.9846C63.956 14.9347 60.7082 20.7352 61.2813 26.7275C61.4708 30.3404 64.3365 33.4792 67.6797 34.527C73.5066 36.0473 79.7155 34.8108 83.7274 30.3404ZM74.7484 30.2453C74.3663 31.4818 73.3155 32.1476 72.1693 32.1476C71.0246 32.1476 70.1649 30.9111 70.4499 30.1501L74.0797 15.8843C74.2708 14.743 75.417 13.7918 76.5633 13.7918C77.7095 13.7918 78.5692 14.8381 78.3782 15.9795L74.7484 30.2453Z" fill="black"/>
<path fill-rule="evenodd" clip-rule="evenodd" d="M223.342 22.1637C224.385 18.3559 225.405 14.6361 226.334 10.9383C233.496 10.8432 238.081 10.8432 243.432 10.9383C246.68 10.9383 249.164 12.9358 250.023 14.743C251.265 17.1208 250.69 20.0679 249.353 22.2555C248.399 23.7774 246.487 25.2041 245.056 26.1553C245.396 28.2532 245.881 30.2058 246.373 32.1862C246.572 32.9893 246.773 33.7969 246.965 34.6206C245.836 34.6206 244.769 34.5999 243.685 34.5789C241.469 34.536 239.186 34.4918 236.171 34.6206H235.789L234.07 27.7722C233.992 27.5396 233.469 27.5599 233.072 27.5753C232.982 27.5788 232.898 27.582 232.828 27.582L232.638 28.0576L230.919 34.6206H230.155C228.871 34.6206 227.645 34.6319 226.459 34.6428C224.203 34.6635 222.095 34.6829 220.028 34.6206C221.107 30.3179 222.238 26.1916 223.342 22.1637ZM239.992 16.6453C239.992 16.6453 240.183 15.599 239.895 14.8381C239.373 13.9411 238.083 14.0419 236.995 14.1268C236.697 14.1501 236.414 14.1722 236.166 14.1722C236.166 14.1722 233.684 24.0643 233.781 23.7789V23.9692H236.55C237.41 23.9692 238.174 23.3985 238.462 22.5424L239.992 16.6453Z" fill="black"/>
<path d="M122.794 10.6528L122.89 10.3674C124.092 9.71108 125.325 9.00772 126.596 8.28279C128.456 7.22179 130.397 6.11458 132.44 5.04095C132.391 5.31952 132.333 5.60375 132.275 5.89167C131.994 7.27497 131.696 8.7437 132.251 10.0821L132.155 10.3674L125.278 14.3623L124.991 14.2672L122.794 10.6528Z" fill="black"/>
<path d="M4.92635 15.2183C9.2264 10.9381 16.1024 9.41627 22.2158 11.2235C22.5132 11.435 22.8107 11.5713 23.1082 11.7076C23.4796 11.8778 23.8513 12.048 24.2233 12.3649C23.7457 13.5063 23.1726 14.6476 22.5995 15.6939C21.8353 15.2183 20.9756 14.7428 20.9756 14.7428C19.5428 13.8867 17.3458 13.6014 15.6264 14.3623C15.0532 14.6476 14.2891 15.4086 14.1935 15.8842L10.5637 29.8646C10.3727 30.5304 10.6592 31.1962 11.2324 31.4816C12.2831 31.862 13.5249 31.6718 14.5756 31.4816C14.5756 31.2914 17.1532 22.0651 17.1532 22.0651C18.3776 22.0651 19.5912 22.0543 20.7902 22.0436C23.1457 22.0226 25.4451 22.0021 27.6606 22.0651L24.5083 34.3351L24.1263 34.5268H7.8891C4.64135 34.5268 1.77569 32.0523 1.20256 29.5793C-0.134747 24.4446 1.29808 18.8327 4.92635 15.2183Z" fill="black"/>
<path d="M146.482 11.2235L146.387 10.9381H157.657C158.357 13.0358 158.997 15.1968 159.624 17.3169C159.765 17.7924 159.905 18.2659 160.045 18.7361C160.214 19.3321 160.232 19.3183 160.508 19.1042C160.54 19.0791 160.576 19.0513 160.616 19.0214C161.873 17.6204 163.13 16.1668 164.372 14.7298C165.491 13.4351 166.599 12.1538 167.685 10.9366H172.844L172.94 11.0317L161.859 24.2528L158.997 34.6204H147.628L150.304 24.1577L146.482 11.2235Z" fill="black"/>
<path d="M173.961 15.9069C174.383 14.2537 174.806 12.598 175.233 10.9381L194.909 10.9366C194.869 11.119 194.83 11.3032 194.791 11.4885C194.542 12.6556 194.285 13.8643 193.955 14.9314C192.666 15.0272 191.187 15.0036 189.685 14.9797C188.179 14.9557 186.649 14.9313 185.262 15.0265C184.875 15.9613 184.615 16.9913 184.355 18.0249C184.164 18.7793 183.974 19.5355 183.732 20.2579V20.5433L189.37 20.6384C189.236 21.4954 189.012 22.3982 188.792 23.2833C188.694 23.6752 188.598 24.0636 188.51 24.443L188.222 24.7284H182.873L182.395 25.1088L180.961 30.6255L181.535 30.7207H189.558C189.477 31.8584 189.117 32.9961 188.776 34.0744C188.717 34.2582 188.66 34.4403 188.604 34.6204H169.024L169.119 34.2399C170.847 28.1007 172.4 22.0203 173.961 15.9069Z" fill="black"/>
<path d="M129.352 14.8579C128.891 14.8144 128.426 14.7705 127.952 14.7428C128.253 14.5596 128.553 14.3737 128.854 14.1874C130.275 13.3081 131.707 12.4221 133.204 11.7942C133.015 12.7453 132.822 13.9818 132.727 14.933C131.576 15.0678 130.474 14.9638 129.352 14.8579Z" fill="black"/>
<path d="M125.849 19.6888C126.04 18.5474 126.233 17.2158 126.136 16.0744L131.484 16.7402C131.057 16.9742 130.629 17.213 130.203 17.4513C128.725 18.2781 127.258 19.0981 125.849 19.6888Z" fill="black"/>
<path d="M129.113 26.824C128.175 25.0367 127.229 23.2353 126.422 21.3993C128.319 20.25 130.287 19.3144 132.327 18.345C132.651 18.1912 132.976 18.0365 133.303 17.88C133.781 19.6872 134.734 21.2091 136.166 22.5407C136.977 22.2296 137.624 21.4345 138.215 20.7079C138.53 20.3202 138.83 19.952 139.13 19.6872L141.133 23.1098C137.79 25.2039 134.257 27.4852 131.202 30.3386H130.914C130.344 29.1693 129.73 27.9997 129.113 26.824Z" fill="black"/>
<path d="M120.118 34.3335C121.36 30.2451 122.888 26.2502 124.894 22.5407L125.275 22.7294C125.863 23.9396 126.499 25.1333 127.137 26.3305C128.054 28.0517 128.975 29.78 129.764 31.5751C129.151 32.1999 128.54 32.8408 127.925 33.4851C124.328 37.2567 120.619 41.1463 115.724 42.6086C115.342 42.7037 115.151 42.3232 115.055 42.0394C114.769 41.1834 115.246 40.516 115.724 39.9469C116.112 39.4878 116.518 39.0351 116.925 38.581C118.124 37.2444 119.334 35.8954 120.118 34.3335Z" fill="black"/>
</svg>
