<svg width="212" height="27" viewBox="0 0 212 27" fill="none" xmlns="http://www.w3.org/2000/svg">
<path d="M45.6352 0.5L45.7357 1.43474C46.5142 10.9465 40.5255 25.3978 23.8442 26.4982C22.4908 26.532 21.1717 26.0979 20.2241 25.2975C14.0663 20.3578 9.70065 17.5549 1.31045 13.0493C1.22587 12.9998 1.13202 12.9489 1.0395 12.8981C0.946985 12.8485 0.853144 12.799 0.768555 12.7482C13.6605 12.7482 20.2241 7.7094 20.2915 0.5H26.6872C26.8564 6.5074 24.0808 11.1459 19.48 14.25C19.4456 14.2839 19.4126 14.3165 19.4126 14.3504C19.4126 14.4508 19.513 14.4508 19.5474 14.4508C25.9087 12.181 30.0708 6.60778 29.7999 0.5H36.0925C36.6344 7.47473 33.3526 14.0831 27.126 18.1884C27.093 18.2223 27.093 18.2549 27.093 18.2888C27.093 18.3892 27.1948 18.3892 27.2278 18.3892C34.706 16.3867 39.9506 8.00924 39.2064 0.5H45.6352Z" fill="black"/>
<path fill-rule="evenodd" clip-rule="evenodd" d="M136.381 14.1509C135.569 16.8209 135.873 19.324 137.261 21.1595C138.851 23.2611 141.66 24.4292 145.247 24.4292C153.637 24.4292 158.374 21.226 160.608 14.0505C161.419 11.3806 161.115 8.8775 159.728 7.04191C158.138 4.93906 155.329 3.77095 151.743 3.77095C144.028 3.77095 138.411 7.54252 136.381 14.1509ZM143.792 18.3553C143.115 17.4545 143.115 16.0856 143.724 14.0831C144.469 11.6478 146.193 8.77712 150.084 8.77712C151.574 8.77712 152.589 9.14476 153.13 9.87873C153.806 10.7457 153.806 12.1485 153.198 14.1509C152.453 16.5862 150.728 19.4569 146.837 19.4569C146.147 19.4569 145.556 19.3735 145.065 19.2079C144.519 19.0254 144.094 18.7412 143.792 18.3553Z" fill="black"/>
<path fill-rule="evenodd" clip-rule="evenodd" d="M73.4479 6.00678C73.5153 6.24014 74.5304 9.74445 74.6322 10.0117C75.3089 9.74445 78.1506 8.64414 80.6208 8.64414C82.9893 8.64414 84.3084 8.94399 84.8159 9.61148C85.0869 9.94522 85.1212 10.3794 84.9521 10.9126L84.4776 12.4483L84.3428 12.4144C81.1284 11.3806 78.6925 11.4132 78.6925 11.4132C76.1548 11.4132 73.8537 12.0481 72.0945 13.2162C70.3683 14.3504 69.151 15.9526 68.5748 17.8886C68.3289 18.6643 68.2219 19.3839 68.2536 20.0358C68.2562 20.1023 68.2615 20.1687 68.2668 20.2352C68.2761 20.3356 68.2893 20.4347 68.3052 20.5312C68.3197 20.6198 68.3369 20.7072 68.358 20.7919C68.4109 21.0161 68.4836 21.2286 68.5748 21.4307C68.6752 21.655 68.7995 21.8648 68.9475 22.0604C69.8608 23.2611 71.62 23.896 74.0903 23.896C75.2402 23.896 76.4389 23.75 77.6298 23.4749C78.2047 23.3419 78.7797 23.179 79.3454 22.9873C79.4842 22.9404 79.6229 22.8922 79.7604 22.8413C79.8873 22.7944 80.0142 22.7474 80.1397 22.6979C80.5085 22.5519 80.8719 22.3954 81.2301 22.2273L81.5341 22.093L81.4205 22.4528L81.3002 22.8387C81.2116 23.1255 81.1244 23.4123 81.094 23.5284H88.6396C88.707 23.3289 92.6999 10.4797 92.6999 10.4797C92.8691 9.94522 92.9365 9.41071 92.9365 8.94399C92.9365 8.10963 92.6999 7.37565 92.2267 6.77465C91.0081 5.13983 88.1995 4.27157 84.0718 4.27157C79.0308 4.27157 74.2938 5.73952 73.4479 6.00678ZM79.4709 15.319C79.8119 15.319 80.6552 15.3308 81.5394 15.4585C82.1434 15.5459 82.766 15.688 83.2603 15.9187L83.362 15.9865L82.5162 18.723L82.4474 18.7555C81.2301 19.324 79.5383 19.6903 78.1849 19.6903C76.8989 19.6903 76.0186 19.3904 75.5798 18.8559C75.4107 18.6226 75.3089 18.3553 75.3089 18.0555C75.3089 17.9981 75.3128 17.9368 75.3208 17.873C75.3366 17.7504 75.3657 17.6187 75.4107 17.4884C75.8838 16.1195 77.3721 15.319 79.4709 15.319Z" fill="black"/>
<path d="M103.222 6.97412L103.56 6.70816C104.812 5.80601 107.486 4.27157 111.579 4.30416C113.678 4.30416 115.166 4.87257 116.012 6.00678C116.587 6.77465 116.756 7.6416 116.756 8.44337C116.756 8.95703 116.666 9.442 116.575 9.81616C116.53 9.99998 116.485 10.1577 116.452 10.279L112.729 22.3003L112.325 23.5948H104.745C104.877 23.1959 105.206 22.149 105.613 20.8428L106.48 18.0503C107.373 15.1704 108.264 12.2814 108.264 12.2814C108.365 11.9138 108.434 11.5475 108.434 11.2463C108.434 10.8122 108.297 10.4458 108.095 10.1447C107.79 9.74445 107.317 9.54499 106.707 9.54499H104.745C103.391 9.54499 102.105 10.6127 101.632 12.181C101.632 12.181 98.1467 23.3615 98.0793 23.5622H90.4662C90.5059 23.4214 91.3782 20.6016 92.4382 17.182L96.3201 4.6718H103.933L103.222 6.97412Z" fill="black"/>
<path d="M63.1373 6.05762L63.5668 4.6718H71.1799C71.0794 5.03944 65.3948 23.3615 65.3273 23.5622H57.7143C57.8491 23.2285 60.1833 15.6515 60.1833 15.6515H53.5523C53.5523 15.6515 51.1494 23.3615 51.082 23.5622H43.469C43.5126 23.4032 44.6083 19.865 45.8401 15.8926L49.3228 4.6718H56.9358L54.8039 11.58H61.4362L63.1373 6.05762Z" fill="black"/>
<path d="M125.926 10.2464C125.926 10.2464 133.134 4.63921 133.201 4.57272H142.37L130.866 13.9176C130.866 13.9176 137.532 23.2963 137.836 23.7291H129.716C129.614 23.63 124.167 15.9539 124.167 15.9539C124.167 15.9539 121.832 23.5297 121.764 23.7291H114.151C114.286 23.3954 120.107 4.57272 120.107 4.57272H127.685L125.926 10.2464Z" fill="black"/>
<path fill-rule="evenodd" clip-rule="evenodd" d="M162.605 21.1595C161.217 19.324 160.913 16.8209 161.725 14.1509C163.755 7.54252 169.372 3.77095 177.087 3.77095C180.64 3.77095 183.481 4.93906 185.071 7.04191C186.459 8.8775 186.763 11.3806 185.952 14.0505C183.718 21.226 178.981 24.4292 170.591 24.4292C167.004 24.4292 164.195 23.2611 162.605 21.1595ZM178.508 9.84484C177.966 9.11086 176.951 8.74322 175.463 8.74322C171.571 8.74322 169.845 11.6478 169.101 14.0166C168.492 16.0191 168.492 17.388 169.169 18.2888C169.71 19.0567 170.726 19.423 172.214 19.423C176.105 19.423 177.831 16.5536 178.575 14.117C179.184 12.1146 179.184 10.7131 178.508 9.84484Z" fill="black"/>
<path d="M203.14 4.40585C203.072 4.47234 195.764 10.5801 195.764 10.5801L197.658 4.40585H190.045C190.045 4.40585 184.124 23.5297 183.989 23.8634H191.602C191.669 23.6626 194.072 15.9539 194.072 15.9539L197.276 20.2052C198.669 22.0539 199.995 23.8165 200.027 23.8634H208.351L200.872 13.984C200.872 13.984 211.192 4.87257 211.769 4.40585H203.14Z" fill="black"/>
</svg>
