<svg width="52" height="38" viewBox="0 0 52 38" fill="none" xmlns="http://www.w3.org/2000/svg">
<path fill-rule="evenodd" clip-rule="evenodd" d="M39.9893 21.8925L34.9772 15.4603L38.3334 0.261719L43.345 6.69405L51.1975 0.261719L47.8417 15.4603L39.9893 21.8925ZM38.6155 14.0793L41.0302 17.1782L44.8135 14.0793L46.0875 8.30938L42.3041 11.4084L39.8894 8.30938L38.6155 14.0793ZM7.79265 33.7261L0.507812 24.3771L5.28031 2.76172L12.5651 12.1107L23.9783 2.76172L19.2058 24.3771L7.79265 33.7261ZM4.14615 22.9961L8.83356 29.0117L16.1774 22.9961L18.8681 10.8094L11.5245 16.8249L6.83706 10.8092L4.14615 22.9961ZM0.266113 37.6189H33.2136C33.9486 37.5934 34.6624 37.3656 35.2762 36.9606C35.8901 36.5555 36.3803 35.9889 36.6928 35.3231C37.0347 34.7645 37.1518 34.0968 37.0203 33.4552C36.8888 32.8135 36.5186 32.2457 35.9844 31.8666L26.7295 25.9522H45.3424L46.0784 22.6189H26.4652C25.73 22.6443 25.0161 22.8722 24.4021 23.2774C23.7881 23.6827 23.2978 24.2495 22.9854 24.9155C22.6435 25.4741 22.5265 26.1417 22.658 26.7832C22.7895 27.4248 23.1597 27.9925 23.6937 28.3716L32.9486 34.2856H1.00211L0.266113 37.6189Z" fill="#00965E"/>
</svg>
