<svg version="1.1" id="Layer_1" xmlns="http://www.w3.org/2000/svg" xmlns:xlink="http://www.w3.org/1999/xlink" x="0px" y="0px"
	 viewBox="0 0 1355.8 834.4" style="enable-background:new 0 0 1355.8 834.4;" xml:space="preserve">
<style type="text/css">
	.st0{fill:#ECEDF4;}
	.st1{fill:#CAE3C7;}
</style>
<path class="st0" d="M284.5,510.5l-6-4l-3.2,1.9c-4.8,2.7-9.5,2.4-14.8-1.1c-3.7-2.4-4.4-3.2-4.1-5c0.3-1.6-0.7-3.3-4.3-6.9
	c-4.5-4.7-4.7-4.8-6.8-3.7c-2.3,1.1-6.8,0.8-9.3-0.7c-1.8-1.2,3.4-5.6,11.3-9.7c3.6-1.9,7.8-4,9.2-4.8c1.8-1,4.9-1.4,9.9-1.4
	c9,0,13.1,1.8,17.1,7.6c6,8.6,7.9,10.2,15.4,12.5c6.7,1.9,7.2,2,8.7,0.6c2-1.8,6.3-1.9,6.3-0.3c0,0.7-0.6,1.8-1.3,2.4
	c-0.9,0.7-1.3,2.6-1.3,5.7v4.7l-4.9-0.4c-4.1-0.4-5.4-0.1-8.2,1.7C289.6,515.2,291.1,515.1,284.5,510.5z"/>
<path class="st0" d="M235.9,513.4c-6.7-8.5-11.1-12.8-13.1-12.8c-1,0-2.3-0.6-2.9-1.3c-0.9-1.1-0.8-1.7,0.5-3.2
	c1.3-1.5,1.4-2.1,0.5-3.5c-1.6-2.5-0.6-3.4,3.7-3.4c2.5,0,4.6,0.6,6.7,2.1c3.9,2.9,11.7,4.7,13.6,3.2c1.1-1,1.7-0.9,3.2,0.5
	c4.4,3.8,5.9,6,5.3,8.3c-0.4,2,0.1,2.6,3.2,4.3c4,2.3,4.6,3.5,1.7,3.5c-1.1,0-2.8,0.8-3.9,1.8c-1.6,1.4-2.3,1.6-3.7,0.9
	c-3.3-1.8-6.1-1.2-7.6,1.6c-0.7,1.4-1.7,2.8-2.1,3.1C240.6,518.8,238.3,516.5,235.9,513.4z"/>
<path class="st0" d="M173.9,585.6c-6.5-7-8-9-8.6-11.4c-0.4-2-0.3-2.5,1.8-2.9c2.2-0.6,2.2-0.7,2-7.5c-0.2-3.8-0.1-7,0.2-7.2
	c6.3-5.2,9.3-6.8,12.4-6.8c2.7,0,3.6,0.4,4.4,2.2c1.1,2.5,1.2,2.5,6.5,1.1c3.7-0.9,4.2-0.8,5.9,1l1.9,1.9l-2.5,1.8l-2.5,1.8
	l0.6,10.4l0.6,10.4l-8.9,4.5c-4.9,2.5-9.2,4.5-9.6,4.5C177.7,589.3,175.8,587.7,173.9,585.6z"/>
<path class="st0" d="M210,488.3c-1.9-2.1-1.3-4.5,2.5-9.2c3.9-5,4.1-5.4,3-7.6c-1.7-3.1,0.6-8.4,5.9-13.7c5.9-5.8,7.8-5.9,12.4-0.9
	l3.5,3.7l2.5-1.7c2.2-1.5,2.5-1.5,3.5-0.1c1.1,1.5,3,12.6,3,17.6c0,2.3-0.4,3.1-2,3.4c-1.1,0.3-4,2.4-6.7,4.6
	c-3.7,3.2-5.2,4-6.6,3.4c-3.2-1.1-13.8-0.4-15.2,1C214.1,490.5,211.7,490.3,210,488.3z"/>
<path class="st0" d="M53.4,692.3c-0.6-1.3-1.3-2.7-1.5-3.1c-0.2-0.4,0.6-0.6,1.8-0.6c1.1-0.1,2.6-0.4,3.3-0.9
	c1.1-0.7,1.1-1.1,0.3-2.6c-1.8-2.9-1.3-4,2.3-5.7c3.3-1.5,5.9-5,4.9-6.7c-0.4-0.4-1.8-0.8-3.5-0.8c-3.3,0-7.1-3.3-8-6.9
	c-0.8-3.1,0.2-3.3,3.2-0.8c2,1.7,3.8,2.4,6.2,2.4c3.2,0,3.6,0.3,4.8,3.1c1.8,4.2,2.6,13.8,1.4,15.9c-0.9,1.5-1.1,1.4-1.9-1.2
	c-0.6-1.6-1.5-2.8-2.1-2.8c-0.5,0-2.7,2.9-4.9,6.6c-2.1,3.6-4.1,6.6-4.5,6.6C54.9,694.8,54.1,693.6,53.4,692.3z"/>
<path class="st0" d="M168.7,728.5c-5.8-0.6-11.2-1-12-0.7c-0.9,0.3-2.1,0.1-2.9-0.4c-1.1-0.6-0.6-1.4,2.5-4.6l3.9-3.8l-1.8-3.4
	c-1.9-3.9-2.2-3.6,5.5-5.1c2.8-0.6,5.3-1.3,5.4-1.7c0.2-0.3,0-2.5-0.4-4.9c-0.8-4-0.6-4.5,2.3-8.8c1.7-2.5,3.1-4.7,3.1-5.1
	c0-0.4-2-0.6-4.5-0.6h-4.6l0.6-7c0.4-4.5,0.2-8.3-0.5-10.9c-0.5-2.2-0.8-4.3-0.4-4.7c0.4-0.4,3.8-0.6,7.4-0.5c5.8,0.1,6.9,0.4,8.2,2
	c1.9,2.4,2,4,0.3,5.8c-1.4,1.4-1.6,4.1-0.5,6.9c0.4,1.1,0.1,3.5-0.9,6.4c-1.9,5.6-1.6,6.5,3.9,10.6c2.2,1.7,4.2,3.6,4.4,4.4
	c0.3,0.8,0.7,4.9,1,9.3l0.6,8l-3.7,1.5c-3.7,1.4-3.8,1.4-3.2,4.9C183.2,730.5,184.6,730.3,168.7,728.5z"/>
<path class="st0" d="M98.8,763c-0.8-1.6-1.1-3.3-0.9-3.8c0.4-0.5,4.9-3.7,10.3-7.1c9.5-6.2,9.6-6.2,11.2-4.6c0.9,1,2.4,1.8,3.2,1.8
	c3.1,0,2.1,3.3-1.3,5c-2.4,1.1-3.3,2.3-4.4,5.5l-1.4,4.1l-6.3,0.6c-3.4,0.4-6.9,0.8-7.7,1C100.7,765.8,99.7,764.9,98.8,763z"/>
<path class="st0" d="M108.3,802.6c-0.3-1.1-0.5-4.7-0.5-8.1c0-5.8-0.2-6.3-4.5-12.8c-3.9-6.1-4.3-7.1-3.8-10c0.7-4,2.6-4.8,10.9-4.8
	c6.6,0,6.7-0.1,8.8-5.7c0.8-1.9,2.2-4,3.2-4.5c3.9-1.8,4.7-3.3,4.5-6.4c-0.2-2.7-0.6-3.3-2.6-3.4c-2.4-0.4-3.6-1.7-7.5-8.3l-1.9-3.2
	l7.5-4.1l7.5-4.2l4.7,4.7c5.2,5.1,5.5,5.8,3.2,6.7c-4.3,1.5-4.6,2.5-4,12.6c0.6,10.5,0.7,10.1-6,18.9l-3.3,4.5l-0.3,14l-0.3,14.1
	l-4.4,1c-2.4,0.6-5.8,1.1-7.5,1.1C109.5,804.6,108.8,804.3,108.3,802.6z"/>
<path class="st0" d="M95,755.9c-0.4-0.9,0.2-2.3,1.4-3.5c1.8-1.8,1.9-2.7,1.4-7l-0.6-4.8h6.5c7.9,0,11.7,0.7,12.4,2.2
	c0.4,1-3.2,3.5-18.5,13.4C95.8,757.2,95.5,757.2,95,755.9z"/>
<path class="st0" d="M75.9,733.2c-0.9-3-2.3-6.3-3.3-7.4l-1.8-1.9l4.4-2.2l4.4-2.3l4.7,2.6c2.5,1.4,7.3,4,10.5,5.7l5.9,3.1l-1.8,3
	c-1.8,2.9-1.8,3-6.8,2.5c-3.5-0.3-6.5,0-9.4,1c-2.3,0.8-4.4,1.5-4.7,1.5C77.6,738.7,76.8,736.3,75.9,733.2z"/>
<path class="st0" d="M137.3,731.4c-4.3-4-5.3-5.6-6.8-10.3c-1-3.1-3.1-8.5-4.7-12.1c-1.7-3.6-3.3-8.2-3.6-10.2
	c-0.6-3.8-5.7-13.8-8.4-16.5c-0.9-1-2.8-1.6-4.6-1.6c-2.5,0-3.1-0.4-3.3-2c-0.2-1.6-0.7-1.9-3-1.7c-1.6,0.1-3.2-0.4-3.7-1.1
	c-0.9-1-0.3-1.3,3.5-1.8c2.5-0.4,5.3-1.2,6.1-1.9c1.3-1.2,1.7-1,3.8,2.4c1.3,2,2.8,4.9,3.4,6.5c2,5.4,2.7,6.1,7.7,6.4
	c4.7,0.4,4.8,0.4,6-2.4c1.1-2.7,1.2-2.8,5.3-2.2l4.2,0.5l3.2-5.3c1.8-3,3-5.8,2.6-6.2c-0.3-0.5-2.1-0.9-4-0.9
	c-2.9,0-3.5-0.3-3.2-1.6c0.3-1.2,1.4-1.6,6.8-1.8c5.1-0.3,7-0.7,8.4-2c2-1.9,3-1.5,3,1.3c0,2.8,1.7,4.1,3.8,3c3-1.6,3.7,0.4,3.7,11
	v9.8l3.3,0.3c1.8,0.2,3.2,0.6,3.2,1.1c0,0.4-1,2.2-2.2,4c-1.4,2.2-1.9,4-1.7,5.5c1.1,5.8,1.2,5.8-4.9,6.9c-3.1,0.7-6,1.6-6.5,2
	c-0.5,0.4-0.2,2.2,0.8,4.4l1.7,3.6l-4.2,4c-4.2,4.1-4.2,4.1-2.4,5.6c2.5,2,2.4,2.6-1,4.9C144.2,736.8,142.9,736.5,137.3,731.4z"/>
<path class="st0" d="M67.2,721.1c-2-1.6-12.4-18.2-11.8-18.8c0.2-0.2,2.3-1.2,4.6-2.2l4.3-1.8l2.7,3.3l2.8,3.3l2.9-1.5
	c3.9-1.9,4.6-1.8,6.3,1.1c1.4,2.3,1.4,2.5,0,3.3c-1.4,0.9-1.4,1.2,0,4.9l1.4,4l-2.6,1.1c-1.4,0.6-3.9,2-5.5,3.2
	C69.4,722.7,69.3,722.7,67.2,721.1z"/>
<path class="st0" d="M67.9,698.7c-1.3-1.7-2.8-3.1-3.4-3.1c-0.5,0-3.2,1.1-6,2.5c-2.8,1.3-5.3,2.2-5.7,1.8c-0.4-0.4-2.1-1.1-3.9-1.6
	c-3.8-1.2-4.3-3-4.3-15.2c0-6.2-0.4-9-2.7-15.4c-3.5-10-5-15.4-5.7-20.7c-0.5-3.8-0.4-4.2,1.1-4.2c0.9,0,2.4,1.1,3.2,2.6
	c2,3.3,3.3,3.3,8.2-0.2c3.6-2.6,4.1-2.7,9.5-2.2c6.7,0.6,7.4,0.1,7.7-6.1c0.3-4.7,0-4.6,7.4-3.4c2.5,0.4,2.8,0.7,2.4,2.9
	c-0.7,3.3,1.6,5.6,4.4,4.6c1.7-0.6,2.5-0.4,3.8,1.1c4,4.7,4,4.7,2.5,9.4l-1.5,4.4l3.2,4.8c2.5,3.8,3.2,5.5,2.9,8.1
	c-0.3,3.3-0.4,3.3-3.9,3.3c-3.3,0-3.9,0.4-6,3.3c-2.5,3.8-2.6,4.7-0.8,9.5c1.4,3.3,1.3,3.5-0.4,5c-1,0.9-2.4,3.2-3,5.1
	c-0.8,2.2-2.2,4-3.9,5.1l-2.6,1.6L67.9,698.7z M60.5,691.5l3.8-5.9l1.2,2.8c1.6,3.9,3.2,3.6,5-0.9c1.1-3.2,1.2-4.9,0.6-10.4
	C69.7,666.3,68,664,61.5,664c-1.2,0-3.3-1.1-4.7-2.4c-2.1-2-2.7-2.2-4.6-1.3c-3,1.4-2.8,4.9,0.5,9.4c1.8,2.4,3.5,3.6,5.3,4
	c4.2,0.6,3.9,2.2-1.1,4.2c-4.6,1.9-4.7,2.3-3.1,6.4c0.5,1.1,0,1.5-2,1.9c-1.7,0.4-2.7,1.1-2.7,1.9c0,2.5,4.5,9.2,6.1,9.2
	C56.2,697.4,58.2,695.2,60.5,691.5z"/>
<path class="st0" d="M86.8,750.2c-5.8-1.5-6.7-2.4-8.2-7.6c-0.4-1.7,0-2,4-3c2.5-0.5,6.4-0.9,8.6-0.8l3.9,0.4l0.3,5.1
	c0.3,4.7-0.7,7.8-2.4,7.6C92.7,751.7,89.9,751,86.8,750.2z"/>
<path class="st0" d="M101.9,737.9c-2.5-0.3-2.5-0.7-0.3-4c2.4-3.7,2.3-4.3-1.5-6.1c-1.8-0.9-6.5-3.3-10.4-5.5
	c-6.6-3.8-7.1-4.3-7.9-7.9c-0.8-3.3-0.7-3.8,0.6-3.8c2.8,0,2.6-1.7-0.4-6.3c-1.8-2.5-3.2-5.4-3.2-6.2c0-2.2,1.6-5.2,3.7-6.9
	c1.8-1.4,1.8-1.5,0.3-6.3c-1.5-4.7-1.5-5-0.1-7.2c1.1-1.6,2.1-2.2,3.9-2.1c1.3,0.1,3.3-0.3,4.5-0.9c1.8-1.1,2.4-0.9,5.7,2.5
	c2.6,2.5,4.2,3.4,5.3,3.1c1.1-0.4,1.7-0.1,2,1.2c0.4,1.6,1.1,1.9,4.1,1.9c3.4,0,3.8,0.2,7,5.4c2.3,3.4,3.9,7.3,4.6,10.7
	c0.5,3,2.5,8.3,4.1,11.7c4,8.2,5.3,12.7,3.9,14.1c-0.5,0.5-3.8,2.5-7.2,4.3c-7.9,4.2-8.5,4.7-8,6.9c0.4,1.7,0.1,1.8-4.1,1.8
	C105.9,738.3,103,738.1,101.9,737.9z"/>
<path class="st0" d="M123.1,685.3c-3.2-0.4-4.8-1.7-4.8-3.9c0-2.3-6-13-7.5-13.6c-0.7-0.3-2.1,0.5-3.1,1.8c-1.8,2.2-2.3,2.3-7.6,2.1
	l-5.9-0.3l-0.4-3.5c-0.3-1.9-1.8-5.4-3.4-7.8l-2.9-4.3l1.5-4.6l1.6-4.7l-3.2-4c-3.4-4.1-3.9-4.4-7.4-4.1c-1.6,0.2-2-0.2-1.8-1.4
	c0.3-1.3,1.1-1.6,4.4-1.6c2.3,0,4.6-0.5,5.3-1.2c1.2-1.2,0.1-2.5-5.9-6.9c-2.5-1.8-2.5-1.9-1-3.7c1.2-1.4,2.7-1.8,5.5-1.8
	c3.4,0,4.4,0.5,9.2,4.9l5.3,5l2.7-3.1c1.5-1.7,4.1-5,5.8-7.3c2.3-3.2,3.9-4.6,6.6-5.3c5.6-1.7,7.3-2.9,8.3-6.4c1.7-5,2.2-5.2,7.2-2
	c3.9,2.4,5.1,2.7,7.7,2.3c6.6-1.3,6.4-1.4,7.8,4.7c1.5,6.2,1.6,6-4.7,10.4c-1.8,1.2-1.8,1.2,0.3,5c2,3.8,2,3.9,0.5,7
	c-1.5,3.1-1.8,3.3-5.8,3.3c-4.4,0-9.5,1.9-9.5,3.5c0,0.5,0.6,2.2,1.4,3.6c1.1,2.3,1.2,3.4,0.4,6.6c-1.3,5,0.2,10.3,3.4,12.7
	c1.8,1.3,2.3,2.2,1.9,4.3c-0.4,2.6-0.3,2.7,3.3,2.7h3.6l-2,3.6c-2,3.6-2,3.6-6.1,3.1c-3.9-0.4-4.3-0.4-5.5,2.1
	C126.8,685.5,126.5,685.7,123.1,685.3z"/>
<path class="st0" d="M183.7,668.1c-1.3-3.1-2.9-3.7-11.5-4.3c-2.9-0.3-11.3,1.2-12.4,2.2c-1.1,1-1.4,0.5-2.4-4c-0.7-3.2-1.8-3-5,0.7
	c-2.6,2.9-3,3.1-8.7,3.1c-8,0-10.1-1-11.4-4.9c-0.8-2.5-0.8-4,0-6.9c0.9-3.2,0.8-4.2-0.4-6.6c-2-4-1-4.7,7.3-4.8
	c3.6,0,3.9-0.3,6.1-4.3l2.3-4.2l-1.8-3.3l-1.9-3.3l3.6-3l3.7-3.1l-1.1-5.2c-0.6-2.9-1.3-6-1.5-6.9c-0.4-1.3,0.4-2.2,2.8-3.5
	c3.2-1.8,4.1-2.8,5.1-6c0.3-1.2,1.5-1.5,5.7-1.5c2.9,0,5.5,0.4,5.9,1c0.3,0.4,1.8,1.7,3.2,2.5c1.4,0.9,3.7,3.5,4.9,5.8
	c2.2,4,2.5,4.3,8.7,6.1c3.5,1,6.7,2.4,7.3,3.1c1,1.7,1.1,7.6,0,11.1c-1.1,3.6,0.1,5.3,3.9,6c2.3,0.4,3.6,1.4,4.9,3.7
	c1.1,1.8,3.1,3.7,4.5,4.3c1.8,0.7,3,2.1,3.8,4.4c0.6,1.8,1,3.7,0.7,4c-0.2,0.4-3.7,2.5-7.7,4.7c-8.4,4.6-9,5.2-9.5,9.1
	c-0.2,2.3-1,3.3-3.9,5l-3.7,2.2L183.7,668.1z"/>
<path class="st0" d="M484.9,419.8c-16-7.1-21.7-10.1-33-17.7c-10.3-6.8-14.2-8.9-15.7-8.5c-1.8,0.4-26.6,0.5-40.3,0.2
	c-3.2-0.1-6.2-0.5-6.7-1c-0.4-0.4-3.2-5.5-6.2-11.2c-4.5-8.3-5.3-10.5-4.3-11.2c0.7-0.4,2.5-1.6,4.2-2.6l2.9-1.8l-0.5-6.1l-0.6-6
	l3.8-1.7c5.2-2.2,13-10.8,13-14.2c0-1.3,0.4-2.7,0.8-3c1.4-0.9,5.5,3.3,7.2,7.2c2.1,5,2.1,8.3,0,10.3c-1.7,1.5-1.9,1.5-6.2,0
	c-4.3-1.6-4.4-1.6-8.3,0.4c-2.2,1.1-4.2,2.5-4.6,3.3c-0.5,1.5,1.2,15.2,2.2,16.8c0.7,1.1,9.6,4.7,11.6,4.7c0.8,0,3.5-2.2,6.1-4.8
	l4.7-4.8h24.8c13.8,0,24.9,0.4,25.2,0.8c0.4,0.4-1.7,2-4.3,3.5c-2.7,1.5-5.1,3.3-5.4,4.1c-0.5,1.4,5.2,7.9,8.1,9.1
	c1.1,0.4,3.5,0.1,6.5-1c6-2,7.7-2,13.2,0.2c3.6,1.4,5.5,1.6,11,1.1l6.7-0.5l-0.6,4c-0.6,3.9-0.5,4.1,1.8,5.1
	c4.2,1.8,8.5,1.2,12.6-1.5l3.8-2.5l-0.5-5.9c-0.4-4.7-0.2-6.2,0.9-7.3c1.4-1.5,1.2-1.5,14.9,6.3c2.1,1.2,4.8,3.9,6.5,6.5l2.8,4.4
	l-1.8,2.5c-2.4,3.2-2.4,2.8,0.4,9.4c1.2,3.1,2,5.8,1.7,6.2c-0.4,0.4-1.8,0.1-3.4-0.5c-2.7-1.1-2.9-1-6,2.5c-2.3,2.5-4.4,3.9-6.9,4.5
	c-2,0.4-5.3,2.2-7.3,3.8c-2.2,1.8-5.6,3.5-8.9,4.4c-3,0.8-5.5,1.3-5.7,1.3C504.5,428.4,495.6,424.5,484.9,419.8z"/>
<path class="st0" d="M346.2,478.6c-1.2-0.4-3.3-0.8-4.6-0.8c-1.6-0.1-3.2-1-4.3-2.4c-1.6-1.9-2.2-2.2-5.2-1.7l-3.4,0.5v-3.4
	c0-2.7-0.4-3.6-1.7-4c-1-0.3-2.5-2.1-3.5-4c-1.8-3.6-3.6-4.4-6.1-2.8c-0.6,0.4-2.2,0.4-3.5,0.1c-1.8-0.4-2.4-1.2-2.7-4
	c-0.4-2.8-0.8-3.4-2.2-3.3c-1,0.2-3.5,0.5-5.7,0.8c-3.8,0.5-4.1,0.4-6.3-2.5c-1.5-1.9-4.7-4.1-8.9-6.2c-5.1-2.5-6.7-3.7-7.2-5.4
	c-0.4-1.3-1.3-2.5-2.6-2.7c-2.5-0.6-13.5-12.1-13.5-14.1c0-0.7,1-3.7,2.2-6.5c1.2-2.9,2.2-5.8,2.2-6.6c0-0.7,1.6-2.1,3.4-3.1
	c3.1-1.5,3.6-2.3,4.4-6.2c0.5-2.5,1.9-5.7,3.2-7.1c2-2.5,2.1-2.6,0.9-6.7c-2.2-7.2-1.8-9.5,3-15.8c1.8-2.4,2.7-2.8,5.9-2.8
	c2.9,0,3.8,0.4,4.1,1.7c0.4,1.6,5.3,5.4,6.9,5.4c1,0,6.8-5.4,7.8-7.1c0.5-1.1,0.4-2.9-0.3-5.4c-1.2-4.7-0.2-11,2.1-12.4
	c2.4-1.5,3.2,0.1,4.1,8.1l0.8,7.3l5.6,5.9c7.4,7.7,8.8,7.9,11.1,1.3c4.4-12.2,6-13.4,18.9-13.4c11.3,0.1,11.6,0.2,14.5,7.4
	c3.6,8.3,4.5,9.1,7.8,7.2l2.5-1.6l6.2,11.9l6.2,11.9l5.4-0.5c3.9-0.4,5.9-0.1,7.1,0.8c1.5,1.1,1.4,1.5-1.8,8.2l-3.5,7l1.9,6.3
	c1.7,5.3,1.8,6.6,0.9,7.9c-1.1,1.3-1.6,1.4-5.2,0.4c-2.2-0.6-5.6-1.1-7.6-1.1c-3,0-4.1-0.6-7.8-4.2c-2.4-2.3-6.8-5.5-10-7.2
	c-5.3-2.8-5.9-2.9-9.2-1.9c-2,0.6-3.6,1.7-3.6,2.3c0,0.6,1.2,3.8,2.6,6.9c2.3,4.9,2.5,6.1,1.8,8.3c-0.6,1.4-0.8,4.3-0.5,6.6
	c0.6,4.5,0.8,4.3-4.8,5.4c-1.8,0.4-2.5,1.5-4.3,7.2l-2.1,6.7l2.6,2.1c3.5,2.9,4.9,2.7,8.2-1.3c2.4-3,3.3-3.5,6.1-3.5
	c2.6,0,3.7,0.4,4.7,2c1.3,2,1.1,2.3-6,9.5c-6.4,6.2-7.4,7.7-7,9.7C357.1,478.3,352.6,480.6,346.2,478.6z"/>
<path class="st0" d="M497.7,340.6c-3.8-2.9-6.9-6.2-7.2-7.2c-0.3-1.1-1.3-6.4-2.3-11.8c-1.7-8.5-1.7-10.2-0.7-13.2
	c1-2.8,1.8-3.7,4.6-4.6c2-0.7,6.5-4.1,11.7-9.1c7.4-6.9,8.7-7.8,10.8-7.4c2.1,0.4,2.8-0.1,6.5-4.8c2.2-2.9,5.9-6.5,8.2-8.1
	c2.3-1.6,7.9-5.6,12.4-9.1c4.6-3.5,9.4-6.9,10.6-7.8c2.7-1.8,20.4-4.6,37.1-5.9c6.9-0.5,15-1.8,18.6-2.7c3.5-1.1,6.9-1.6,7.7-1.3
	c2.5,1,1.6,5.5-1.7,8.8c-3.3,3.3-3.3,3.3-22.9,5.4c-14.2,1.5-18.2,3-30,10.8c-2.7,1.8-7.4,4.2-10.2,5.4c-2.8,1.2-7.8,4.3-11,6.9
	c-3.2,2.6-8.9,7.1-12.8,10c-7.4,5.4-16.6,15.3-20.3,21.7c-2.2,3.7-2.2,4.1-1.8,14.5c0.3,5.9,0.6,11.4,0.8,12.4
	C506.4,346.6,504.4,345.9,497.7,340.6z"/>
<path class="st0" d="M614.8,158.3c-1.7-4.3,1.3-7.6,5.3-5.8c2.5,1.2,2.6,1.9,0.3,4.8C618.3,159.9,615.6,160.4,614.8,158.3z"/>
<path class="st0" d="M629.3,158.3c-2.4-1.1-2.7-1.6-1.9-2.9c1.2-2.3,9.6-4.4,10.6-2.6c1.6,2.5,0.8,4.4-2.3,5.6
	c-1.7,0.7-3.2,1.2-3.2,1.2C632.3,159.5,630.9,159,629.3,158.3z"/>
<path class="st0" d="M603.7,156.6c0-3.8,6-4,6.1-0.3c0,0.7-3.8,2.5-5.3,2.5C604.1,158.8,603.7,157.8,603.7,156.6z"/>
<path class="st0" d="M602.9,145.9c-1.8-6.2-1.1-6.7,6.4-4.1c3.9,1.3,4.1,1.6,3.9,4.1c-0.3,2.7-0.4,2.8-4.8,3.1l-4.6,0.3L602.9,145.9
	z"/>
<path class="st0" d="M569.3,143c-1.5-1.7-1.5-1.8,1.4-2.9c10.5-4.4,15.8-6.1,16.6-5.3c0.7,0.8,0.2,7.3-0.6,7.3
	c-0.2,0-3.3,0.5-7.1,1.3C570.9,145.1,571.1,145.1,569.3,143z"/>
<path class="st0" d="M609.4,137.4l-2.6-1.1l4.8-1.5c4.1-1.2,4.9-1.3,6-0.2c1.1,1.1,1.1,1.5,0.1,2.6
	C616.4,138.9,613,138.9,609.4,137.4z"/>
<path class="st0" d="M574.4,132.4c-0.3-0.5-1.9-0.9-3.6-0.9c-3.7,0-3.9-1.7-0.4-4.2l2.5-1.8l4.9,1.9c2.7,1.1,4.8,2.2,4.8,2.6
	c0,0.7-5.3,3.3-6.8,3.3C575.4,133.3,574.7,132.9,574.4,132.4z"/>
<path class="st0" d="M52.8,373.4c-1.4-1.8-5.3-7.3-8.6-12c-6.5-9.4-6.5-10.2-0.3-10.2c2.7,0,3.5,0.4,5,2.9c1,1.6,2.6,3.6,3.6,4.6
	c1.8,1.6,1.8,1.6,4.4-0.3c1.6-1.2,2.7-1.6,3.1-1.1c1,1.5,4.8,14.3,4.8,16c0,1.8-0.4,2.1-5.3,2.9C55.6,376.8,55.4,376.7,52.8,373.4z"
	/>
<path class="st0" d="M214,422.2c-0.6-0.6-1.1-1.4-1.1-1.8c0-0.4-1.7-4.3-3.7-8.6l-3.6-7.9h-3.4c-3.1,0-3.4-0.3-2.9-1.8
	c0.4-1.1-0.2-3-1.3-4.8c-1.9-3.2-3.3-3.6-7.9-2.3c-3.4,1-9.5-0.5-11.9-3c-2.1-2.1-2.3-2.2-4.7-0.9c-1.4,0.7-2.7,1.3-3,1.3
	c-0.2,0-0.6-2.3-0.9-5.1c-0.4-2.7-1.4-7.7-2.5-11c-2.3-6.9-2.1-7.1,4.2-8.1c2.8-0.4,4.8-0.1,8.2,1.3c4.6,2,5.4,3.3,6.7,10.7
	c0.5,3.1,0.7,3.3,5.1,3.8c2.5,0.3,5.9,0.4,7.5,0.3c2.7-0.3,3.2-0.8,5.3-5.1c1.3-2.7,2.2-5.2,1.9-5.5c-0.2-0.4-2.8-2-6-3.7
	c-4.1-2.4-5.8-3.9-6.5-5.9c-1.4-4.1-1.2-4.9,2-8.3c2.6-2.8,3.4-3.1,6.8-2.8c3.7,0.3,3.9,0.4,6.3,5.3c1.4,2.8,4.9,10.5,7.9,17.1
	l5.3,12.1l5.1,0.7c4.7,0.7,5.3,0.6,7.4-1.3l2.2-2l2.1,2.6c1.1,1.4,3.3,4.2,4.7,6.2l2.6,3.7l-3.2,1.1c-1.8,0.6-6,3.6-9.6,6.7
	c-5.1,4.5-6.5,6.2-6.7,8.4c-0.2,2.3-1.1,3.3-5.5,6.1C215.2,423.6,215.4,423.5,214,422.2z"/>
<path class="st0" d="M265.6,402.7c-2.5-2.7-3.5-3.1-9.2-3.6l-6.4-0.6l-6-8.3c-3.3-4.5-6.6-8.3-7.1-8.3c-0.6,0-2,1-3.1,2.2
	c-1.8,2.1-4.5,2.6-8.2,1.7c-1.5-0.4-3.5-4-8.6-15.6c-3.7-8.3-6.7-15.6-6.7-16.2c0-0.8,1.8-1.1,6-1.1c7.2,0,30-4,31.4-5.5
	c0.6-0.6,1.7-5.2,2.5-10.3c0.8-5.1,1.8-9.5,2.1-9.9c0.4-0.4,2.5-1.1,4.6-1.8c3.7-1.1,4.1-1.6,8.7-9.8c4.4-7.8,5.3-8.9,10.1-11.7
	c6.7-4,8.6-5.7,12.9-12c1.8-2.7,3.8-5,4.2-5c0.5,0,2.9,1.4,5.3,3.2c4.1,3,4.4,3.4,3.9,6c-1.3,5.5-0.1,8.4,3.6,8.4
	c2.4,0,2.5,0.4,3.9,10.9l1.1,7.9l-2.5,1.8c-5.2,3.7-9,7.6-14,14.2l-5.2,6.7l1.7,8c0.9,4.4,1.8,8.7,2,9.6c0.4,1.3-0.2,1.6-3.6,1.6
	c-3.7,0-4.1,0.3-7.5,4.7c-3.4,4.4-3.6,5-3.5,10.4c0.1,3.1,0.4,6.6,0.7,7.8c0.5,1.6,0.2,2.8-1.2,4.5c-1.1,1.3-2.3,4.2-2.5,6.4
	c-0.5,3.3-1.1,4.3-3.2,5.4c-1.4,0.7-2.7,1.3-2.8,1.3C268.7,405.7,267.2,404.3,265.6,402.7z"/>
<path class="st0" d="M429,514.8c-8.9-3.6-13.1-4-23.4-2c-6.3,1.1-7.2,1.1-12.7-0.4c-5.7-1.6-6-1.8-8.2-6.1l-2.2-4.4l-6.6-0.6
	c-9.1-0.8-9.6-0.6-9.6,4.7c0,6.2-1.8,6.8-13.3,3.9c-9.4-2.3-10.2-2.2-13.8,1.7c-1.2,1.2-2.6,2.3-3.2,2.3c-1.1,0-3.9-8.7-3.9-11.9
	c0-0.9,1.3-3.1,3-4.8c2.3-2.5,3.3-5,4.6-10.1l1.6-6.8l3.2,0.5c9.6,1.8,10.2,1.8,12.5-1.4c1.5-1.9,2.1-3.7,1.8-5.1
	c-0.4-1.8,0.8-3.5,7.1-9.7c4.1-4.1,7.4-7.8,7.4-8.2c0-0.4-1.1-2.1-2.4-3.8c-2.2-2.6-2.9-3-6.6-3c-3.7,0-4.3,0.3-7,3.6
	c-2.7,3.3-3.2,3.5-4.9,2.6c-2.3-1.2-2.3-1.8-0.3-7.6c1.4-4.1,1.8-4.5,5.4-5.4l3.9-1l-0.3-5.3c-0.2-2.8,0.2-6.3,0.7-7.7
	c0.8-2.1,0.5-3.3-1.8-8.2c-2.1-4.5-2.5-6-1.6-6.5c2-1.2,4-0.8,8.8,2c7.3,4.3,9.6,6.1,10.4,8.3c0.6,1.8,1.3,2.1,4.6,2.1
	c2.1,0,6.4,0.8,9.5,1.8c3.1,0.9,5.6,1.7,5.7,1.8c0.1,0,1.1-1.4,2.4-3.2l2.1-3.2l-2.1-6.2l-2-6.2l2.3-4.6c1.2-2.5,3.2-5.9,4.3-7.6
	l2-3.3l16.1,0.2l16.1,0.1l13.5,8.9c9.6,6.2,17,10.4,25.3,13.9c6.5,2.8,13.4,5.8,15.3,6.6c12.7,5.7,11.2,5.4,18,3.6
	c4.1-1.1,7.2-2.5,9.6-4.7c2.3-1.9,4.8-3.3,7-3.5c2.5-0.4,4.1-1.3,6.2-3.6c4-4.7,8.3-4,4.7,0.8c-1.8,2.5-1.6,4.7,1,6.9l2.2,1.9
	l-2.5,3.5c-1.3,2-4.2,5.3-6.4,7.2c-3.7,3.3-4.7,3.8-12.3,5.1c-8.2,1.4-12.5,3.3-16.3,7.6c-0.8,0.9-4.2,2.5-7.4,3.4
	c-3.3,1-8.4,3.4-11.3,5.4c-4.8,3.3-5.4,3.6-6.2,2.2c-1.4-2.5-2.7-1.8-8.6,4c-4.7,4.8-5.5,6.2-5.9,9.4c-0.2,2.1-0.4,3.9-0.5,3.9
	c-0.2,0.1-2.6,2-5.6,4.3c-5.2,4-5.5,4.5-9.5,14.4c-6.3,15.6-8.6,19.9-10.6,20.1C437.7,517.9,433.4,516.6,429,514.8z"/>
<path class="st0" d="M211.6,436.8c-2.6-1.7-4.3-2.1-6.6-1.8c-2.8,0.4-3.5,0-8.1-4.6l-5.1-5l-3.7,1.5c-2.1,0.8-5,1.9-6.5,2.5
	c-2.3,0.9-3.2,0.9-5.7-0.4c-1.7-0.7-6-1.8-9.6-2.5c-5.3-0.9-7.2-1.6-9.4-3.7l-2.8-2.7l5.8-6.5l5.8-6.4l-1.1-3.4
	c-0.5-1.8-1-4.3-1-5.5c0-1.9,0.4-2.3,3.3-2.6c1.8-0.2,4.5-0.9,6-1.6c2.5-1,3-1,4.6,0.7c2.4,2.1,8.4,3.3,13.4,2.4c4.2-0.7,5.9,1,6,6
	c0,3.3,0.1,3.3,3.5,3.3h3.5l3.6,7.6c4.6,9.9,4.8,11.2,3,14.1c-1.5,2.2-1.5,2.4,0.2,3.7c1.1,0.8,2.5,1.8,3.3,2.3
	c0.9,0.5,1.4,1.7,1.2,2.8l-0.3,1.8L211.6,436.8z"/>
<path class="st0" d="M135.1,435.7c-3.9-7.6-10.6-25.7-10.1-27.2c0.8-2.3,11.7-20.7,13.2-22.5c0.7-0.8,2.5-1.5,4-1.5
	c3.7,0,5.9-1.7,9.2-6.9c2.7-4.2,6-6.2,9.7-6.2c2.1,0,5.1,8,5.8,15.6l0.6,6.4h-2.2c-3.2,0-4.5,2-3.9,6.3c0.3,2.1,0.7,4.6,1.1,5.5
	c0.4,1.2-0.6,2.9-3.5,6.2c-10.7,11.6-11.7,13-12.6,18.4c-0.5,2.9-1,5.4-1,5.5c0,0.7-5.8,3.8-7.1,3.8
	C137.6,439.1,136.1,437.6,135.1,435.7z"/>
<path class="st0" d="M189,381.2c-0.6-1-1.6-7.2-1.2-7.2c0.3,0,1.8,0.6,3.7,1.3c4.1,1.8,6,1.1,5.5-1.8c-0.3-1.2-0.1-2.2,0.3-2.2
	c0.6,0,3.9,1.8,5.9,3.3c0.2,0.1-0.4,1.8-1.2,3.8l-1.6,3.5h-5.5C191.9,381.9,189.2,381.6,189,381.2z"/>
<path class="st0" d="M298,491.4c-5.4-1.8-6-2.2-10.3-8.4c-3.8-5.4-5.5-7-9.6-9.1c-4.8-2.5-5.3-2.5-13.4-1.9
	c-5.9,0.4-9.1,1.1-11.2,2.3c-1.7,1-3.2,1.6-3.4,1.4c-0.3-0.3-1-4.2-1.6-9c-1-6.5-1.7-9-3.2-10.6c-2.2-2.3-3.5-2.5-6.1-1
	c-1.6,1-2.1,0.8-4.5-2.3c-1.5-1.8-3.7-3.7-4.8-4.1c-1.6-0.6-2-1.4-2-3.7c0-3.9-1.3-5-5.9-5c-3.7,0-3.8-0.1-3.8-2.9
	c0-2.1-0.7-3.4-2.8-5.2c-2.8-2.3-2.9-2.4-1.1-4.2c0.9-1.1,4-3.3,7-5c7.3-4.4,8.3-5.4,8.3-8.3c0-1.8,1.2-3.5,5.5-7.3
	c3.1-2.6,6.6-5.3,7.7-5.7c1.4-0.5,5.5-0.5,10.4-0.2c8,0.7,8.3,0.8,11.1,3.9l2.9,3.2l-2.6,7.1c-1.4,4-2.6,7.6-2.6,8.2
	c0,1.5,13.3,15.6,14.7,15.6c0.6,0,1.5,1,1.9,2.1c0.5,1.5,3,3.3,7.6,5.6c4.5,2.3,7.8,4.7,9.6,6.9l2.8,3.5l4.5-0.9
	c5-1,6.1-0.4,6.1,3.5c0,2.4,3,3.3,7.8,2.5c3.2-0.5,3.5-0.4,4.5,2.2c0.6,1.4,2.1,3.3,3.2,4c2,1.3,2.5,4,1.5,6.8
	c-0.3,0.7-2.9,2.4-5.7,3.7c-5.3,2.4-6.3,4.1-3.7,6.1c1.2,0.9,1.4,1.6,0.6,3.6c-0.8,2.3-1.1,2.5-4.6,2.3c-2.3-0.2-4.4,0.2-5.6,1.1
	C305.1,493.8,305.1,493.8,298,491.4z"/>
<path class="st0" d="M1182.7,688.5c-4.9-4.5-13.7-12.5-19.5-17.8c-19.8-18.3-19.1-17.8-25-18.5c-4.3-0.5-5.7-0.4-7.6,0.9
	c-1.9,1.3-3.5,1.4-10.4,0.9c-8.8-0.6-10.9,0-19.4,5.9c-4.6,3.2-6.1,2.9-11.6-1.9l-3.9-3.4l1.6-2.6c2.1-3.5,1.9-4.7-1-6.9
	c-1.8-1.3-2.9-3.3-4-7.4c-2.8-10.2-3.3-11.2-4.8-11.2c-0.9,0-2.5,1-3.6,2.2c-1.1,1.1-2.3,2.2-2.6,2.2c-0.3,0-1.8-1.8-3.3-4
	c-1.5-2.2-3.2-4-3.8-4c-0.5,0-2.1,1.1-3.5,2.3c-3.1,3-5.2,1.8-4.5-2.6c0.4-2.6,0.2-3-4-5.3c-2.4-1.3-4.5-2.9-4.5-3.4
	c0-0.6,2-2.5,4.5-4.1c4.2-2.8,4.7-2.9,8.1-2.1c5.7,1.5,16.9,0.7,23.5-1.6l5.9-1.9l4.3,2.8c5.3,3.3,6.5,3.4,13.1,0.5
	c4-1.8,6-2.2,9.2-1.8c3.8,0.4,4.6,0.2,11.4-4.4c4.5-3,9.8-5.7,13.4-6.8c3.8-1.2,6.4-2.5,7-3.6c3.4-6.3,5.3-8.3,8.1-8.9
	c1.8-0.4,6-3,10.4-6.5c9.7-7.7,11.2-8.4,14.2-7.4c3.4,1.1,3.6,5.4,0.4,13.6c-2.4,6.1-5.4,20.4-5.4,25.7c0,2.8,0.5,2.8,7.7,0.6
	c3.1-1,6.1-1.8,6.7-1.8c0.6,0,2,1.6,3.1,3.5c1,1.9,2.4,3.5,2.9,3.5c0.5,0,4.7-2.8,9.2-6.2c7.5-5.8,8.2-6.4,8.2-9.2
	c0-2.7,0.3-3.1,2.1-3.1c1.5,0,3.4-1.4,6.1-4.6l3.9-4.5l2.7,6.1c1.6,3.3,3.3,7.3,4,8.8l1.1,2.8l-6.9,2.8c-3.8,1.5-7,3.3-7,3.8
	c0,0.5,1.2,2.2,2.7,3.8l2.7,2.8l-2.2,1.9c-1.4,1.2-2.5,3.3-2.8,5.5c-0.3,2-1.8,6.1-3.2,9.1c-2.5,5.2-2.6,6-2.3,14.9
	c0.3,8.7,0.5,9.9,2.7,13.3c2.3,3.6,2.5,3.8,7,3.8c4.4,0,4.8,0.2,9.2,4.7c2.5,2.5,4.6,5.2,4.6,5.8c0,0.7-0.8,4.3-1.8,8.1
	c-1.4,5.2-2.3,7-3.6,7.4c-1,0.4-5.4,0.1-9.8-0.5c-7.5-1-8.2-1-12.4,0.8c-4,1.8-15.8,5.4-17.3,5.4
	C1192,696.6,1187.7,692.9,1182.7,688.5z"/>
<path class="st0" d="M1296.6,695.6c-1-2.5-1.3-4.8-0.9-7.9c0.5-4,0.4-4.6-3.9-11.2c-2.4-3.9-4.8-8.1-5.3-9.3
	c-0.4-1.2-1.1-2.2-1.5-2.2c-0.4,0-4.4,1.1-8.9,2.6c-9.7,3.1-9.7,3.1-14.2,0.8l-3.5-1.8l-8.6,4.8c-4.8,2.7-8.9,4.9-9.2,4.9
	c-0.3,0-0.5-0.6-0.5-1.4s-2.5-4-5.7-7c-5.4-5.4-6-5.6-10-5.6c-3.8,0-4.3-0.3-6-3.3c-1.3-2.4-1.9-5.4-2.2-11.2
	c-0.3-7.5-0.3-8.3,2.5-14.3c1.6-3.5,2.9-7.4,2.9-8.6c0-1.1,1.2-3.4,2.7-5.1c2.2-2.5,2.5-3.4,1.8-4.8c-0.5-1-1.7-2.2-2.5-2.6
	c-2-1.2-0.9-2.2,5.5-4.8c2.9-1.1,5.6-2.6,6-3.3c0.8-1.3-8.3-21.8-9.7-21.8c-0.4,0-2.6,2.1-4.9,4.7c-3.4,4-4.6,4.8-7.4,5.1
	c-3.3,0.3-3.3,0.3-3,3.9c0.3,3.6,0.3,3.7-6.3,8.6c-3.7,2.7-7,4.9-7.5,4.9c-0.4,0-1.7-1.5-2.6-3.3c-2.1-3.5-3-3.5-11.7-0.8
	c-3.8,1.2-4.2,1.1-4.2-0.2c0-4.1,2.9-17.2,5.4-24.2c2.3-6.5,2.6-8.3,1.9-11c-0.7-2.8-1.3-3.4-4.5-4.6l-3.8-1.3l-6.6,4.7
	c-3.6,2.5-6.9,4.6-7.4,4.6c-1,0-3.6-8.6-3.6-11.9c0-1.3,0.4-3.1,0.9-4c1.8-3.3,0.1-6-5.9-9.4l-5.6-3.3l0.6-3.5c1-5.8,1-6-2.5-8.3
	c-2.8-1.9-3.2-2.4-2-3.4c1-1.1,1.1-3.7,0.8-13.7l-0.4-12.4l8.7-4.5l8.6-4.4l-0.2-5.3l-0.2-5.4l5.4-1.7l5.4-1.7l0.4-6.6l0.4-6.6
	l3.1-0.4c6.1-0.5,6-0.7-4.6-14.4c-5.6-7.2-6.8-9.2-7.5-13.5c-1.2-6.5-1.3-5.9,1.8-9.5c3.1-3.4,3-4.4-1-11c-1.3-2.3-2.9-5.5-3.6-7.4
	c-1.1-2.8-1-3.3,0.3-4.7c1.2-1.1,2.8-1.5,7-1.2c3,0.1,7.2-0.4,9.4-1c3.3-1.1,4.3-1.8,6.1-5.4l2.2-4h5.1h5.2l-0.6-4.7l-0.5-4.6
	l4.3-3.3c4.3-3.3,4.5-3.3,8.5-2.4c6.3,1.4,10.6,4,13.5,8.2l2.6,3.9l-2.5,3.5l-2.5,3.4l2.2,3.3c2.5,3.6,4.2,4,7.4,1.5
	c1.9-1.5,3.6-1.8,13-1.8c8.7,0,10.7,0.2,10.7,1.2c0,0.7-1.9,1.8-4.5,2.7c-6.1,2-6.9,2.8-6.7,6c0.3,2.5-0.1,2.8-3.5,4
	c-2.1,0.8-4.3,2.2-4.8,3.2c-0.5,1-4.6,6.1-8.9,11.4c-4.4,5.3-8.4,10.3-9.1,11.2c-1,1.3-0.9,2.3,0.9,6.4c2.2,5.3,2.1,6.4-1.4,15.5
	l-1.6,4l3.3,5.3l3.3,5.4l-2.7,10.9l-2.7,11l1.4,12.3l1.4,12.4l-4,19c-2.3,10.5-3.9,19.4-3.6,19.9c0.3,0.4,2.3,0.9,4.3,0.9
	c3.1,0,5-0.8,9.5-4c3.2-2.2,6.2-4,6.7-4c0.5,0,2.5,1.9,4.7,4.4c4.4,5.1,7.1,5.8,7,1.8c0-0.3-0.3-1.3-0.5-2.4c-0.4-1.5-0.1-2.2,1.3-3
	c2.4-1.2,3.6-0.1,5.1,5.1c0.7,2.6,1.5,3.8,2.6,3.8c1.8,0,9.7-8.1,9.7-9.8c0-0.6-1.2-3.3-2.8-5.9l-2.7-4.8l3.7-3.5
	c3.5-3.3,3.9-3.4,7.8-2.9c2.3,0.3,7.8,0.8,12.3,1.1c8.7,0.5,8.2,0.3,9.1,6c0.2,1.1,3,3.2,7.7,5.8l7.4,4.1l1.5,6.9
	c2.3,11,7.5,21.2,15.7,30.8c3.9,4.6,9.9,12.9,13.2,18.6l6.2,10.2l0.6,12.3c0.4,6.9,0.3,12.7-0.1,13.2c-1,1.1-3.4-1.1-3.4-3.1
	c0-1.5-8.8-8.7-10.6-8.7c-1.4,0-9.6,11.9-9.3,13.5c0.1,1.1,1.7,2.6,3.6,3.7c2.7,1.5,3.9,1.8,6.1,1.1c1.5-0.4,2.8-0.8,3-0.8
	c0.1,0,0.2,2.4,0.2,5.3v5.3h-2.7c-1.4,0-3.4,0.4-4.4,0.9c-1.7,1-1.7,1.1,1.1,5.9l2.8,4.9l-3.6,3.3c-3.6,3.3-3.7,3.4-10.6,3.4h-7
	l-3.2,4.8c-3.2,5.2-3.6,6.5-2.1,8.1c1,1,0.4,2.9-0.9,2.9C1298.3,699.2,1297.4,697.5,1296.6,695.6z"/>
<path class="st0" d="M1215.2,235.9c-3.9-3.3-4.4-3.5-6.5-2.5c-2.1,1-2.6,0.7-5.7-2.3l-3.3-3.3l-7,0.3l-7.1,0.3l-3.4-3.8
	c-3.3-3.6-3.5-4.1-3.5-9.4c0-5.1,0.3-5.9,3.1-9.3c2.3-2.7,3.1-4.6,3.1-6.9c0-2.3,0.8-4.2,2.8-6.7c2.7-3.4,2.7-3.4,1.1-5.3
	c-3.2-3.5-9.6-7.6-15.3-9.6c-3.2-1.1-6-2.4-6.5-2.8c-1.2-1.1,1.4-6.1,8.6-16.1c7.5-10.4,8.4-12,8.4-14.9c0-1.2,0.5-2.5,1.1-2.9
	c0.6-0.4,5.4-0.9,10.7-1.2c6-0.4,9.9-1.1,10.6-1.8c1.5-1.6,2.3-12.7,1-14.2c-0.6-0.9-3.2-1.4-7.5-1.6c-5.3-0.3-7.1-0.7-9.4-2.5
	c-1.6-1.1-2.9-2.7-2.9-3.3c0-1.2,9.6-18.9,15.2-27.7c2.7-4.4,12.9-13.9,25.2-23.5c12.2-9.5,42.3-29.9,44.2-29.9c1,0,3.9,0.8,6.6,1.8
	s5.6,1.8,6.6,1.7c2.4,0,11.3-6.3,11.8-8.3c0.4-2.2-1.1-2.9-8.4-3.6c-6.5-0.6-7.8-1.6-5.1-3.9c0.7-0.6,2.1-3.7,3.1-6.9
	c1.8-5.8,1.8-5.9,8.9-10.5c3.8-2.6,7.7-4.9,8.5-5.1c0.8-0.2,2.8,0.9,4.5,2.3l3.1,2.5l-1.6,6c-2.6,10.3-3.1,9.8,13,12.7
	c5.7,1,10.9,2.2,11.6,2.7c2.9,2.5,0,8.7-4,8.7c-3.1,0-4.2,1-8.9,7.3c-3.5,4.8-3.8,5.2-6.7,4.7c-2.5-0.4-3.6,0-7.3,3
	c-4.6,3.6-4.9,4.2-5.8,10c-1.1,7-0.6,6.6-8.6,6c-8.8-0.6-9.7,0-8.8,6.7c0.3,2.4,1,5,1.6,5.7c0.6,0.9,4.2,1.8,9.6,2.6
	c4.7,0.7,9,1.6,9.4,2c0.4,0.4,1.6,3.9,2.5,7.7l1.8,6.9l-3.8,5.7c-4.8,6.9-4.4,8,3.3,8c4.7,0,6-0.4,9.9-3.1c5.1-3.4,5.6-3.5,12.5-2.1
	c4.3,0.9,5.4,0.8,10.2-0.9c7-2.5,9.2-2.4,12.1,0.6l2.5,2.5l-6.6,7l-6.6,7l3.4,13.9c1.9,7.6,3.3,14.4,3.1,15
	c-0.3,0.9-2.3,1.2-6.7,1.2h-6.1v4c0,2.3-1,6.2-2.2,9.2c-1.2,2.8-2.2,6.5-2.2,8.1s-0.5,4.8-1.1,7.3l-1.1,4.4l-6.1,0.4
	c-5.4,0.4-6.6,0.8-9.5,3.3c-1.8,1.6-3.7,2.9-4.3,2.9c-0.5-0.1-2.5-2.8-4.4-6.2c-3.7-7-3.9-7-13.2-4.8c-7.6,1.8-8.1,1.9-9.1,4.3
	c-0.6,1.5-1.9,2.3-4.3,2.6c-3,0.5-3.7,1.2-6.7,6.3c-1.8,3.2-5.5,7.6-8.1,9.8c-7.2,6.2-9.1,9.4-9.1,15.4s-1.5,7.4-8.8,8.3
	c-3.7,0.4-5.3,1.1-8.2,3.8c-3.1,2.7-14.5,7.9-17.6,7.9C1219.8,239.6,1217.4,237.9,1215.2,235.9z"/>
<path class="st0" d="M1183.6,53.3c-2.9-3.2-3.2-4-3.2-8.3c0-4.1,0.3-4.8,2-5.4c1.1-0.4,3-1.3,4.3-2.3c1.2-0.9,2.7-1.6,3.2-1.6
	c2.3,0,0.2,20-2.2,20.8C1187.2,56.8,1185.4,55.3,1183.6,53.3z"/>
<path class="st0" d="M1037.5,607.6c-6.1-4.7-6.8-5.5-9.6-13.1c-1.7-4.2-4.8-8.8-16.6-23.6l-2.4-3l-5.5,2.4l-5.5,2.4l-5.5-5.4
	l-5.6-5.4l-6.4,0.5c-3.5,0.4-7,0.8-7.8,1.1c-0.7,0.2-3.6,5-6.3,10.6c-3.8,7.8-5.2,11.7-5.5,15.8c-0.4,3.8-1.1,6-2.3,7
	c-1.7,1.5-1.8,1.4-4.1-1.5c-1.7-2-2.9-2.8-3.9-2.4c-2.7,1-15.1,9.6-18.2,12.7l-3.2,3l-2.7-2.4c-3.3-2.7-3.4-3.4-1.4-23.4
	c0.8-7.7,1.1-14.6,1-15.2c-0.3-0.6-1.8-1.4-3.2-1.8c-1.9-0.4-3.7-2-6.2-5.4c-3.2-4.3-3.5-5.3-3.1-8.3c0.3-1.8,0.8-4,1.1-4.7
	c0.4-1-0.6-2.1-3.5-3.9c-2.5-1.5-3.9-3.1-4-4c0-1.8-3.3-8-6.7-12.7c-1.5-2.1-3.1-3-5.6-3.4c-3.2-0.5-3.4-0.6-2-2.1
	c1.1-1.3,1.2-2.1,0.4-4.6c-1.8-5.4-2.8-5.8-15.9-6.2l-11.8-0.2l-0.3-4.2c-0.2-2.7,0.3-5.4,1.6-8.2c1-2.3,1.8-4.9,1.8-5.8
	c0-1-1.8-4.3-4-7.4c-3.2-4.6-4.1-6.7-4.7-11.2c-1-6.4-1.6-8.4-2.7-8.4c-2,0-1.6-2.8,1.1-6.4l2.8-4l-3.2-16.5l-3.2-16.5l-4.5-4.5
	l-4.5-4.6l5-5c4.7-4.7,5.3-5,8.4-4.7c4.6,0.7,5.6-0.9,6.8-10.7c0.6-4.7,1.3-9.1,1.6-9.9c0.2-0.9,3-4.5,6-7.9c3.1-3.5,5.6-7,5.6-7.8
	c0-2.5-13.5-22.1-17.5-25.6c-3.6-3.1-3.9-3.8-5.7-11.9c-1.1-4.7-1.8-9.1-1.6-9.8c0.4-1.4,5.7-5.3,7.3-5.3c0.4,0,1.7,1.6,2.6,3.5
	c2.4,4.7,4.4,4.6,6.8-0.4c2.4-4.9,4.2-6.1,13.2-8.3c7.4-1.8,8.9-1.8,8.9,0.4c0,1.8,5.2,5.8,7.5,5.8c1.1,0,6.7-1.9,12.4-4.3
	c5.6-2.4,11.1-4.6,12.2-4.8c2.9-1,3.1-2.8,0.7-8.2c-2.5-5.6-2.6-7.2-1-9.6c1.1-1.4,2.2-1.6,7.9-1.4c6.4,0.3,6.8,0.2,9.8-2.5
	c1.7-1.4,3.4-2.6,3.8-2.6c0.4,0,4.8,3.6,9.8,8.1c6.9,6.3,8.6,8.2,7.3,8.4c-1.8,0.4-3.9,1.8-3.9,2.8c0,0.4,3.1,2.9,6.7,5.7
	c6,4.5,8.3,5.6,18.6,9c15.7,5,15.8,4.9,11.2-8.8c-1.8-5.4-3.2-10.6-3.2-11.4c0-1.2,1.1-1.4,8.1-1.2l8.1,0.2l1.8-5.1
	c1-2.7,2.3-5.2,3-5.4c0.7-0.3,3.7-0.8,6.6-1.1c6.9-0.7,8.6-1.6,8-4c-0.4-1.5,0.4-2.8,3.5-5.8c2.2-2.1,3.9-4.1,3.9-4.6
	c0-0.4-2.7-2.9-6.1-5.4c-6.3-4.6-6.7-5.1-7.3-12.4c-0.4-4.9-0.1-5.4,7.1-9.5c15.8-9,26-15.4,31.3-19.8c5.3-4.4,6.3-4.8,9.6-4.6
	c3.9,0.3,3.8,0.1,2.5,6.1c-0.3,1.4,0,2.5,0.8,2.7c1.2,0.4,29.4-5.5,31.2-6.7c0.6-0.4,4.4-7.3,8.5-15.4l7.5-14.8l7-3.7
	c6.9-3.6,7.1-3.6,12-2.7c3.8,0.7,5.5,1.6,7,3.3c1,1.3,2,2.7,2,3.1c0,0.3,0.8,0.8,1.8,1.1c2.6,0.8,12.1-6,13.7-9.8
	c1.5-3.4,1.3-3.4,10.3,0.2c5.3,2.1,12,6.9,12,8.4c0,0.5-0.8,1.9-1.8,3.2c-1,1.2-1.8,3.4-1.8,4.8c0,3.1-1.1,5.4-4.5,9.3
	c-2.3,2.5-2.5,3.4-2.5,9.1c0,5.4,0.3,6.8,1.8,8c1,0.9,1.9,2.3,2.2,3.2c0.9,2.8,6.7,4.7,13,4l5.6-0.6l4.8,5.4l4.9,5.4l-1,4.6
	c-1,4.2-1.2,4.6-4,5c-2.3,0.4-3.1,1-3.5,2.5c-0.3,1.5-2.7,3.6-7.2,6.6c-3.8,2.5-6.8,5-6.8,5.8c-0.1,0.7,1.3,2.2,3.1,3.3
	c2.5,1.7,3.1,2.4,2.5,4c-1.7,5.4-1.6,5.7,1.7,7.7c3.1,2,3.3,2.2,2.7,6.1c-0.5,4-0.4,4.1,4.3,9.2c2.7,2.9,4.9,5.7,4.9,6.2
	c0,0.5-1.6,2.8-3.6,5.1c-3.1,3.4-3.5,4.5-3.2,7.2c0.4,3.1,0.4,3.1-2.5,2.5c-2.7-0.5-3.5-0.1-9,4.8c-3.4,3-6.1,5.9-6.1,6.5
	c0,0.5,1.4,2.4,3.1,4c1.8,1.7,3,3.3,2.8,3.8c-0.1,0.4-2.6,2-5.4,3.5l-5.3,2.8l-0.3,5.7c-0.3,8.1,3.1,15.3,10.7,22.6l5.5,5.4l1.2,7.3
	c1.8,10.5,1.9,10-3.1,10c-4.3,0-4.4,0-6.4,4c-2.6,5.1-5.5,6.3-15.1,6.2c-6.5-0.2-6.8-0.1-8.2,2.4c-0.8,1.5-1.5,3.2-1.5,3.9
	c0,0.7,1.8,4.7,4,8.9l3.9,7.6l-2.7,3.4l-2.8,3.4l1.4,6.6c1.2,6.2,1.8,7.3,8.4,15.6c7.2,9.1,7.5,10.4,3,10.5c-2,0-3,3.1-3,10.1v3.5
	l-5.4,1.8l-5.5,1.8l0.3,5.3l0.3,5.3l-8.6,4.6l-8.6,4.5l0.3,12.7c0.3,12.2,0.2,12.7-1.6,13.7c-2.8,1.5-2.2,3.3,1.9,5.5
	c3.9,2.2,3.9,2.3,2.9,8.3l-0.6,3.6l5.7,3.3c3.2,1.8,6,3.9,6.2,4.6c0.3,0.7,0,2.6-0.6,4.3c-1,2.5-0.8,4,0.9,10.5
	c2.2,8.6,2,9.2-3.8,10.7c-3.3,0.8-4.2,1.6-7,6.1c-3,4.8-3.4,5.3-8.2,6.3c-3.2,0.8-7.5,3-12.6,6.4c-7.3,4.9-8,5.2-11.6,4.6
	c-3-0.4-4.8-0.1-8.8,1.7c-6.4,2.9-7.3,2.8-12.7-0.5l-4.5-2.8l-7.3,2.4c-7.9,2.5-16.2,3.1-22.7,1.3c-3.7-1-3.8-1-9.4,3.1
	c-3.1,2.3-5.8,4-6,4C1043.5,612.1,1040.7,610.1,1037.5,607.6z"/>
<path class="st0" d="M1008.2,232.7c-0.9-5.7-0.7-6.4,2.6-7.7c3.5-1.5,11-1.4,11.5,0.2c0.4,1-7.8,7.7-11.7,9.8
	C1009,235.9,1008.8,235.6,1008.2,232.7z"/>
<path class="st0" d="M973.6,217.1c-2.2-0.7-4.3-1.6-4.7-2.1c-0.9-0.9-3.2-11.2-3.2-14.8c0-1.9,0.2-2,7.7-1.8l7.6,0.4l-0.3-2.6
	c-0.1-1.5-0.3-3.7-0.4-4.8c-0.1-1.7,0.3-2.2,1.6-2.2c1.2,0,1.9,0.9,2.5,3.3c0.8,3.2,1.3,3.7,6.8,6.2l6,2.8l-4.4,5.7
	C983.4,219.2,982.2,219.8,973.6,217.1z"/>
<path class="st0" d="M993.3,195c-6.7-3.7-6.4-8.4,0.7-9.6c2.8-0.4,3.1-0.3,4,2.4c1.1,3.3,1.3,9.7,0.4,9.6
	C997.9,197.4,995.7,196.3,993.3,195z"/>
<path class="st0" d="M1007.9,182.4c-2.4-2.5-1-3.9,8.1-8.4c11.8-5.9,12.3-5.9,11.5-0.2c-0.3,2.4-0.8,4.9-1.1,5.5
	c-0.3,0.7-3.5,1.8-7.2,2.6C1011.2,183.7,1009.3,183.8,1007.9,182.4z"/>
<path class="st0" d="M692.4,833.8c-2.4-0.3-3.4-1.1-5.4-4.4c-1.5-2.2-2.8-4.7-3.1-5.5c-0.7-2.2-2.5-2.6-5.3-1.2
	c-2.5,1.3-9.7,1.6-13.6,0.5c-2.3-0.6-14.3-16.6-13.5-17.9c0.3-0.4,1.4-0.6,2.5-0.6c1.8,0,2.4-0.7,3.2-3.6c0.9-3.1,0.9-3.8-0.3-4.4
	c-4.8-2.8-4.7-2.9,3-5.4c7.2-2.4,7.5-2.6,11-7.6c3.9-5.5,4.5-5.8,9.9-4.5c3.9,0.9,4.6,0.3,5.5-4.7c1.1-6.6,1.2-6.7,9.1-4.9
	c3.8,0.9,7.3,1.8,7.8,2.2c1.4,0.8,0.3,3.3-2.6,5.8c-2.5,2-2.5,2.5-2.3,8.3l0.3,6.2l3.9,1.1c3.3,0.9,4.2,0.9,5.8-0.2
	c1.8-1.1,2-1,4.6,4.7c1.5,3.3,3.6,7.4,4.6,9.1l2,3.3l-2.5,2.5l-2.5,2.6l2.7,3.1c2.6,3,2.9,5.3,0.8,6c-0.6,0.3-4.4,1.1-8.4,2.1
	c-6.5,1.5-7.6,2-10,4.9c-1.5,1.8-3.1,3.3-3.6,3.2C695.7,834.3,694,834.1,692.4,833.8z"/>
<path class="st0" d="M619.5,727.4l-9,3.8c-6.5,2.6-11.8,4.2-18.8,5.3l-11,2.5c2.6,4.2,4.6,10,12.7,33c3.5,9.8,6.6,17.8,6.8,17.8
	c0.4,0,2.1-2,3.9-4.5c4.8-6.5,6.6-5.4,9.7,5.6l1.4,5l4.5,0.1c2.5,0.1,9,0.1,14.4-0.1l9.7-0.2l2.8,4c2.4,3.3,3.2,3.9,5,3.5
	c1.2-0.3,2.5-1.2,3.2-2.2c1.1-2,0.7-2.3-4.6-5.3c-2.4-1.3-2.6-1.8-1.8-2.9c0.6-0.8,1.4-1.3,1.9-1.3c0.5,0,4.2-1.1,8.3-2.3
	c7.1-2.2,7.3-2.3,11.3-7.9l4-5.7l4.7,0.4c4.6,0.6,4.6,0.7,5.2-1.8c0.4-1.4,1.1-4.1,1.8-6.2c1-2.6,1.1-5.4,0.7-11l-0.6-7.4l-8.4-9.8
	c-4.6-5.4-8.9-9.9-9.4-9.9c-0.5,0-1.5,0.6-2.1,1.3c-1.9,2.4-3.9,3-12.3,4l-8.1,0.9l-4.4,4.8c-2.5,2.7-4.9,4.8-5.4,4.7
	c-0.5-0.2-4.6-4.3-8.6-9.2L619.5,727.4z"/>
<path class="st0" d="M891.6,796.4l-7.9-1.9l-2.7-7.7c-1.6-4.2-3-7.8-3.2-8.1c-0.7-0.6-36.8-8.4-40-8.6c-4.1-0.3-5.7-2.6-5.2-7.6
	c0.4-2.7,1.1-4.4,2.5-5.4c2.4-1.8,2.2-1.7,6.5-6.7c3.9-4.6,6.7-4.7,7.4-0.6c0.4,2.4,1.5,3.2,11.4,8.1c7.5,3.7,12,5.4,14.4,5.4
	c2.5,0,5,1.1,8.5,3.3c4.6,2.9,5.1,3.6,4.9,6c-0.2,2.4,0.1,2.6,2.9,2.9c2,0.2,3.7,1,5,2.5l1.9,2.4l4-2c5.1-2.5,6.6-4.1,6.6-6.9
	c0-1.5,1.8-4.3,5.6-8.5c3.1-3.4,6-7.7,6.6-9.4c0.9-2.6,7.6-11.1,18.6-23c1-1.1,1.8-4.5,2.5-9.7c2-17.6,2.1-19.7,0.7-21.9
	c-0.7-1.1-2.5-5.5-3.8-9.8c-2.5-7.6-2.5-7.7-1.1-13c1.6-5.9,1.9-5.1-4.3-10.2c-3-2.4-1.8-5.2,3.3-7.8c3.1-1.6,4.3-2.7,4.7-4.7
	c0.5-2.4,0.8-2.5,6.8-3.1c6.5-0.5,8.5-1.8,8.5-5.1c0-1.8,0.9-1.9,5.5-0.7c2.8,0.8,3.7,0.7,4.9-0.4c2.1-1.8,3.2-1.7,4.3,0.9
	c1.1,2.5,1.2,2.5,8.6,1.2c4.5-0.8,6.3-1.7,9.5-4.5c3.2-2.8,4-4.1,4.6-7.6c0.4-3.2,1.3-4.8,3.8-7c4.6-4.3,7.2-3.7,3.6,0.9
	c-2.5,3.3-2.2,6.9,1.6,14.1c5.9,11.3,9.5,16.3,12.2,16.9c1.3,0.3,4.6,1.8,7.1,3.2c4.3,2.5,4.6,2.9,4.6,6.1c0,2.9-0.3,3.5-2.6,4.5
	c-3.1,1.2-8.2,7-15,17c-2.6,3.8-5.2,7.6-5.8,8.3c-1.8,2.5,0.6,9.1,3.9,10.5c4.9,2.2,4.5,5.5-1.9,13.2c-2.6,3.3-5.9,5.8-9.9,7.9
	c-5.5,2.9-6,3.4-6.7,6.8c-0.5,2.7-1.6,4.3-4.1,6.4c-1.9,1.5-4.3,4.4-5.3,6.2c-1.7,3.3-2,3.5-5.5,3.5c-2.8,0-4.6,0.6-7.5,2.6
	c-2.4,1.8-4.2,2.5-5.3,2.2c-2.3-0.7-8,2.1-8,4c0,0.9,0.4,2.5,1,3.7c0.9,1.8,0.7,2.6-0.9,4.8c-2.7,3.9-2.4,6,1.3,7.9l3.2,1.6
	l-3.1,2.1c-2.3,1.6-3.2,2.9-3.6,5.4c-0.6,3.9-1.1,4-10.4,1.8c-4.7-1.1-8.4-1.2-14.9-0.9l-8.7,0.6l-6.8,4.8c-4,2.8-7.7,4.7-8.9,4.7
	C900.5,798.3,896,797.4,891.6,796.4z"/>
<path class="st0" d="M957,794.7c-3.1-2.5-3.5-3.3-3.3-5.9c0.2-2.5,0.9-3.5,3.9-5.7c2-1.5,3.7-3.2,3.7-3.9c0.1-0.6-1.5-1.8-3.4-2.6
	c-4-1.7-4.2-2.5-1.7-5.8c1.7-2.1,1.8-2.7,1-5.6c-0.9-2.7-0.8-3.3,0.5-4.3c0.9-0.7,2.5-1,4-0.7c1.9,0.4,3.2-0.1,6-2.2
	c2.4-1.9,4.7-2.9,8-3.3c4-0.5,4.7-0.9,5.9-3.4c0.8-1.6,3.2-4.6,5.4-6.8c2.7-2.6,4.2-4.8,4.6-7c0.5-2.8,1.1-3.4,6-5.6
	c4.5-2.1,6.3-3.7,10.5-9c4.7-6,5.1-6.8,4.8-10.5c-0.3-3.5-0.6-4.1-3.1-5.3c-4-1.7-5.5-6.4-3.1-9.1c1-1.1,3.3-4.2,5.2-7.1
	c5.4-8.6,11-15.2,13.4-15.8c3.5-1,4.4-2.2,4.4-6.3c0-3-0.5-4.3-2.1-5.9c-2.5-2.3-9.4-5.8-11.4-5.8c-2.2,0-13.2-18.2-13.9-22.8
	c-0.3-1.9,0.2-2.2,5.5-3.2c10.3-1.9,13.6-4.7,12.6-10.7c-1.1-7-1.2-7.1-4.4-7.7c-4-0.8-5.7-3.9-5.7-10.8c0-6.2,0.2-6.2,8.6-6.2h5.9
	l1.8,4.5c1.5,3.9,2.9,5.5,8.8,10.1c3.9,3.1,9.3,6.8,12,8.3c4.7,2.5,5,2.9,4.8,5.8c-0.2,2.6,0.3,3.3,3.1,4.9l3.3,1.8l2.1-1.9
	c1.1-1.1,2.3-1.9,2.6-1.9c0.3,0,1.8,1.8,3.3,4c1.6,2.1,3.3,4,3.9,4c0.6,0,2.1-0.9,3.4-1.8c1.3-1.1,2.5-1.8,2.7-1.6
	c0.1,0.2,1,3.2,2.1,6.6c1.1,3.6,2.8,7.2,4,8.4l2.2,2.2l-1.8,2.3c-1,1.3-1.7,2.9-1.5,3.5c0.2,0.7,2.8,3.3,5.9,5.8l5.5,4.7l-4.9,4.9
	c-3.6,3.7-5.4,6.5-7,10.9c-2.5,6.6-2.4,8.2,1.1,9c1.3,0.4,4.1,2.5,6.2,4.9l3.9,4.4l-2.4,5.3c-2.3,5.1-2.4,5.7-2.1,18.4
	c0.3,12.4,0.3,13.2,2.4,15.4c2.4,2.5,1.8,4-2.6,5.8c-1.9,0.8-3.3,2.4-4.7,5.8c-1.3,3-2.8,5-4.1,5.4c-4.5,1.8-9.9,1.9-14.3,0.6
	c-6.7-2-7.8-1.8-10.5,2.2c-2.7,4-3.2,4-9.8,2.1c-5.8-1.7-12.9-1.3-15,0.9c-0.8,0.8-3.4,4.8-5.9,9.1c-4.2,7.3-4.9,8-15.4,15.7
	l-11,8.2l-14.6,1.8C962.2,798.2,961.4,798.2,957,794.7z"/>
<path class="st0" d="M898,775.7c-0.4-1.1-1.6-1.8-3.9-2.3c-3.1-0.5-3.4-0.9-3.2-2.5c0.6-2.9-10.5-10.2-15.4-10.2
	c-2.5,0-6.5-1.5-13.6-5c-9-4.4-10.2-5.3-10.7-7.6c-1.1-5.5-5.4-5.6-10.7-0.2c-3.8,3.9-3.9,4-6,2.5c-1.8-1.1-2.6-1.2-4.4-0.4
	c-2,1-3.2,0.5-11.1-4c-7.6-4.2-9.6-5-13.6-5.1c-4.5,0-4.8-0.3-8.5-4.4c-2.1-2.5-3.9-4.7-3.9-5c0-0.3,2-1.8,4.4-3.3
	c2.5-1.6,4.4-2.9,4.5-3c0-0.1,0.7-4.3,1.6-9.3c1.4-8.1,1.4-9.7,0.4-12.7c-1.4-3.9-1.8-3,6.1-12.4l3.4-4l-2.8-7.2
	c-1.5-4-2.7-7.8-2.7-8.4c0-0.5,1.1-3.3,2.6-6.2l2.6-5.2l5-0.5c7.9-0.9,8.6-1.1,9.9-3.5c0.7-1.2,1.5-2.2,1.8-2
	c0.4,0.1,2.3,2.4,4.3,4.9c3.2,4,3.9,4.6,6.4,4.4c2.8-0.3,2.8-0.4,2.9-5.2c0-4.6,0.4-5.5,6.7-15.2l6.7-10.2l-1.3-3.3
	c-1.8-4.3-1.8-4.6,1.8-5.2c2.5-0.4,3.9,0,8.5,2.9c5.4,3.4,11.5,5.5,13.7,4.8c0.5-0.2,1.1-1.4,1.1-2.7c0-1.2,0.8-4,1.8-6.2
	c2.4-5.3,2.3-5.9-1.8-8.5c-3.9-2.5-4-3.3-2.2-6.5c0.7-1.2,1.3-4.3,1.3-6.8c0-4.4-0.1-4.6-2.9-5.5c-1.7-0.5-4-2.1-5.3-3.4
	c-2.2-2.4-2.4-2.8-1.5-6c0.5-1.8,1-4.7,1-6.3c0-2.3,1-4.1,3.9-7.5c3.7-4.4,3.9-4.9,5.4-14.5l1.6-9.9l-3.3-2.8l-3.3-2.7l0.7-9.4
	l0.6-9.4l6-4c5.3-3.5,6-3.8,6.8-2.5c0.7,1.2,0.3,2.2-1.9,4.4c-3.3,3.5-2.7,4.3,4.1,5.2l5.2,0.8l3.3,5.4c1.8,3,3.4,6.6,3.6,7.9
	c0.2,1.7,1.4,3.2,3.9,4.8c3.3,2.3,3.6,2.7,2.9,4.7c-0.5,1.2-0.9,3-0.9,3.9c0,2.5,7.9,14.1,9.6,14.1c3.8,0,3.9,0.5,2.3,19.3
	l-1.6,17.8l3.4,2.9c5.2,4.5,6.1,4.5,10.3,0.5c3.4-3.3,15.6-11.6,17-11.6c0.4,0,1.8,1.3,3.1,3.1c1.3,1.7,2.8,3.1,3.2,3.1
	s2.2-1.8,3.9-4.1c2.5-3.3,3.1-4.8,3.1-8.3c0-3.3,1.1-6.5,4.7-14.2c4.6-9.9,4.7-10,8.1-10.6c8.1-1.3,9.2-1,14.8,4.7
	c2.9,2.9,5.6,5.3,6.1,5.2c0.4,0,2.5-0.8,4.4-1.7c1.9-1,4.2-1.8,5-1.8c1.5,0,14.8,16.3,15.4,18.9c0.2,0.8-1.5,1.3-6.4,1.8
	c-7.7,0.7-8.3,1.3-8.3,8.7c0,6.6,2.5,11.6,6.1,12.4c3.1,0.6,4.6,3.5,4.2,7.8c-0.3,3.3-3.7,5.4-9.8,6.2l-4.3,0.6l1.5-2
	c1.9-2.8,1.8-3.2-1.1-4.7c-2.4-1.2-2.6-1.2-7,2.3c-3.8,3.2-4.5,4.2-5,7.6c-0.4,2.5-1.5,5-3.2,6.9c-3.3,3.9-4.4,4.4-10.3,5.2
	c-4.9,0.6-4.9,0.6-5.9-2.1c-1.1-3.3-2.1-3.4-5.5-0.9c-2.5,1.7-2.8,1.8-6.4,0.5c-4.4-1.6-5.4-1.1-6.3,2.5c-0.8,3.4-1.7,3.9-7.5,4
	c-6.3,0-7.7,0.5-7.7,3.1c0,2.5-0.9,3.3-5.7,6c-2.6,1.5-3.6,2.6-4,4.9c-0.7,3.6-0.3,5.1,1.8,5.7c0.9,0.3,2.4,1.3,3.3,2.2
	c1.8,1.7,1.8,1.9,0.5,6.9c-1.3,5.3-1.3,5.4,1.5,13.9c1.6,4.8,3.2,9.1,3.6,9.5c1.1,1.1,1,9.2-0.1,16.3c-0.5,3.2-1.1,7-1.4,8.5
	c-0.3,1.9-3.2,5.9-9.6,13.2c-5.6,6.3-9.6,11.7-10.2,13.6c-0.5,1.8-3.7,6.2-7,9.9c-4.4,4.9-6,7.4-6,9.1c0,1.9-0.7,2.8-3.2,4.1
	c-1.8,1-3.6,1.8-3.9,1.9C898.6,777.3,898.2,776.7,898,775.7z"/>
<path class="st0" d="M702.7,790.3c-1.8-0.9-2.2-1.8-2.5-5.2c-0.3-3.6,0-4.3,2.1-5.7c4.4-3,13.5-12.5,13.5-14.1c0-0.9-0.6-4-1.3-6.9
	c-1.8-7.4-1.7-9.1,1-12.6c2.3-2.9,2.3-3.1,1-6.4c-1.1-2.7-1.1-4-0.4-6.5c1.1-3.9,0.6-4.5-3-3.2c-1.6,0.5-3,0.8-3.2,0.6
	c-0.2-0.2,0.4-2.1,1.2-4.3c1.5-4,1.5-4.1-0.5-7.6c-1.8-3.3-2-6.2-0.4-6.2c0.4,0,1.8,1.8,3.2,4c2.9,4.5,4,4.7,13.8,2.6
	c3.2-0.7,6-0.9,6.4-0.5c0.4,0.4,1.1,2.5,1.6,4.6c0.4,2.1,3.4,8.9,6.5,14.9c3.2,6.2,5.7,11.6,5.7,12.3c0,0.6-1.3,2.5-2.9,4.2
	c-1.7,1.8-3.4,4.8-4,6.9c-0.8,3.1-2.4,4.8-8.4,9.9c-5,4.1-7.6,7-8,8.6c-1.2,5.8-1.6,6.2-8,6.8c-7.9,0.7-9.1,1.1-8.9,2.9
	C707.7,791.4,705.5,791.7,702.7,790.3z"/>
<path class="st0" d="M706.2,770.8c0-1.3-1.9-1.9-11.5-4c-4.7-1-5-1.2-5.5-4.2c-0.3-1.8-0.5-5.4-0.5-8.3c0-4.9-0.1-5.2-5.4-11.4
	c-3.1-3.5-7.5-8.8-10.1-11.7l-4.6-5.4l-1.3-10.9c-0.7-6.1-1.6-12.7-1.9-14.9l-0.5-4l6.6-1.4c3.6-0.8,8.7-2.7,11.2-4.2
	c3.9-2.4,5.8-2.8,14.6-3.5c5.5-0.5,10.1-0.8,10.3-0.6c4.5,5.6,8.3,12,8.3,13.9c0,1.4-1.1,3.4-3.2,5.4c-1.8,1.8-4,4.7-5,6.3
	c-1.7,3.1-1.7,3.1,0.4,7l2,3.9l-1.9,4.7c-1.1,2.5-1.9,5.2-1.9,5.9c0,1.1,0.3,1.1,5.6-0.6c1.4-0.4,1.6-0.2,1.1,1.5
	c-0.3,1.1,0.2,3.3,0.9,4.9c1.4,2.9,1.4,3.1-1.1,6.6c-2.5,3.5-2.5,3.8-1.4,8.6c2.4,10.9,2.4,11.4-0.8,14.7
	C707.4,772.4,706.2,772.8,706.2,770.8z"/>
<path class="st0" d="M772.1,232.7c0-0.8,0.7-6.4,1.6-12.3c1.2-8.3,2-11.1,3.2-12c2.5-1.8,3.6-1.6,4.9,1.1c1.1,1.9,1.8,2.3,4.3,2.2
	c3.1-0.2,3.2-0.1,5.8,5.9c2,4.4,2.5,6.2,1.8,6.9c-1.1,0.8-20.5,9.8-21.2,9.8C772.2,234.3,772,233.6,772.1,232.7z"/>
<path class="st0" d="M756.4,216.6c-3.9-0.9-7.5-1.8-8-2c-0.4-0.3-1.4-2.7-2.3-5.4c-1.1-3.9-1.3-6-0.8-9.5c0.8-4.2,1-4.6,4.2-5.6
	c5.4-1.8,12.5-1.6,15.2,0.4c2.3,1.7,2.4,2,2.6,11.8c0.2,8.5,0,10-1.2,11c-0.9,0.6-1.8,1.1-2,1.1
	C763.9,218.3,760.4,217.6,756.4,216.6z"/>
<path class="st0" d="M739.7,188.2c-2.4-2.6-2.5-3.4-1.9-5.9c0.4-1.6,1.2-4.6,1.8-6.6c1-3.9,4.6-9.1,6.4-9.1c1.8,0,7.5,9.8,8.1,13.8
	c1,6.2,0.1,7.8-5.3,9.4C742.6,191.8,742.8,191.8,739.7,188.2z"/>
<path class="st0" d="M839.6,414.5c2.6,0.7,5,2.4,7.8,5.3l4,4.2l2.7,14.5c1.6,7.9,2.8,14.9,2.8,15.6c0,0.5-1.4,2.7-3.1,4.7
	c-3.7,4.6-3.8,5.8-0.5,8.2c2.1,1.6,2.5,2.6,3.1,7.4c0.4,4.6,1.2,6.6,4.5,11.5c2.2,3.3,3.9,6.5,3.9,7.3c0,0.8-0.8,3-1.8,5
	c-1.6,3.1-1.8,4.7-1.3,9.3c0.3,3.2,0.7,5.9,1.1,6.2c0.6,0.6,2.3,0.7,14.2,0.8l8.5,0.2l-5.2,3.4c-2.9,1.9-5.5,4-5.9,4.7
	c-0.3,0.6-0.8,5.6-0.9,11.2l-0.2,9.9l2.9,2.5c2.7,2.2,2.9,2.6,2.4,6.2c-2.4,15.9-2.1,14.9-6,18.9c-3.3,3.4-3.9,4.4-4.4,9.3
	c-0.4,3.1-1,6.3-1.2,7.4c-0.7,2.4,3.9,7.8,8.1,9.6c3.6,1.5,3.8,3.8,0.7,9.6c-1.2,2.3-2.2,4.5-2.2,4.8c0,0.4,1.8,1.8,4,3.2
	c2.8,1.7,3.9,2.7,3.6,3.8c-0.3,0.8-1,2.8-1.6,4.6c-0.5,1.7-1.1,3.5-1.3,4.1c-0.4,1.3-2.5,1.3-5.5,0.2c-1.1-0.5-4.4-2.3-7.2-4
	c-4.2-2.5-5.6-3-8.1-2.5c-2.5,0.4-5.3,1.1-6,1.8c-0.6,0.8-0.6,1.6,0,2.8c3,5.4,3,5.5-3.9,16c-5.8,8.9-6.5,10.5-6.5,14.2
	c0,5.7-1.5,5.4-6.6-1.1c-2.2-2.9-4.4-5.3-4.8-5.3c-0.4,0-1.8,1.4-3.2,3.2c-2.5,3-3,3.3-8.7,3.8l-6,0.5l-3.2,6.2
	c-1.8,3.3-3.2,6.8-3.3,7.5c0,0.7,1.2,4.5,2.6,8.3c3,7.7,3.3,6.8-3.8,14.9l-4.3,4.8l1.3,4c1.2,3.6,1.2,4.8,0,12.3l-1.4,8.3l-4.6,3.3
	c-2.6,1.8-4.7,3.9-4.7,4.6c0,0.7,2.3,3.8,5.1,6.9c2.7,3.2,5,6,5,6.2c0,0.4-4.3,1.8-9.6,3.4l-9.6,2.8l-0.8,3.7
	c-0.5,2.4-1.6,4.2-2.9,5.1c-1.1,0.7-3.6,4-5.4,7.2c-5.8,9.8-8.9,12.1-20.2,14.5c-0.7,0.2-4.4-0.2-8.1-0.7c-5.6-0.8-7.3-1.4-9.2-3.4
	l-2.5-2.5l5-4.6c3.5-3.2,5.3-5.6,5.9-7.9c0.4-1.8,2.3-4.9,3.9-6.9c1.8-2,3.2-4.2,3.2-4.9c0-0.6-2.7-6.6-6-13.2
	c-3.2-6.7-6.3-13.7-6.6-15.7c-1.1-6.3-1.8-6.7-9.1-5.2c-9.4,2-10.8,1.8-13.1-1.5c-3.1-4.6-3.2-5.4-0.3-8.1c2.2-2.1,2.6-3.3,2.6-6.4
	c0-3.2-0.7-4.9-3.9-9.4l-3.9-5.5l1.6-2.5c1.1-1.6,1.5-3.3,1.1-5.1c-0.4-2.3,0.3-3.6,3.2-7.3c2.9-3.6,3.6-5.2,3.6-8.1
	c0-3.3-0.2-3.6-3.2-4.4c-11.7-3.1-10.8-2.5-10.8-6.1c0-4,0.4-4.5,5.5-8c4.6-3.2,4.7-3.8,2.7-8.9c-1.3-3.3-1.6-3.5-5.2-3.5
	c-3.6,0-4-0.4-8.3-5.7c-5.1-6.2-5.1-6.2-17.4-7.1c-9.9-0.7-11.7-1.8-9-5.9c1.7-2.6,1.7-2.7-0.3-7.9c-1.3-3.8-1.6-5.4-0.8-5.6
	c1.6-0.6,14.6-10.1,15.3-11.2c1.1-1.7,0.8-2.1-4.9-5.4c-4.2-2.5-6-4.1-7.2-6.7c-1.8-3.9-1.6-4.1,6.2-12.6c5.3-5.7,5.5-6.9,3.4-13.1
	c-1.4-4.1-1.4-4.1,1.1-7.6c4.3-6,4.7-7.2,4.7-14.1c0-8-1.1-9.7-7.2-11.2c-4.6-1.2-4.2-0.2-4.6-11.4c-0.1-2.7-0.3-5.4-0.4-6
	c0-0.6-1.4-1.8-3.1-2.4l-2.9-1.2l-0.6-9c-0.6-7.6-1.1-9.6-3.2-13.1c-1.6-2.7-2.8-6.6-3.5-10.9c-0.9-6-0.8-6.9,0.8-9.9
	c1.6-3.1,5.3-8.7,6.1-11.2c0.9-2.5,0.6-3.9-2.2-11.9l-3.2-9l-3.2,0.6c-6.2,1.1-6.4,1.1-10.3-4.4c-2.1-2.9-3.8-5.5-3.9-5.9
	c0-0.4,2.4-2.3,5.3-4.4c5.5-4,7.5-7.4,8.4-14.2c0.5-3.3,0.2-4-3.1-8c-1.9-2.5-3.6-4.8-3.6-5.3c0-0.5,2-3,4.5-5.5l4.5-4.7l1.4,1.9
	c3,4.2,4.6,5.3,7.9,5l3.2-0.3l0.3-5.4c0.3-5.2,0.2-5.5-4-11c-2.3-3.1-4.5-6.2-4.8-7.1c-0.6-1.7,1-14.7,1.9-15.7
	c0.3-0.4,7.3-1.2,15.4-2c21.4-2,22.3-2.2,23-3.7c0.3-0.8-0.5-3.4-1.8-6.1l-2.3-4.7l3.7-5.4c2-3.1,5.7-7.8,8.2-10.5
	c3.9-4.2,6-5.5,15.2-9.7c7.6-3.4,11-5.4,11.6-6.9c0.9-1.8,8.1-6.2,10.2-6.2c0.4,0,1.2,1.1,1.8,2.5c1.9,4.7,2.5,4.7,12.2,0.1l8.9-4.4
	l-0.3-3.3c-0.3-3-0.1-3.3,2.8-4c5.1-1.3,5.5-2.2,4.3-8.3l-1.1-5.3l4.3-6.9c2.4-3.8,5.1-7.4,6-8c2.1-1.6,5.8-1.6,7.7-0.2
	c1.3,1.1,1.1,1.5-2.1,5.3c-5,5.9-4.3,7.2,3.5,6.4c5.8-0.6,6-0.5,6.6,1.4c0.3,1.1,0.5,2.9,0.5,4c0,1.6,1.5,3,3.2,3
	c0.2,0,2.3-1.8,4.7-4l4.5-4h7.9h7.9l5.7,4.6c3.2,2.5,6,5.5,6.2,6.8c0.3,1.2,0.6,6.2,0.7,11.1v8.8l-5.8,8.8
	c-3.2,4.8-7.8,12.5-10.3,17c-2.5,4.6-6.3,11.1-8.5,14.5c-3.8,6.2-4.6,8.8-3.1,9.8c0.5,0.3,3.1,0.3,5.9-0.1c4.7-0.5,5.4-1,12.5-7.5
	c4.1-3.8,7.8-6.9,8.2-6.9c0.7,0,1,0.7,3,9.9c1.4,6.1,1.9,7.2,4.9,9.6c1.9,1.4,6,6.7,9.4,11.6c9.2,13.8,8.9,12,2.7,19
	c-6,6.8-6.6,8.3-7.4,17.8c-0.8,8.3-1.2,9.1-5.5,8.7c-3.2-0.2-3.7,0.2-9.6,6.4"/>
<path class="st0" d="M530.9,722.7c-0.3-0.4-0.3-2.2,0.1-4c0.7-3.8-0.1-4.9-7.1-9.4c-4.1-2.7-6-3.3-8.6-3.2c-2.3,0.2-3.6-0.2-4-1.1
	c-0.4-0.7-1.2-6.7-1.8-13.4l-1.1-12l4.3-8.6l4.2-8.6l5.3-1.3l5.3-1.3l-0.2-5.3c-0.4-8.6-1.1-10.3-5.1-11.3c-3.3-1-3.5-1.1-3.8-4.9
	c-0.2-3.2,0.4-4.9,2.7-8.8c1.6-2.6,3.2-4.7,3.7-4.6c0.5,0.1,1.4,1.8,2.1,3.7c1.2,3.8,0.7,3.5,12.8,6.5c2.9,0.7,8.8,1.5,13,1.8
	c7.3,0.5,8,0.4,11.6-1.7c2.1-1.2,4-2.3,4.3-2.3c0.3,0,0,1.4-0.4,3.2c-0.8,2.7-0.4,4.5,2.7,13.3c4.4,12.5,4.6,15.8,0.7,20.1
	c-2.7,3.2-2.8,3.3-1.3,5.8c0.9,1.5,1.3,2.9,1.1,3.3c-0.3,0.4-2.6,1.1-5.3,1.8c-2.7,0.6-5.3,1.6-6,2.2c-0.6,0.6-2.1,4.3-3.2,8.3
	l-2.1,7.2l3.2,4.4l3.2,4.4l-1.8,4.5c-1,2.5-1.7,5.1-1.5,5.8C558.4,720.5,532.7,725.7,530.9,722.7z"/>
<path class="st0" d="M719.4,816.4c-1-1.1-0.8-1.7,0.8-3.3c2.5-2.6,2.4-3.5-0.8-8.5c-1.4-2.4-3.5-6.6-4.7-9.4c-2.5-5.8-2.1-6.3,4-6.3
	c4.9,0,6.7-1.5,7.4-6.2c0.4-1.8,1.3-4,2.2-4.9c1.7-1.4,1.8-1.3,4.7,1.4c2.7,2.6,3.7,3,11,3.8c14.7,1.7,22.6-2,29.5-13.8
	c1.7-2.9,4.4-6.5,6-8.1c1.8-1.7,3-3.5,3-4.9c0-2.8,1.1-3.6,7-5.3c15.4-4.4,15.1-4.2,14.6-6c-0.8-3.2,3.9-1.9,13.8,3.5
	c8.4,4.6,9.7,5.1,12,4.3c1.8-0.7,2.9-0.6,3.8,0.2c1.1,1,1.1,1.3-0.7,3c-3.1,2.9-3.9,10.3-1.5,13.6c1,1.4,1.8,2.9,1.8,3.3
	c0,0.4-2.7,4.7-6.1,9.5c-3.3,4.7-6.1,8.9-6.1,9.2c0,0.3,1.6,4.5,3.5,9.4c1.9,4.9,3.5,9.3,3.5,9.8c0,0.5-1.9,1.9-4.4,3.2
	c-4.2,2.1-4.9,2.2-21.4,2.2h-17l-1.1-4.5c-0.7-2.8-1.8-4.8-3-5.5c-1-0.6-7.4-2-14.1-3.2l-12.3-1.9l-16.9,8.4
	c-9.3,4.7-17,8.4-17.2,8.4C720.6,817.8,720,817.2,719.4,816.4z"/>
<path class="st0" d="M460.1,677.5c-9.4-1.1-13.6-1.1-16.2-0.4c-2.6,0.7-5.9,0.5-13.3-0.6c-5.3-0.8-10.1-1.8-10.4-2.1
	c-0.3-0.4,0.5-2,1.8-3.8c1.3-1.7,2.2-3.6,1.9-4.2s-3.1-1.8-6.2-2.7c-3.2-0.8-5.8-1.8-5.8-2.1c0-1.4,5.3-8.6,8.2-11.5
	c3.1-3,3.2-3.2,3.2-9.7v-6.8l3.1-1.4c1.8-0.9,4-1.5,5.2-1.5c3.6,0,10.3,2.8,11.7,4.9c1.7,2.6,2.6,2.6,6,0c3.7-3,6-1.8,5.2,2.8
	c-0.8,4.8,4.6,15.7,8.2,16.4c4.6,1,9.7,3.9,11.2,6.3c0.9,1.3,3.2,4,5.3,6c5.1,4.7,5.5,6.8,2.2,9.1
	C477.5,678.9,474.9,679,460.1,677.5z"/>
<path class="st0" d="M444.2,633.2c-1.2-1.8-9.8-5.2-13.5-5.2c-1,0-3.3,0.8-5.3,1.8l-3.5,1.9l-3.4-2.4c-1.9-1.2-3.9-2.3-4.5-2.3
	c-0.9,0-3.5-1.1-14.1-5.9c-1.8-0.8-2.9-1.8-2.9-2.9c0-2.5-1.6-3-5.2-1.4l-3.3,1.5l-5.8-3.2c-6.3-3.5-6.3-3.5-4.6-10.5l1-4.4l4.8-0.4
	c4.7-0.4,4.8-0.5,6.9-4.7c2.1-4.4,2.7-4.7,8-3.4c4.3,1.1,5.2,0.5,5.8-3.5c0.6-3.7,0.2-3.3,9.8-7.4c2.5-1.1,2.8-1.7,2.6-4.1
	c-0.1-1.7,0.5-3.9,1.3-5.1c1.9-2.7,1.8-4.5-0.3-8.5c-2.5-4.6-2.3-7,0.7-8.3c2.3-1.1,8.7-7.3,14.5-14.3c1.7-2,3.2-5.1,3.6-7
	c0.7-4.1,2.8-8.5,4.5-9.5c0.7-0.4,1.2-1.4,1.2-2.3c0-0.9,0.5-2.3,1.2-3.3c1.2-1.7,1.3-1.6,2.2,1c1.6,4.4,2.3,5.2,6.5,7.5
	c3.3,1.8,4.9,3.6,9,10.5l5,8.2l-1.9,8.3l-1.8,8.2l1.9,3.9c1.8,3.8,1.8,4.1,0.5,9.3l-1.4,5.4l2.6,2.2c1.4,1.1,2.9,2.2,3.2,2.2
	c0.4,0,1.8,1,3.1,2.2c2,1.9,2.4,2.9,2.4,7.3c0.1,2.7,0.6,6,1.3,7.2c0.7,1.1,1.3,4.2,1.3,6.7v4.5l-3.2,0.5c-5.1,0.9-8.6,0.7-9.6-0.4
	c-1.6-1.5-7.3,11.5-7.3,16.5c0,2.1-0.2,3.9-0.4,3.9s-1.7-0.6-3.2-1.4c-2.5-1.2-2.7-1.2-5.5,1l-2.9,2.2L444.2,633.2z"/>
<path class="st0" d="M494.5,676.9c-7.4-2.5-8.2-3-9.1-5.6c-0.4-1.6-2.5-4.1-4.3-5.6c-1.9-1.5-3.9-3.8-4.6-5
	c-1.5-3.1-7.3-6.9-11.4-7.6c-3-0.5-3.5-1.1-6-5.9c-3.1-6.3-3.2-7.7-0.9-10.7c1.2-1.6,1.8-3.6,1.8-6.8c0-3,0.7-5.9,2.2-8.8
	c2.4-4.7,3.1-4.9,13.6-5.5l3.9-0.2l0.3-4.7c0.3-4.3,0.4-4.6,2.5-4.6c1.3,0,3.9-0.8,5.9-1.7c2-1,7.1-2.5,11.4-3.6
	c8.8-2.1,16.4-6.7,18.1-10.8c0.5-1.3,1.4-2.4,1.9-2.4c0.5,0,4.7,2.1,9.4,4.7c8.4,4.8,8.5,4.9,13.4,13c2.7,4.5,5.7,9.9,6.7,12.2
	c1.8,4,2,4.1,9.9,6.9c4.5,1.6,8.5,3.2,8.9,3.6c0.3,0.4-1.4,2.1-3.9,3.8c-4.7,3-4.7,3.1-10.9,2.2c-8.2-1.1-15.1-2.3-19-3.4
	c-2.9-0.8-3.4-1.4-5.2-6.2c-1.3-3.5-2.4-5.2-3.4-5.2c-0.9,0-3.2,2.6-5.8,6.8c-4,6.4-4.3,7.2-4.3,12.8c0,6.2,0.8,7.6,4.5,7.6
	c2.6,0,3.7,1.6,4.3,6.7l0.6,4.4l-4.9,1.1l-5,1.1l-5,10.1c-3.2,6.4-5.4,9.9-6.3,9.9C503.2,679.7,498.9,678.4,494.5,676.9z"/>
<path class="st0" d="M665.8,563.4c-5-3-7.7-4-10.3-4c-3.2,0-4-0.5-8.1-4.9c-6.6-7.1-6.6-7.1-12.4-2.1l-5.1,4.4h-7.5h-7.6l-5.9-6.5
	l-5.9-6.5l-8-1.5c-7.4-1.5-8.5-2-13.9-6.3c-5.8-4.5-6.2-4.7-11.6-4.7h-5.5l-3.3-7.2c-2.1-4.7-3.2-8.5-3.2-10.9c0-3.3-0.4-4-4.6-7.7
	c-2.5-2.2-5.3-4-6-4c-0.9,0-3.9,0.7-7,1.7l-5.4,1.8l-3.7-2.2c-3.3-1.9-3.7-2.5-3.7-5.8c0-5.6-4.5-7.8-19.4-9.6
	c-8.9-1.1-9-1.1-11.1-4.2c-2.7-4-2.7-4.3,0-9.1c1.8-3.2,2.2-5,2.2-10.5v-6.8l2.6-0.5c1.4-0.4,4.6-2.4,6.9-4.5c4-3.7,5-4,12.1-5.3
	c10.5-1.8,9.7-1.5,16.7-8.1c4.6-4.4,6.6-7,7.4-9.8c1-3.3,1-4-0.2-4.6c-3.9-2.4-3.9-2.2-0.5-7.1c1.8-2.5,3.2-5.2,3.2-5.7
	c0-0.5-1.1-3.1-2.3-5.5c-2.3-4.6-2.3-7-0.1-7c0.6,0,5,5.9,9.7,13.2c6.1,9.3,9.1,13.2,10.3,13.2c1.1,0,2.7-1.6,4.4-4.2
	c3.4-5.4,3.9-7.5,2.1-10.2c-1.1-1.8-1.3-3.3-0.8-7.2c0.6-5,0.6-5-2.6-7.7l-3.3-2.7l2.1-2.6c1.1-1.4,3.5-5.7,5.3-9.6
	c3.1-6.8,3.2-7.1,1.8-9.4c-2.4-4-1.1-6.2,7.1-11.3c6.6-4.1,8.1-5.6,14-13.7c4.3-5.9,7.3-9.1,8.3-9.1c1.7,0,11.4,3.3,12.5,4.4
	c0.4,0.4,0.4,2.6,0.1,5.2c-0.5,3.9-1.5,5.6-6.6,12c-3.3,4.2-6,8.3-6,9.4c0,1,0.6,4.1,1.4,6.9c1.4,5,1.4,5.2-0.9,12
	c-1.2,3.9-2.3,7.7-2.3,8.6s-1.4,5.8-3.1,10.8c-1.7,5-3.1,9.9-3.1,10.9c0,1,1.1,4.2,2.3,7.1l2.2,5.4l-3.6,6.8c-2,3.7-3.9,6.8-4.4,6.8
	s-3.2,2.9-6.1,6.6c-5.2,6.4-5.3,6.6-9.3,6.6c-2.1,0-6.7-0.9-9.9-1.8c-12.3-3.8-14.5-1-6,7.7c6,6.2,12.5,9.8,17.5,9.9
	c5.3,0,15.4-5.2,19.3-10c1.8-2.3,5.7-5.7,8.6-7.6l5.2-3.5v-10c0-11.2,0.4-12.3,5.9-13.3c5-1,7.4,0.9,8.9,6.7
	c2.9,11.8,2.7,11.4,5.3,11.4c1.3,0,3.7-0.9,5.3-1.8l2.9-1.8l-0.6-6.3c-0.4-3.5-1-7.2-1.3-8.2c-0.4-1.1-3.4-3.8-6.7-6.2
	c-5-3.6-6.9-4.4-12.1-5.2c-5.4-0.8-6.2-1.1-6.7-3.1c-1.5-5.5-0.9-8.3,3.6-15.4c2.5-3.9,4.4-7.4,4.4-7.9s-1-4.8-2.1-9.7
	c-2.5-9.8-2.2-11,3.2-15.9c4.5-4.2,10.8-8.4,11-7.6c0.2,0.5-1.1,4.6-2.8,9.2c-1.8,4.6-3.2,8.8-3.2,9.3c0,1.9,16.7,11.5,20.2,11.5
	c2,0,4.2-2.3,4.3-4.3c0-0.6-2.5-4-5.7-7.6c-3.2-3.5-5.7-7-5.7-7.7c0-2.4,1.8-2.7,3.9-0.7c2.2,2,4.1,2.3,6.7,0.9
	c2.3-1.1,2.1-2.8-0.6-7.5c-1.8-3.2-2.1-4.1-1.2-5.3c2.6-3.1,6.3-0.3,4.1,3.3c-0.9,1.4-0.8,1.9,0.3,2.8c0.8,0.5,3.2,2.9,5.3,5.3
	l3.8,4.2l-4,4.1c-2.3,2.3-4.1,4.6-4.1,5.1c0,0.6,1.8,3,3.9,5.4c4.2,4.6,4.6,6.2,3,11.7c-0.8,2.5-2.5,4.5-7,8
	c-3.2,2.5-6.1,5.1-6.4,5.7c-0.4,1,3.5,7.3,8.4,13.4c2.4,3,2.5,3,6.1,2c2.1-0.6,4-0.8,4.4-0.4c0.4,0.4,1.7,3.5,2.9,7l2.2,6.3
	l-4.4,8.7l-4.4,8.6l1,6.9c0.7,4.7,1.8,8.4,3.7,11.8c2.4,4.2,2.7,5.9,3.1,13.2c0.4,9.1,1.1,11.4,3.5,11.4c3,0,3.7,1.8,3.7,9.8
	c0,8.5,0.6,9.5,6.6,10.9c4.4,1.1,4.8,1.9,4.8,8.7c0,6.1-0.2,6.6-3.6,11.4l-3.7,5.1l1.5,4.6c0.8,2.5,1.4,5.2,1.4,5.9
	c0,1.6-8.6,11.3-9.9,11.3C672.9,567.4,669.4,565.5,665.8,563.4z"/>
<path class="st0" d="M370.2,698.7c-0.3-0.7-0.1-2.5,0.4-4.1c1.2-3.5,0.3-4.8-4.6-5.6c-6.7-1.1-7-1.6-4.7-6.3c1.1-2.3,3-6.6,4.1-9.7
	c2.5-7,8.5-13,12.1-12.1c6,1.5,6.6,1.2,9.6-4.3c4.6-8.6,3.6-11.8-3.3-10.2c-3,0.6-5.5,0.4-11.2-0.8c-4-0.9-7.5-1.9-7.9-2.4
	c-0.4-0.4-1.4-2.5-2.3-4.6l-1.7-3.8l2.2-1.7c3.8-3,5.7-3,9.3-0.2c2.8,2.3,4.4,2.7,10.4,3.3c8.2,0.8,8.1,0.9,10.9-7.6
	c1.1-3.3,2.2-5.9,2.5-5.9c1.8,0,20.2,8.1,22.4,9.8c2.1,1.7,2.6,2.8,3,6.9c0.4,4.9,0.4,4.9-4,9.8c-4.5,4.9-8.1,10.8-8.1,13.2
	c0,0.8,2.1,1.8,5.7,2.8c3.2,0.9,5.7,1.8,5.7,1.9c0,0.3-0.9,1.9-1.8,3.8c-2.3,4-3.2,4-14.6-0.2c-8.1-3-10.2-2.7-12.9,1.3
	c-1.3,2.1-1.3,2.6,0.8,9.1c2.3,7.3,1.8,8.6-2,6.5c-2.5-1.4-9.4-1.1-11,0.4c-0.7,0.7-1.6,3.1-1.9,5.3c-0.3,2.2-1.1,4.6-1.8,5.3
	C373.7,700.4,370.8,700.4,370.2,698.7z"/>
<path class="st0" d="M363.4,724c-4.2-2.6-5.3-3-6.6-2.1c-4.6,3.3-5.3,3.3-8.9-0.3c-2.8-2.6-3.6-4.2-4-7.7
	c-1.1-7.1-5.8-10.2-12.2-7.7c-2.5,1-2.3,1.1-8.7-6.5l-2.2-2.6l-7.3,1.5c-4,0.9-7.8,1.6-8.4,1.6c-0.6,0-1.5-1.6-2-3.4
	c-0.4-1.9-1.6-4.3-2.5-5.4c-1.4-1.7-1.8-1.8-3.5-0.9c-1.1,0.5-2.3,0.8-2.7,0.5c-0.4-0.3-1.4-4.1-2.3-8.6c-0.9-4.5-1.9-8.8-2.3-9.6
	c-0.4-0.9-2.5-2.3-4.7-3.3c-3.9-1.8-3.9-1.8-3.9-6.1c0-5.7-0.9-6.4-7.4-5.7l-5.4,0.4l-0.5-2.8c-0.9-4.1-1-4,2.9-5.2
	c2.1-0.6,4.3-2.1,5.5-3.8c1.2-1.7,4.6-3.9,8.9-6c6-2.9,8-4.3,14.3-11.2c3.9-4.4,7.2-8.7,7.2-9.6c0-1,1.2,0.2,3.1,3
	c2.8,4.1,3.1,5.1,3.2,11c0,5.5,0.5,7.7,4.2,16.9c3.9,9.5,4.1,10.7,3.4,14.4c-1.1,5.7-0.5,6.6,3.7,6.1c1.9-0.3,3.7-0.2,3.9,0.3
	c0.7,1.1-1.1,5.4-2.8,6.6c-1.3,1-1.2,1.3,0.4,4c1.7,2.8,1.8,3.3,0.6,5.5c-2.2,4.1-1.7,5.4,2,6.1c5,0.9,7.9,0.7,9.8-0.5
	c1.5-0.9,2.2-0.6,5.2,2.4c4.1,4,5.4,3.8,8-1.2c1-1.9,2.5-3.5,3.2-3.5c3.5,0,12.5,2.1,12.5,3c0,0.5-0.6,2.8-1.5,5.1l-1.5,4.1l4.9,7.3
	c7.5,11.3,7.3,10.6,4.1,14.2c-1.5,1.8-3.2,3.2-3.7,3.1C368.9,727.2,366.2,725.8,363.4,724z"/>
<path class="st0" d="M218.4,663.4c-0.4-0.9-1.1-3-1.5-4.7c-0.4-1.8-2-6.8-3.8-11.2c-2.7-7.1-3.4-8.3-5.5-8.7c-1.5-0.3-3-1.6-4.2-3.9
	c-1.4-2.5-2.6-3.5-4.7-4l-2.9-0.5l0.1-7.6c0-4.9-0.4-8.3-1.1-9.1c-0.6-0.7-4.1-2-7.8-3c-6-1.5-6.8-1.9-8.1-4.5
	c-1.1-2.3-1.1-3.3-0.4-4.9c0.5-1.1,1.1-3.5,1.2-5.4c0.3-3.4,0.4-3.6,6.8-6.9c3.6-1.8,7-3.3,7.5-3.3c0.4,0,2.5,1.6,4.4,3.6
	c1.8,1.9,6.1,6,9.4,8.9c5.4,4.8,6.7,5.5,13.7,7.4c6,1.6,8.5,2.8,11.1,5.1c1.8,1.8,5.1,3.8,7.3,4.5c2.3,0.8,4.6,1.8,5.3,2
	c3.4,1.8,17.1,31.8,15,33.1c-1.1,0.7-18.9,3.7-26.5,4.5c-6.5,0.6-8.3,1.9-9.9,6.8C222.8,664.9,219.7,665.9,218.4,663.4z"/>
<path class="st0" d="M261.2,642.8c-1.8-5.7-8.4-19.4-10.9-22.5c-0.7-0.9-0.3-1.3,1.1-1.7c1.8-0.5,1.9-0.8,1.3-6.7
	c-0.7-7.5-0.5-7.6,8-7.6c5.9,0,6.4,0.2,10.9,3.5c2.6,1.9,4.9,3.5,5.1,3.5c0.2,0,2.4-1.8,4.9-4l4.6-4l1.9,2.6
	c2.2,3.1,3.6,3.3,5.8,0.9c2-2.3,3.2-2.3,5.9,0.3c1.4,1.3,2.5,3.8,3.3,7.4l1.1,5.4l-6.5,7.3c-7.7,8.6-6.8,7.9-13.9,11
	c-3.5,1.5-7.1,3.9-9.3,6.2c-2.3,2.3-4.5,3.8-5.7,3.8c-1.1,0-2.9,0.2-3.9,0.4C263.5,649.1,263,648.4,261.2,642.8z"/>
<path class="st0" d="M311.1,620c-2-2.9-3.9-5-4.4-4.7c-0.7,0.4-2.6-4.7-2.6-7.2c0-1.1-5.5-5.5-7-5.5c-0.6,0-2.1,0.8-3.3,1.8
	l-2.4,1.8l-1.9-2.5c-1.1-1.4-2-2.9-2-3.4c0-0.5-1-1.8-2-2.9c-1.1-1.1-2.5-3.5-3.2-5.4c-0.9-3.1-1.3-3.4-3.9-3.4
	c-3.2-0.1-4.1-0.5-6.1-3.7c-1.2-2-2.2-2.5-6-2.6c-3.2-0.2-4.7-0.7-4.9-1.6c-0.2-1,0.5-1.4,2.2-1.4c1.4,0,4.4-0.1,6.7-0.2l4.3-0.2
	l-0.4-3.7l-0.3-3.7l4.8-1.6c2.6-0.9,8.4-2.7,12.9-4.1l8-2.5l3.2,2.1c2.1,1.5,3.8,1.9,5.3,1.6c2.3-0.5,2.5-0.2,4.6,11.4
	c0.7,3.9,3.5,10.7,4.6,11.4c0.4,0.3,4.2-0.7,8.4-2.1c4.2-1.5,8.1-2.4,8.4-2.2c1.6,1,0.7,4-1.8,6.9c-3.2,3.7-3.2,4.7-0.4,5.4
	c2.8,0.7,5.1,4.9,3.1,5.6c-0.7,0.3-3.7,1.3-6.6,2.3l-5.3,1.8l-0.4,4c-0.4,2.6-1.6,5.8-3.8,9.1c-1.8,2.6-3.4,4.9-3.7,4.9
	C314.9,625.4,313,623,311.1,620z"/>
<path class="st0" d="M371.1,608.8c-0.5-0.4-2.3-2.8-3.9-5.4c-1.6-2.7-3-4.9-3.1-5.1c-0.2-0.1-2.4-0.6-5-1.1
	c-3.7-0.7-5.3-1.6-7.2-3.8c-2.2-2.5-5.3-8.5-4.8-9.1c0.2-0.1,1.8-0.8,3.6-1.6c1.8-0.7,3.2-1.8,3.2-2.5c0-0.6,1.6-4.5,3.5-8.4
	c2.2-4.6,3.5-8.5,3.5-10.6c0-5.3,1-8.6,3.1-10.8c1.1-1.1,2.5-3.2,3.2-4.6c1.2-2.3,1.2-3,0.1-6.2c-1.1-3.4-1.1-3.6,0.8-5.2
	c3.3-2.6,9.2-8.3,9.9-9.3c0.3-0.5-1.7-3.3-4.4-6.1c-4.8-5.2-4.9-5.3-4.6-9.9c0.3-4.5,0.4-4.7,2.8-5c1.4-0.1,3.9,0,5.5,0.3
	c2.5,0.5,3.3,1.3,4.9,4.7c1.9,4,2.1,4.1,9.2,6.2l7.2,2.1l8.8-1.6c9.7-1.8,11-1.7,23,2.7c3.7,1.3,6.7,3,6.7,3.6
	c0,0.6-0.8,2.6-1.8,4.4c-1,1.8-1.8,4.3-1.8,5.6c0,4-12.7,18.4-18,20.1l-3.2,1.1l0.4,4.1c0.3,2.3,1.1,5.5,2,7.3
	c1.4,3,1.4,3.3,0.1,5.4c-0.8,1.2-1.5,3.3-1.5,4.8c0,2.4-0.4,2.7-5,4.4c-5.6,2.1-7.3,3.7-7.3,6.9c0,2.1-0.1,2.1-5.3,1.6l-5.2-0.6
	l-2.2,4.4l-2.3,4.4l-5,0.3l-5.1,0.3l-1.3,6.1C373.8,608.8,372.9,610.2,371.1,608.8z"/>
<path class="st0" d="M222.8,603.6c-8-2.3-8.5-2.6-16.4-9.8c-4.5-4.1-8.4-8.1-8.7-8.7c-0.4-0.7,0.1-1.7,0.8-2.2
	c1.1-0.9,1.3-2.8,1.1-11.5l-0.3-10.5l2.4-0.9c3.4-1.2,13.1,5.2,17,11.4c3.6,5.5,4,5.9,6.1,4.3c1.4-1,2.3-0.9,6.5,1
	c7.3,3.3,7.6,3.9,8.1,13.8l0.4,8.5l-4,3.5c-2.2,1.9-4.2,3.4-4.5,3.4S227.2,604.8,222.8,603.6z"/>
<path class="st0" d="M334.6,593.5c1.5-1.6,1.9-3.2,1.9-6.6c0-5.5-0.1-5.5-10.3-2.2c-7.2,2.4-7.4,2.4-8.6,0.7c-1.7-2.3-1.6-4,0.6-9.7
	c1.2-3.4,2.3-4.8,3.4-4.8c2.2,0,3.2-1.6,3.9-6.2c0.9-5.4,1.2-5.7,5.2-5.7c3.3,0,3.6-0.3,7.5-6.6c4.8-7.6,4.4-7.5,14-2.8l6.6,3.3
	l-0.3,6.2c-0.2,3.9-0.8,7.1-1.8,8.8c-0.9,1.4-2.5,4.7-3.5,7.5c-1.7,4-2.5,5-5.5,6.3c-3.2,1.3-3.5,1.8-3,3.5c1.7,5.2,1.2,6.2-4.4,8.3
	C333.6,596.1,332.1,596.1,334.6,593.5z"/>
<path class="st0" d="M233.3,575c-5.4-2.6-7.5-3.3-8.2-2.5c-1.7,1.6-2.1,1.3-4.6-3c-1.6-2.7-4.2-5.3-8.3-8l-6.1-4l3.3-3.6
	c1.8-2,4.6-5.2,6.3-7c4.5-4.9,5.5-5.3,10.6-3.6l4.3,1.4v6.2c0,5.2,0.4,6.8,2.7,10.9c1.5,2.6,3,5,3.4,5.2c0.4,0.3,3.5-1,6.9-2.6
	c3.5-1.7,6.5-3,6.7-3c0.2,0,1.1,1.6,2.1,3.5l1.8,3.5l-2.6,5.3l-2.6,5.3l-4.2-0.1C241.7,578.6,238.5,577.6,233.3,575z"/>
<path class="st0" d="M257.5,575.3c-2.5-2.1-2.7-2.5-1.9-5c0.6-1.6,0.6-3.2,0.2-3.9c-1.3-2.1-0.9-3,2.1-4.3c2.5-1.2,2.8-1.8,3.1-5.9
	c0.3-4.5,0.4-4.7,3.3-5.2c1.7-0.4,5.2,0,8,0.7l5.1,1.2l1.6,4.7c0.8,2.6,1.8,5.4,2,6.3c0.3,1.1-0.7,2.1-4.6,4
	c-4.8,2.3-5.1,2.6-4.8,5.3c0.3,3.3-0.1,3.4-6.6,4C261,577.6,260,577.3,257.5,575.3z"/>
<path class="st0" d="M314.3,575.1c-0.3-0.6-1.5-7.3-2.8-14.7c-1.4-7.5-3-14.1-3.5-14.6c-1.1-1.1-14.9-4.5-16.9-4
	c-0.7,0.1-2.4,1.1-3.7,2c-1.4,1.1-2.6,1.7-2.8,1.5c-0.2-0.2-0.6-2.2-0.9-4.4c-0.4-3.6-0.3-4.2,2.6-7.2c1.8-2,3.6-3.2,4.6-2.9
	c0.8,0.2,2.4,0.6,3.4,1c1.5,0.4,3.1-0.1,5.5-1.8c1.8-1.3,3.4-2.7,3.4-3.1c0-0.4-2.1-2.5-4.7-4.5c-2.6-2.1-4.8-4.2-4.8-4.8
	c-0.1-0.5,1.8-2.2,4.1-3.7c3.8-2.5,5-2.7,10.5-2.7h6.3v-5.6c0-4.7,0.4-5.8,2.2-7.6c1.2-1.1,2.2-2.6,2.2-3.3c0-0.7,0.9-2.9,1.8-4.9
	c1.5-2.8,1.7-4,0.9-5.2c-0.9-1.4-0.3-1.9,5.2-4.7c3.3-1.7,6.5-3.1,6.9-3.1c0.4,0,1.5,1.1,2.3,2.4c1.5,2.2,1.5,2.6,0.1,8.1
	c-1.1,4.2-2.4,6.7-4.7,9.1l-3.2,3.3l1,4.6c1.8,8.5,3.9,14.8,5,14.8c0.6,0,3.2-1.8,5.7-4c2.5-2.2,4.6-4,4.7-4c0.1,0,3.2,0.8,6.7,1.8
	c3.6,1,8.6,1.8,11,1.8c4.2,0.1,4.6,0.3,8.8,5l4.4,4.9l-6.1,5.6l-6,5.6l1.4,3.9c1.4,3.8,1.4,3.8-1.2,7.4c-1.4,1.9-2.8,3.6-3,3.6
	c-0.3,0-2.3-1-4.6-2.2c-7.6-3.9-13.4-5.8-14.6-4.7c-0.6,0.4-2.7,3.6-4.6,6.9c-3.6,6-3.7,6.1-7.7,6.3l-4.2,0.3l-1.1,5.4
	c-1,4.3-1.6,5.5-2.8,5.5c-1.9,0-3.2,1.4-3.9,4.6C316.1,575.6,314.8,576.8,314.3,575.1z"/>
<path class="st0" d="M283.7,565c-0.2-0.4-1.3-3.8-2.4-7.6c-1.2-4.2-2.5-6.9-3.4-7.1c-0.8-0.3-3.7-0.9-6.5-1.4l-5.1-1.1l0.3-4.9
	l0.3-4.8l3.9-1.1c3.3-1.1,4.2-1,5.9,0.1c1.1,0.7,2.5,1.3,3.2,1.3c0.9,0,1.5,1.6,1.8,5.3c0.7,6.2,1.5,6.4,6.7,2.7l3.5-2.5l7.2,1.7
	c3.9,1,7.4,1.8,7.4,2c0.2,0.1,0.9,3.5,1.6,7.6c1.1,6.5,1.1,7.6,0,8.7c-1.1,1.1-1.6,1.1-3.8-0.6c-1.4-1-3.1-1.9-3.8-2.1
	c-1.1-0.2-10.7,2.5-15.2,4.2C284.7,565.5,283.9,565.4,283.7,565z"/>
<path class="st0" d="M234.9,559.6c-1.4-2.8-2.3-6.2-2.6-10.7l-0.4-6.5l-5.3-1.6c-5.3-1.6-8.9-4.7-8-7.2c0.3-0.5,6-3.5,12.9-6.7
	c9.7-4.5,12.7-6.2,13.7-8.2c1.5-2.7,1.3-2.7,5.7-1.4c3.1,0.9,3.5,0.8,5.9-1.1c2.2-1.8,3.9-2.3,10-2.7c4.1-0.3,8.2-1,9.3-1.7
	c1.8-1.1,2.4-0.9,6,1.1c2.2,1.2,7.1,4.7,11,7.8c6.8,5.4,6.9,5.6,5.4,7.3c-1.5,1.6-4.6,1.7-8.5,0.2c-0.7-0.3-3.1,1.5-5.3,4l-4.1,4.4
	l-2.4-1.8c-2.2-1.7-2.5-1.7-8-0.2l-5.7,1.6l-0.3,6c-0.3,5.7-0.4,6-2.8,6.9c-2.5,0.9-2.6,1.2-2.6,5.5c0,4-0.3,4.7-2.3,5.8
	c-2,1.1-2.4,1.1-3.4-0.3c-1.4-2-2-1.9-8.5,1.1c-3,1.4-6,2.6-6.4,2.6C237.4,563.9,236,561.9,234.9,559.6z"/>
<path class="st0" d="M118.8,589.1c-0.6-0.7-1.5-5.7-2.1-11c-0.5-5.4-1.4-10.1-1.8-10.5c-0.5-0.4-2.7-1.5-5-2.4
	c-3.4-1.2-4.7-2.5-7.2-6.5c-2.8-4.6-2.9-5-2-8.3c0.5-1.9,1.5-3.6,2.1-3.8c1.7-0.7,8,2,12.3,5.3c2.7,2.1,4.9,3.2,6.8,3.2
	c2.3,0,3.3,0.7,5.8,3.8c2.8,3.5,3.1,4.3,3.1,9.5c-0.1,8.5-1.1,11.8-5.2,16.6C121.2,590.3,120.1,590.8,118.8,589.1z"/>
<path class="st0" d="M110.7,516.8c-1-0.6-1-1.4-0.1-4.4c1.6-5.7,0.9-6.5-5.6-6.5h-5.6l-0.6-4.6c-0.5-4.1-0.9-4.7-3.6-6
	c-1.7-0.8-3.1-2-3.1-2.7c0-1.5,6.8-11.9,7.8-11.9c0.4,0,1,0.8,1.3,1.7c0.9,2.8,12.6,5.6,14.9,3.6c0.8-0.7,4.7-1.4,9.2-1.7
	c7.2-0.5,7.7-0.4,8.1,1.4c1,3.6,0.4,6.2-1.7,9.3c-2.8,3.6-4.4,10.6-2.9,12.4c0.8,1,0.6,1.3-0.8,1.3c-1,0-3.2,1.8-5.4,4.5
	c-3.3,4.1-4,4.5-7.2,4.5C113.5,517.6,111.4,517.3,110.7,516.8z"/>
<path class="st0" d="M129.5,556.7c-2.1-2.7-3.5-3.6-6.4-4c-2.2-0.4-5.4-1.9-8-3.9c-2.3-1.7-5.9-3.6-7.9-4.3c-3-0.9-3.7-1.5-3.7-3
	c0-1.1-0.8-4.3-1.7-7c-2.2-6.6-2.2-6.9,1.3-8.5c1.6-0.8,3.6-2.7,4.3-4.2c1.4-2.7,1.6-2.8,5.8-2.3c4.1,0.4,4.7,0.9,9,5.6
	c6.4,7.1,7,8.1,8,13.6c0.8,4.3,1.5,5.6,5.6,9.6c2.6,2.6,4.6,5.1,4.6,5.6c0,0.4-1,1.5-2.3,2.3C131.6,560.5,132.4,560.4,129.5,556.7z"
	/>
<path class="st0" d="M118,482.5c-2.6-1.5-1.9-11.5,1.5-22.4c2.8-8.7,3.4-9.9,8.3-14.9c5.2-5.3,5.3-5.3,8.3-4.3
	c2.5,0.9,4.1,2.7,8.1,9.6l5.1,8.5h6.5h6.5l3.5,4.6c1.9,2.5,3.5,4.9,3.5,5.3c0,1-5.2,11-6.5,12.4c-0.7,0.7-4.5,1.4-10,1.7l-8.9,0.6
	l-2.2-2.6l-2.2-2.6l-4.2,2C130.7,482.7,120.3,483.9,118,482.5z"/>
<path class="st0" d="M205.3,477.1c-1.6-1.5-4.6-2.4-10.5-3.5c-7.5-1.4-8.3-1.7-10.6-4.6c-2.3-3-2.6-3-6.3-2.4
	c-2.2,0.3-4.4,0.7-4.9,1c-0.6,0.2-2.9-2-5.1-4.9l-4.1-5.2H158c-3.3-0.1-6.3-0.3-6.8-0.7c-1.3-0.9-9-13.4-9-14.6
	c0-0.6,1.2-1.6,2.6-2.1c3.2-1.4,3.9-2.6,4.8-8.2c1-7.4,3.2-9.4,5.8-5.5c1,1.5,3.3,2.3,9.9,3.7c4.7,1,9.8,2.4,11.4,3
	c2.4,1,3.3,1,8.6-1.3l5.8-2.5l5,5.4c4.3,4.7,5.3,5.3,6.8,4.5c2.6-1.4,4.1-1.1,8.5,1.7c3,1.9,5.1,2.6,8.1,2.6c3.6,0,4.2,0.3,4.6,2.1
	c0.8,3.1-0.8,6.3-5.4,10.8c-5.1,4.9-8.1,12.2-6.3,15c1,1.6,0.8,2.2-1.2,4.7c-1.2,1.6-2.5,3-2.9,3
	C207.8,479.1,206.5,478.2,205.3,477.1z"/>
<path class="st0" d="M131.6,603.9c-2.2-1.4-4.3-2.5-4.9-2.6c-0.7,0-4.2-5-5.6-7.9c-0.1-0.3,2.1-3.1,5-6.3c5.7-6.3,7.2-10.2,7.2-19.7
	v-5.1l5-3.3c5.6-3.7,8.7-3.7,10.1,0c0.4,1.2,1.2,2.2,1.8,2.2c0.5,0,1.7,1.7,2.7,3.8c1.2,2.9,2.5,4.3,4.7,5.1
	c3.2,1.3,5.9,4.4,5.9,6.6c0,0.8,2.8,4.3,6.2,7.9c5.6,5.9,6.2,6.9,6.2,10.2c0,4.5-1.4,4.9-6,1.4c-2.8-2.1-3.4-2.3-9.6-1.7
	c-3.6,0.3-6.8,0.7-7.1,0.9c-0.3,0.3-0.7,1.8-1.1,3.4c-0.5,2.5-1.2,3.1-5.7,4.9C138.4,606.8,136.2,606.9,131.6,603.9z"/>
<path class="st0" d="M134.8,506.7c-4.1-1.4-4.3-1.5-3.8-4.1c0.3-1.5,1.7-4.3,3.1-6.3c2.4-3.3,2.6-4,2.2-8.5c-0.5-4.2-0.3-4.9,1-5.4
	c1-0.4,2.4,0.1,3.9,1.5c2.2,2.1,2.6,2.2,10.6,1.7c4.5-0.3,9.2-0.6,10.4-0.8c1.7-0.3,2.5,0.3,3.7,2.1c0.9,1.4,2.1,2.5,2.8,2.5
	c1.9,0,4,3.4,4,6.6c0,2.1-0.7,3.5-2.7,5.3c-3.1,2.8-5,3-10.6,1.1l-4-1.4l-5.7,3.5C143.6,508.5,141.5,508.8,134.8,506.7z"/>
<path class="st0" d="M159.3,567.9c-2.1-1.1-3.4-2.6-4.1-4.7c-0.5-1.7-1.5-3.4-2-3.7c-0.6-0.3-1.7-1.7-2.5-3
	c-0.9-1.3-2.7-2.5-4.1-2.9c-1.5-0.3-3.7-2-5.2-3.8l-2.6-3.1l3-0.3c2.6-0.3,3.6-1,6.6-5.2c1.9-2.8,3.8-5.3,4.2-5.8
	c0.3-0.4,1.6,0.3,2.8,1.7l2.1,2.4l3.8-1.6c2.1-0.8,4.2-1.7,4.7-1.9c0.9-0.3,9.8,10.5,9.8,11.8c0,0.3-2.1,2.1-4.7,4l-4.7,3.5l0.2,6.4
	c0.3,6.3,0.2,6.5-2,7.1C163.2,569.3,161.3,569,159.3,567.9z"/>
<path class="st0" d="M133.9,542.4c-0.4-0.6-1.2-3.5-1.8-6.3c-0.9-4.3-1.8-5.9-6.3-10.8c-3-3.3-5-6-4.6-6.6c2.2-4.1,5.7-7.5,6.9-7
	c0.8,0.3,1.8-0.1,2.5-1c1-1.4,1.6-1.4,7.2-0.3l6,1.1l0.5,4.3c0.4,2.9,1.5,5.2,3.1,7.1c3.8,4.4,3.5,9.3-0.8,15.4
	c-3.1,4.6-3.4,4.8-7.7,5.1C136.1,543.5,134.4,543.1,133.9,542.4z"/>
<path class="st0" d="M199.7,552.2c-2.8-2.8-2.9-2.8-7-1.7c-2.9,0.8-4.4,0.9-4.5,0.2c-0.7-2.1-3.1-3.6-5.8-3.6
	c-3.7-0.1-4.1-0.4-9-6.7c-4.5-5.8-4.7-6.4-2.8-7.1c0.7-0.3,2.3-2.5,3.6-5c1.4-2.9,2.9-4.7,4.3-4.9c4.7-1.2,20.9-4,22.6-4
	c1.9,0,9.1,8.4,14.1,16.4l2.6,4.3l-6.6,7c-3.7,4-7,7.3-7.7,7.6C202.9,554.9,201.2,553.8,199.7,552.2z"/>
<path class="st0" d="M155.7,534.3c-0.8-1.4-1.8-2.6-2.2-2.6c-0.5,0-0.7-1.4-0.7-3.1c0-2.2-0.8-4-2.8-6.2c-2.4-2.8-2.9-3.9-3-8.3
	l-0.1-5l4.1-2.5l4.1-2.5l5.4,1.5c5.3,1.4,5.4,1.4,8.7-0.4l3.4-2l2.5,5.6c2.9,6.4,2.9,6.6,1.1,11c-5.4,12.7-5.1,12.4-13.8,15.3
	l-5.2,1.8L155.7,534.3z"/>
<path class="st0" d="M210.3,526.1c-6.5-8.1-6.2-7-3.6-12.9l2.3-5.2l-3.2-2.9c-4.6-4.1-5.1-6.1-3.3-12.5c0.8-3,1.8-5.5,2-5.5
	c0.3,0,1.7,1.4,3.1,3.1c2.4,3,2.7,3,6.2,2.5c4.5-0.6,5.8,0.5,3.4,3.1c-1.5,1.6-1.5,1.9-0.3,4.1c0.7,1.3,2.6,2.8,4.2,3.3
	c3.9,1.2,17.1,15.9,15.6,17.4c-0.9,0.9-21.1,9.9-22,9.8C214.3,530.5,212.3,528.5,210.3,526.1z"/>
<g>
	<path class="st1" d="M184.4,482.6c-0.3-1-0.5-3.1-0.5-4.6c0-2.6,0.3-2.8,3.9-3.4c5-0.7,5.8-0.2,5.8,4c0,3.8-0.2,3.9-5,5
		C185.2,484.4,184.9,484.3,184.4,482.6z"/>
</g>
<path class="st0" d="M578,662.3c-0.1,0-0.2,0-0.2,0c-0.4,0.3-0.9,1.9-0.9,3.4c0,1.8-0.8,3.5-2.2,5l-2.3,2.5l1.8,3.1
	c2.2,3.8,1.8,4.2-6.2,6.3l-5.8,1.5l-1.9,6.8l-1.9,6.7l3,4.4c3.3,4.7,3.3,5.1,0.2,12.4l-1.4,3.4l1.9-0.4c1.1-0.3,3.9-1.1,6.3-1.7
	c3.3-1,4.2-0.9,5.1,0c0.9,0.9,0.9,1.7-0.7,4.5c-1.1,1.9-2,4.1-2,4.7s2.5,4,5.5,7.7c1.4,1.8,2.5,3,3.5,4.4c3.9-1.6,8.1-2.4,12.3-3.1
	c7-1.1,12.2-2.6,18.8-5.4l9.2-4l4.8,5.5c2.6,3,6.2,7.2,8.1,9.1l3.2,3.6l4.5-4.5l4.5-4.7l7.9-0.6c9.1-0.7,13-2.9,13-7.3
	c0-4.2-2.9-27-3.5-27.8c-0.3-0.4-3.2,0.5-6.1,2.1c-3,1.5-5.8,2.5-6.2,2.1c-0.4-0.4-1.3-4-2.1-7.9c-0.7-3.8-1.7-7.2-2-7.6
	c-0.3-0.4-3.9-0.1-8,0.4c-6.6,0.8-7.4,0.6-8.5-0.7c-0.7-1.1-3.3-1.8-7.2-2.4l-6.1-0.9l-3.1-5.1c-1.6-2.7-4.1-5.7-5.7-6.8
	C604.7,669,580.6,662,578,662.3z"/>
<path class="st0" d="M648.8,690.4l-1.3-7.2h-8.3c-5.1,0-8.8-0.4-9.6-1.1c-0.7-0.5-3.8-1.3-6.7-1.7c-6-0.7-6-0.7-9.8-6.7
	c-3.6-5.8-7.3-7.8-21.9-11.7c-7-1.8-13.1-3.6-13.8-3.9c-0.7-0.4-2.8-5-4.6-10.3c-3.3-9-3.4-9.7-2.4-14.2c0.9-3.7,2.2-6,6.8-11.5
	c5.4-6.6,5.9-6.9,9.4-7c2,0,4.1-0.5,4.6-1.2c0.5-0.6,2.7-5.8,4.9-11.5c2.1-5.7,4.1-10.5,4.3-10.8c0.2-0.2,3.9-0.1,8.4,0.3
	c7.6,0.6,8,0.8,9.3,3.2l1.3,2.5l7.2-0.6c7-0.5,7.3-0.4,13.5,2.6c3.5,1.8,6.9,3.2,7.5,3.2c0.7,0,3.9-1.8,7.3-3.9c4.6-3,6.3-3.7,7.5-3
	c0.9,0.4,1.6,1.2,1.6,1.7c0,0.5,1,1.2,2.1,1.7c1.3,0.5,2.9,2.4,3.9,4.9l1.8,4.1l-1.7,2.5c-1.7,2.4-1.7,2.7-0.5,5.1
	c1.5,2.8,2.3,3,15.7,4.2c6.9,0.5,7,0.6,10.5,4.6c6.9,7.7,7.3,8.1,10.6,8.1c2.5,0,3.2,0.4,3.9,2.2c1.3,3.4,1.2,3.5-3.4,6.5
	c-4.5,2.9-5.3,4.7-5.3,11.1c0,2.6,0.3,3,3.8,3.9c8.6,2.4,10.7,3.2,10.9,4.5c0.2,0.8-1.6,3.9-3.8,6.8c-3.4,4.7-4,6-3.6,8.3
	c0.9,5.1-0.7,6-12.8,6.9c-9.7,0.8-11.2,1.1-15.7,3.8c-2.9,1.7-7.8,3.4-11.6,4.2c-3.6,0.8-8.9,2.6-11.8,4c-2.9,1.5-5.6,2.7-6,2.7
	S649.5,694.5,648.8,690.4z"/>
<path class="st0" d="M561.2,622.6c-7.8-2.9-10.4-4.5-10.4-6.3c0-0.5-2.7-5.5-6-11l-5.9-10l-9.9-5.7c-9.1-5.2-10-5.5-10.8-4
	c-4.2,7.1-9.8,10.7-20.5,13.2c-4.6,1.1-9.6,2.7-11,3.4c-4.5,2.4-6.3,1.8-8.3-2.5c-1-2.4-1.7-5.7-1.7-8.6v-4.7l-4.8-3.2
	c-5.2-3.5-5.4-4-3.8-10.8c0.9-3.8,0.8-4.6-0.9-7.6l-1.9-3.4l1.8-8.2l1.9-8.2l-5.5-9.3c-4.8-8.2-5.9-9.5-9.4-11
	c-2.9-1.2-4.2-2.5-5.2-4.9c-2.1-5-1.7-8.5,2.6-19.4c4.1-10.3,5-11.6,13.2-17.8c2.7-2.1,3.1-3,3.1-6s0.6-4.2,3.8-7.6
	c3.7-3.9,4-4,6-2.9c2.1,1.1,2.6,0.9,8.6-3.3c3.5-2.5,7.3-4.5,8.4-4.5c1.9,0,2,0.4,2,5.5c0,4.6-0.5,6.5-2.7,10.5l-2.7,5l3.1,4.2
	l3.1,4.2l9.4,1.1c5.9,0.7,11.1,1.8,13.9,3.1c4.4,2,4.5,2.1,4.4,5.8c-0.1,3.7,0.1,3.9,4.2,6.3l4.3,2.5l6.4-1.9l6.5-1.9l4.2,3.5
	c3.8,3.2,4.2,3.9,4.6,8.2c0.3,3,1.7,7.2,3.8,11.5l3.4,6.8h5.6c5.4,0,5.8,0.1,11.5,4.7c5.4,4.3,6.6,4.8,13.6,6l7.7,1.4l6.1,6.7
	l6.1,6.6h8.4h8.5l5-4.1l5-4.1l5,5.4c4.7,5.1,5.2,5.4,8.9,5.4c2.8,0,5.2,0.8,9.1,3.1c2.9,1.8,5.9,3.5,6.6,3.9c0.8,0.4,1.2,1.6,1,3
	c-0.5,4.3,2.9,10,7.6,13c2.4,1.5,4.2,3.2,3.9,3.6c-1,1.6-12.5,8.6-14.2,8.6c-0.9,0-2.4-0.8-3.2-1.8c-0.9-1-2.1-1.8-2.7-1.8
	s-4.2,1.8-7.9,4.1l-6.6,4.1l-6.5-3.3c-6.4-3.3-6.6-3.3-13-2.8c-6.5,0.6-6.6,0.6-7.5-1.7c-0.6-1.2-1.9-2.5-2.9-2.6
	c-3.7-0.7-17.8-1.2-18.6-0.6c-0.5,0.4-2.5,4.8-4.5,9.9c-4.9,13-4.9,13-8.8,13c-3.1,0-3.8,0.4-8.8,6.5c-3.1,3.7-6.2,6.6-6.9,6.6
	C569.4,625.4,565.3,624,561.2,622.6z"/>
<path class="st0" d="M343.9,343.8c-5.5-2.3-7.2-3.9-12.1-10.7c-5-7-8.7-17.4-10.6-29.5c-1.4-8.8-1.7-9.9-3.4-10.1
	c-1.3-0.2-2.9,1-5.5,4.1c-2.6,3.1-4.4,4.5-5.9,4.5c-2.8,0-3.3-1.6-1.7-5.5c1.2-3.1,1.2-3.2-1.1-5.2c-1.3-1.1-3.9-3.1-5.7-4.2
	c-3.5-2.4-3.8-3.2-2.2-6.6c1-2.4,1.3-2.5,9-4c7-1.3,8.8-2.6,9.5-6.7c2.2-12.6,3.2-15.8,5.6-16.9c8.6-3.9,11.4-4.5,21.9-3.5
	c15.5,1.4,15.8,1.5,15.8,3.9c0,1.8-0.4,2.2-2.6,2.2c-1.5,0-2.9,0.5-3.1,1.2c-0.9,2.2,2.2,11,6.7,19.8c4.1,7.8,4.5,8.9,5.7,19.3
	c0.7,6,2.1,13.2,3.1,16.1c2,6.2,2,10.4,0.1,22l-1.5,8.8l-5.2,1.4C353.6,346.2,349.3,346.1,343.9,343.8z"/>
<path class="st0" d="M183.4,495c-0.3-1-0.5-3.1-0.5-4.6c0-2.6,0.3-2.8,3.9-3.4c5-0.7,5.8-0.2,5.8,4c0,3.8-0.2,3.9-5,5
	C184.2,496.8,183.8,496.7,183.4,495z"/>
<path class="st0" d="M178,518.9c-0.2-0.3,0.2-1.6,0.8-3.1c1-2.5,0.9-3.2-1.9-9.3c-2.5-5.6-3-7.1-2.4-10.6c0.6-4.8-1.6-10.2-4-10.2
	c-0.8,0-2.4-1.4-3.4-3l-1.8-3l2.9-5.2c2.4-4.3,3.4-5.4,5.9-6.1c5-1.4,6.7-1,9,1.8c1.9,2.4,3.1,2.9,10.7,4.3
	c10.9,2.1,17,6.3,10.9,7.7c-1.6,0.3-2.4,1.7-4,6.4c-1.8,5.2-1.9,6.4-1,9.4c0.5,1.8,2.1,4.3,3.5,5.5c2.9,2.3,3,3.1,0.8,7.8
	c-1.6,3.5-1.7,3.6-8,4.7c-3.6,0.6-8.9,1.6-11.9,2.3C180.9,518.8,178.3,519.1,178,518.9z M188.9,498.8l5.7-1.6l0.3-4.7
	c0.4-6.9-0.6-7.7-8.1-7l-6.1,0.6l0.3,6.1c0.3,6.4,0.6,8.2,1.7,8.2C182.9,500.4,185.7,499.7,188.9,498.8z"/>
<path class="st0" d="M234,608c0,0.9,10.1,5.7,15.1,8l1.2-11.5c0.4-1.1,1.6-3.4,3.5-3.4c1.9,0,10.9,0.8,15.1,1.1l7,5.7l8.1-5.7
	l-5.8-10.3h-3.5l-5.8-6.9h-10.5v-3.4l-4.7-4.6l-3.5,4.6l-8.1,1.1l1.2,19.5C240.2,603.7,234,607,234,608z"/>
<path class="st0" d="M348.1,593l-11.9,4.8l2.4,3.6l-1.2,4.8l-11.9,3.6l-1.2,8.4l-8.3,13.2l1.2,10.8l7.1,18l-1.2,7.2h5.9l2.4,4.8
	l-2.4,9.6c0.4,1.6,0.9,5.3,0,7.2c-1.2,2.4,3.6,2.4,4.8,2.4c0.9,0,5.9-1.6,8.3-2.4l5.9,4.8l5.9-7.2l2.4-2.4
	c1.9-6.7,11.1-21.2,15.4-27.7l9.5,2.4l2.4-9.6c-1.6,0.4-5.2,1.2-7.1,1.2c-1.9,0-11.9-4-16.6-6l-3.6-12c2.4-2.4,8.1-7,11.9-6
	c4.8,1.2,9.5,6,13.1,7.2c2.8,1,5.9-0.4,7.1-1.2l3.6-12l-3.6,1.2l-14.3-8.4h-3.6l-8.3-12l-9.5-3.6L348.1,593z"/>
<path class="st0" d="M4.2,617.4L0,604.5c4.2-1,13.1-3.4,15.4-5.7c2.8-2.9-5.6-8.6-2.8-11.4c2.8-2.9-4.2-7.1-2.8-10
	c1.4-2.9,16.8,10,19.5,12.8c2.8,2.9,9.8,10,4.2,11.4c-5.6,1.4-1.4,15.7-4.2,18.6c-2.8,2.9,7,7.1,11.2,10c4.2,2.9-1.4,8.6-4.2,11.4
	c-2.8,2.9-5.6-12.8-9.8-14.3c-4.2-1.4-9.8-4.3-11.2-7.1C14.2,617.9,7.4,616.4,4.2,617.4z"/>
</svg>
