<svg width="40" height="39" viewBox="0 0 40 39" fill="none" xmlns="http://www.w3.org/2000/svg">
<path fill-rule="evenodd" clip-rule="evenodd" d="M3.62861 34.8489H23.6286L26.3924 22.072L30.4618 18.6696L27.0047 34.6518C26.7742 35.6374 26.2297 36.5215 25.4532 37.1708C24.6767 37.8201 23.7101 38.1995 22.6993 38.2518H3.08611C2.64373 38.2647 2.20464 38.1721 1.80514 37.9816C1.40564 37.7912 1.05722 37.5084 0.788685 37.1566C0.52015 36.8048 0.339218 36.3942 0.260853 35.9586C0.182488 35.523 0.208941 35.0751 0.338025 34.6518L6.87636 4.42509C7.10685 3.43945 7.65138 2.55539 8.42792 1.90609C9.20447 1.25679 10.171 0.877407 11.1819 0.825091H30.795C31.2268 0.811561 31.6558 0.899103 32.0478 1.08074C32.4398 1.26237 32.7839 1.53307 33.0528 1.87126L30.2348 4.22734H24.6441L23.2001 5.92851H16.5691L15.8608 4.22734H10.2524L3.62861 34.8489ZM9.91246 16.4018L12.79 13.996L17.6166 20.1368L37.6941 3.54429L39.53 5.95013L16.5758 24.9493L9.91246 16.4018Z" fill="#00965E"/>
</svg>
