<svg width="172" height="37" viewBox="0 0 172 37" fill="none" xmlns="http://www.w3.org/2000/svg">
<path fill-rule="evenodd" clip-rule="evenodd" d="M19.7633 36.9999H0.77832V0.00376542H165.386C172.846 -0.254249 174.91 12.83 165.386 13.8485H19.7633V36.9999ZM19.7631 8.63086V5.19391C19.7631 5.19391 144.573 5.13141 144.828 5.19391C146.503 5.63966 146.63 7.99338 144.828 8.63086H19.7631Z" fill="black"/>
<path d="M26.2565 36.9997H37.1335V16.943H26.2565V36.9997Z" fill="black"/>
<path fill-rule="evenodd" clip-rule="evenodd" d="M43.5839 37H54.5283V30.8537H57.2142L60.568 37H73.6409L68.8033 30.3454C74.2853 27.6721 73.8337 16.6248 65.473 16.9435H43.5839V37ZM54.5283 25.7621V22.034H58.7617C62.7001 22.034 62.7638 25.7621 58.8274 25.7621H54.5283Z" fill="black"/>
<path d="M78.3893 16.943V36.9995H102.149V31.9324H89.5259V29.2619H100.86V24.3227H89.5955V22.0335H101.312V16.943H78.3893Z" fill="black"/>
<path d="M107.958 36.9995V16.943H119.157V31.8737H129.392V36.9995H107.958Z" fill="black"/>
<path d="M132.193 16.943V36.9995H153.623V31.8737H143.392V16.943H132.193Z" fill="black"/>
<path d="M167.729 36.9997H156.85V16.943H167.729V36.9997Z" fill="black"/>
</svg>
