<svg width="45" height="32" viewBox="0 0 45 32" fill="none" xmlns="http://www.w3.org/2000/svg">
<path fill-rule="evenodd" clip-rule="evenodd" d="M29.6562 25.9525H5.05474C4.80398 25.963 4.55433 25.9135 4.32657 25.8081C4.0988 25.7026 3.8995 25.5444 3.74524 25.3464C3.59098 25.1484 3.48622 24.9165 3.43968 24.6698C3.39314 24.4232 3.40616 24.1691 3.47765 23.9285L7.55182 5.47639C7.69033 4.91771 8.00575 4.41879 8.45102 4.05404C8.89629 3.6893 9.44755 3.47828 10.0226 3.45247H38.4747C38.7254 3.44196 38.975 3.49147 39.2028 3.59688C39.4305 3.70229 39.6298 3.86056 39.7841 4.05853C39.9384 4.25649 40.0431 4.48843 40.0897 4.73504C40.1362 4.98165 40.1232 5.23582 40.0517 5.47639L37.7873 15.7324L40.7905 17.2276L43.3852 5.47639C44.0373 2.52222 42.1648 0.119141 39.2107 0.119141H10.7586C9.23654 0.187541 7.77741 0.746124 6.59879 1.71158C5.42017 2.67703 4.58522 3.99763 4.21849 5.47639L0.144319 23.9285C-0.507931 26.8826 1.36465 29.2858 4.31874 29.2858H30.318L29.6562 25.9525ZM40.6375 31.915L44.59 29.8841L39.555 25.2758L43.87 23.6208L31.875 17.2366L34.715 31.1391L37.6333 26.8858L40.6375 31.915ZM25.0439 9.28589H21.7106L22.4464 5.95256H25.7798L25.0439 9.28589ZM34.1131 5.95256L33.3773 9.28589H36.7106L37.4464 5.95256H34.1131ZM30.8773 9.28589H27.5439L28.2798 5.95256H31.6131L30.8773 9.28589Z" fill="#00965E"/>
</svg>
