<svg width="55" height="32" viewBox="0 0 55 32" fill="none" xmlns="http://www.w3.org/2000/svg">
<path d="M51.358 0.672463H25.0779C24.0757 0.716567 23.1146 1.08396 22.3385 1.7197C21.5624 2.35543 21.013 3.22533 20.7724 4.1993L20.2632 6.5058H10.2298C9.64538 6.52665 9.07305 6.67846 8.55509 6.95003C8.03712 7.22161 7.58675 7.60601 7.23718 8.07488L2.48485 13.392C2.11445 13.8671 1.85231 14.4173 1.71676 15.0043L0.112679 22.2694C0.00567878 22.6279 -0.0140633 23.0068 0.0550987 23.3745C0.124261 23.7422 0.280323 24.0881 0.510273 24.3832C0.740223 24.6783 1.0374 24.9142 1.37702 25.0712C1.71665 25.2282 2.08888 25.3017 2.46268 25.2856H5.69085C5.57165 26.0826 5.63064 26.896 5.86359 27.6674C6.09653 28.4387 6.49762 29.1489 7.03798 29.7466C7.57834 30.3444 8.24453 30.8148 8.98857 31.1242C9.7326 31.4335 10.536 31.5741 11.3408 31.5356C13.2058 31.4505 15.0029 30.81 16.5013 29.6964C17.9998 28.5828 19.1313 27.0468 19.7507 25.2856H29.8575C29.7383 26.0826 29.7973 26.896 30.0303 27.6674C30.2632 28.4387 30.6643 29.1489 31.2046 29.7466C31.745 30.3444 32.4112 30.8148 33.1552 31.1242C33.8993 31.4335 34.7026 31.5741 35.5075 31.5356C37.3725 31.4505 39.1695 30.81 40.668 29.6964C42.1664 28.5828 43.2979 27.0468 43.9173 25.2856H45.9203C46.9225 25.2415 47.8836 24.8741 48.6596 24.2384C49.4357 23.6026 49.9852 22.7327 50.2258 21.7588L54.1058 4.1993C54.231 3.78008 54.2541 3.33703 54.1732 2.90707C54.0923 2.47712 53.9099 2.07273 53.641 1.72762C53.3721 1.38251 53.0246 1.10668 52.6275 0.923133C52.2304 0.739587 51.7951 0.653642 51.358 0.672463ZM6.8376 21.9523H3.51635L5.05201 14.9967L9.68185 9.83913H19.527L17.6698 18.2368C16.7056 17.6522 15.596 17.3514 14.4686 17.369C12.9149 17.4341 11.4023 17.8877 10.0692 18.6884C8.73607 19.4891 7.625 20.6113 6.8376 21.9523ZM12.0767 28.2023C11.6121 28.2218 11.1496 28.13 10.7276 27.9347C10.3056 27.7394 9.93637 27.4461 9.65057 27.0793C9.36476 26.7125 9.17066 26.2828 9.08441 25.8259C8.99816 25.3689 9.02225 24.898 9.15468 24.4523C9.41138 23.4172 9.99583 22.4928 10.8209 21.817C11.6459 21.1412 12.6673 20.7502 13.7327 20.7023C14.1197 20.6831 14.5066 20.7429 14.8698 20.8779C15.2331 21.0129 15.5651 21.2203 15.8457 21.4876C16.1263 21.7549 16.3496 22.0764 16.5021 22.4327C16.6545 22.7889 16.733 23.1725 16.7327 23.56L16.3517 25.2856H16.37C15.9943 26.1214 15.3941 26.8366 14.6361 27.3515C13.8781 27.8665 12.9921 28.161 12.0767 28.2023ZM36.2433 28.2023C35.7788 28.2218 35.3162 28.13 34.8943 27.9347C34.4723 27.7394 34.103 27.4461 33.8172 27.0793C33.5314 26.7125 33.3373 26.2828 33.2511 25.8259C33.1648 25.3689 33.1889 24.898 33.3213 24.4523C33.578 23.4172 34.1625 22.4928 34.9875 21.817C35.8125 21.1412 36.8339 20.7502 37.8993 20.7023C38.3639 20.6828 38.8264 20.7746 39.2484 20.9699C39.6704 21.1652 40.0397 21.4585 40.3255 21.8253C40.6113 22.1921 40.8054 22.6218 40.8916 23.0787C40.9779 23.5356 40.9538 24.0066 40.8213 24.4523C40.5646 25.4874 39.9802 26.4118 39.1552 27.0876C38.3301 27.7634 37.3087 28.1544 36.2433 28.2023ZM46.8496 21.9523H44.2425C44.0425 20.6291 43.358 19.4274 42.3218 18.5805C41.2857 17.7335 39.9718 17.3018 38.6353 17.369C37.0815 17.4341 35.5689 17.8877 34.2358 18.6884C32.9027 19.4891 31.7917 20.6113 31.0043 21.9523H20.183L24.1486 4.0058H50.8153L46.8496 21.9523Z" fill="#00965E"/>
</svg>
