<svg width="33" height="40" viewBox="0 0 33 40" fill="none" xmlns="http://www.w3.org/2000/svg">
<path fill-rule="evenodd" clip-rule="evenodd" d="M26.7558 3.61338C26.4 3.42769 26.003 3.33149 25.6002 3.33333H16.3818C12.4788 3.33333 6.52564 10.4733 4.22491 20.7191C2.47057 28.5312 3.74039 33.6191 5.36057 35.6024C5.58478 35.9315 5.88834 36.2009 6.24418 36.3866C6.60002 36.5723 6.99708 36.6685 7.39993 36.6667H16.6182C20.5216 36.6667 26.4744 29.5268 28.775 19.2815C30.5293 11.4689 29.2596 6.38083 27.6393 4.3975C27.4151 4.06844 27.1116 3.79906 26.7558 3.61338ZM16.3818 0H25.6002C31.7547 0 34.6035 8.78491 32.0852 20C29.5669 31.2151 22.7728 40 16.6182 40H7.40001C1.24532 40 -1.60349 31.2147 0.914795 20C3.43308 8.78525 10.2272 0 16.3818 0ZM14.1034 19.7675C14.6971 17.4754 14.8416 15.0844 14.5285 12.7341C13.5191 13.716 11.8721 16.6815 10.8966 21.233C10.3029 23.525 10.1584 25.9159 10.4715 28.2661C11.4809 27.2844 13.1279 24.3189 14.1034 19.7675ZM7.6754 20.5002C8.90222 14.776 11.6318 9 14.9647 9C18.2976 9 18.5512 14.7759 17.3245 20.5002C16.0978 26.2245 13.3688 32 10.0358 32C6.70275 32 6.44858 26.2244 7.6754 20.5002Z" fill="#00965E"/>
</svg>
