<svg width="50" height="46" viewBox="0 0 50 46" fill="none" xmlns="http://www.w3.org/2000/svg">
<path d="M47.8584 8.78338L31.3456 0.837676C30.8235 0.610122 30.2601 0.492676 29.6906 0.492676C29.1211 0.492676 28.5577 0.610122 28.0356 0.837676L8.01393 8.78338C7.47947 8.99519 7.0031 9.33116 6.6242 9.76353C6.24531 10.1959 5.97476 10.7122 5.83493 11.2699L0.849627 34.8506C0.712797 35.3261 0.745861 35.8344 0.943135 36.2882C1.14041 36.7419 1.48957 37.1128 1.93063 37.3371L18.9616 45.5322C19.3028 45.6809 19.671 45.7576 20.0431 45.7576C20.4153 45.7576 20.7835 45.6809 21.1246 45.5322L41.7746 37.3371C42.3091 37.1253 42.7854 36.7893 43.1643 36.3569C43.5432 35.9245 43.8138 35.4082 43.9536 34.8506L48.9396 11.2699C49.0764 10.7944 49.0433 10.286 48.846 9.83227C48.6487 9.3785 48.2995 9.00763 47.8584 8.78338ZM42.0284 10.8034L26.094 17.1266L12.9521 10.8034L28.8863 4.47988L42.0284 10.8034ZM40.1402 34.006L20.9024 41.6399L5.03573 34.006L9.26433 13.8543L23.316 20.6157C23.9494 20.8917 24.6328 21.0342 25.3237 21.0342C26.0146 21.0342 26.6981 20.8917 27.3314 20.6157L44.3688 13.8543L40.1402 34.006Z" fill="url(#business-icon)"/>
<defs>
<linearGradient id="business-icon" x1="0.783827" y1="23.1253" x2="49.0048" y2="23.1253" gradientUnits="userSpaceOnUse">
<stop offset="0.1061" stop-color="white"/>
<stop offset="0.4888" stop-color="white" stop-opacity="0.7126"/>
<stop offset="1" stop-color="white" stop-opacity="0.3"/>
</linearGradient>
</defs>
</svg>
