<svg width="57" height="40" viewBox="0 0 57 40" fill="none" xmlns="http://www.w3.org/2000/svg">
<path fill-rule="evenodd" clip-rule="evenodd" d="M53.9167 9.9165C53.9167 10.5832 53.8333 11.3332 53.6667 11.9998C53.5338 12.5978 53.348 13.1427 53.1514 13.7192C53.1014 13.8658 53.0507 14.0144 53 14.1665L54.4167 16.4998L52 19.4998L49.0833 18.9998C47.9167 19.9165 46.5 20.6665 45.0833 21.0832L43.4167 23.9165H39.9167L39.5 21.0832C38.25 20.6665 37.25 19.9165 36.4167 18.9998L33.3333 19.4998L32.25 16.4998L34.6667 14.1665C34.6667 13.4998 34.75 12.7498 34.9167 12.0832C35.0833 11.3332 35.25 10.6665 35.5833 9.99984L34.1667 7.6665L36.5833 4.58317L39.5 5.08317C40.6667 4.1665 42.0833 3.4165 43.5 2.99984L45.1667 0.166504H48.6667L49.0833 2.99984C50.3333 3.4165 51.3333 4.1665 52.1667 5.08317L55.25 4.58317L56.3333 7.58317L53.9167 9.9165ZM38.0833 11.9998C37.3333 15.4998 39.5 18.2498 42.9167 18.2498C46.3333 18.2498 49.75 15.4998 50.5 11.9998C51.25 8.49984 49.0833 5.74984 45.6667 5.74984C42.25 5.74984 38.8333 8.58317 38.0833 11.9998ZM30.7502 14.4165L28.5835 17.6665C28.9168 18.5832 29.0835 19.5832 29.1668 20.6665L32.1668 21.9165L31.2502 25.9165L27.6668 27.2499C27.1668 28.2499 26.5835 29.2499 25.8335 30.1665L26.5002 33.4165L23.0835 36.2499L20.0835 34.8332C19.0002 35.4165 17.9168 35.8332 16.8335 36.0832L14.7502 39.4165H10.7502L10.1668 36.0832C9.16683 35.7499 8.3335 35.3332 7.50016 34.8332L3.91683 36.2499L1.75016 33.4165L3.91683 30.1665C3.5835 29.2499 3.41683 28.3332 3.3335 27.2499L0.333496 25.9165L1.25016 21.9165L4.8335 20.5832C5.3335 19.5832 5.91683 18.5832 6.66683 17.6665L6.00016 14.4165L9.41683 11.5832L12.4168 12.9999C13.5002 12.4165 14.5835 11.9999 15.6668 11.7499L17.7502 8.41652H21.7502L22.3335 11.7499C23.3335 12.0832 24.1668 12.4999 25.0002 12.9999L28.5835 11.5832L30.7502 14.4165ZM6.8335 23.9999C5.66683 29.1665 9.00016 33.4165 14.1668 33.4165C19.3335 33.4165 24.5002 29.0832 25.6668 23.9165C26.8335 18.7499 23.5002 14.4999 18.3335 14.4999C13.1668 14.4999 8.00016 18.8332 6.8335 23.9999Z" fill="#00965E"/>
</svg>
