<svg width="67" height="106" viewBox="0 0 67 106" fill="none" xmlns="http://www.w3.org/2000/svg">
<path opacity="0.3" d="M4.77661 71.0036L12.3419 28.8795L51.4923 10.2544L35.6052 53.0747L56.5988 49.5934L14.8006 101.117L22.1768 65.6075L4.77661 71.0036Z" fill="#0DF8A0"/>
<path opacity="0.2" d="M0.871094 75.7267L8.43638 33.6026L47.5868 14.9775L31.6996 57.7979L52.6933 54.3165L10.8951 105.84L18.2713 70.3306L0.871094 75.7267Z" fill="#0DF8A0"/>
<g style="mix-blend-mode:overlay" opacity="0.4">
<path d="M9.03711 66.2805L16.6024 24.1564L55.7528 5.53128L39.8657 48.3516L60.8593 44.8703L19.0611 96.394L26.4373 60.8844L9.03711 66.2805Z" fill="#0DF8A0"/>
</g>
<path d="M14.4128 60.8829L21.9781 18.7588L61.1285 0.133667L45.2414 42.954L66.2351 39.4727L24.4369 90.9963L31.813 55.4868L14.4128 60.8829Z" fill="white"/>
</svg>
