<svg width="61" height="45" viewBox="0 0 61 45" fill="none" xmlns="http://www.w3.org/2000/svg">
<path fill-rule="evenodd" clip-rule="evenodd" d="M47.871 26L42 18.2685L45.9313 0L51.8018 7.73159L61 0L57.0691 18.2685L47.871 26ZM46.2617 16.6086L49.0903 20.3334L53.522 16.6086L55.0142 9.6732L50.5825 13.3982L47.754 9.6732L46.2617 16.6086ZM8.69071 40L0 28.8288L5.69353 3L14.3842 14.1713L28 3L22.3065 28.8288L8.69071 40ZM4.34048 27.1786L9.93251 34.3667L18.6936 27.1786L21.9036 12.6163L13.1427 19.8044L7.55071 12.6161L4.34048 27.1786ZM0 45H39.5552C40.4376 44.9695 41.2945 44.6961 42.0315 44.21C42.7685 43.7239 43.3569 43.044 43.7321 42.2451C44.1427 41.5747 44.2832 40.7735 44.1254 40.0035C43.9675 39.2335 43.523 38.5521 42.8817 38.0972L31.7707 31H54.1164L55 27H31.4534C30.5707 27.0305 29.7136 27.304 28.9765 27.7903C28.2393 28.2765 27.6508 28.9567 27.2756 29.7559C26.8652 30.4262 26.7248 31.2273 26.8826 31.9972C27.0405 32.7671 27.4849 33.4484 28.126 33.9033L39.237 41H0.883607L0 45Z" fill="url(#business-icon)"/>
<defs>
<linearGradient id="business-icon" x1="0.0278868" y1="22.4973" x2="60.9674" y2="22.4973" gradientUnits="userSpaceOnUse">
<stop offset="0.0838" stop-color="white"/>
<stop offset="1" stop-color="white" stop-opacity="0.3"/>
</linearGradient>
</defs>
</svg>
