<svg width="200" height="62" viewBox="0 0 200 62" fill="none" xmlns="http://www.w3.org/2000/svg">
<path d="M5.03558 7.34881C4.96502 7.42095 4.79406 7.28893 4.59413 7.13456C4.51312 7.07201 4.42722 7.00568 4.34146 6.9479C4.21969 6.90687 4.08131 6.88264 3.96032 6.86145C3.78573 6.83088 3.64734 6.80664 3.64734 6.74744C3.64734 6.74744 3.94482 6.64722 4.2423 6.64722C4.34146 6.64722 4.44062 6.67227 4.53978 6.69733C4.63894 6.72239 4.7381 6.74744 4.83726 6.74744C4.85636 6.78604 4.87913 6.82837 4.90275 6.87226C5.00177 7.05628 5.11564 7.26788 5.03558 7.34881Z" fill="black"/>
<path d="M9.5955 55.4735C10.0913 55.4735 10.9849 55.5737 11.5798 55.7742L11.7782 55.174C11.2603 55.0235 10.6313 54.9296 10.0982 54.8499C9.91686 54.8228 9.74652 54.7973 9.5955 54.7719V55.4735Z" fill="black"/>
<path d="M11.9773 54.4691C11.161 54.1941 10.9245 54.1706 10.1313 54.0919L9.8938 54.0682V53.4669C10.9845 53.4669 11.2821 53.4669 12.1745 53.7675L11.9773 54.4691Z" fill="black"/>
<path fill-rule="evenodd" clip-rule="evenodd" d="M25.3685 4.14063C24.7735 4.24086 24.3769 5.04268 24.3769 6.04495C24.476 6.64632 24.6743 7.24768 25.071 7.54952C25.2693 7.64974 25.4676 7.74997 25.6659 7.74997C26.2609 7.64974 26.7567 6.84792 26.6575 5.84565C26.6575 5.24428 26.3601 4.64292 26.0626 4.44246C25.8643 4.24086 25.6659 4.14063 25.3685 4.14063ZM26.1625 6.9511C26.2617 6.75065 26.3609 6.34974 26.3609 5.8486C26.2617 5.34746 26.1625 4.94655 25.8651 4.64587C25.7659 4.54564 25.5676 4.54564 25.4684 4.54564C24.9726 4.54564 24.6751 5.24723 24.7743 6.04906V6.24951C24.8735 5.74837 25.0718 5.34746 25.4684 5.24723C25.8651 5.24723 26.1625 5.74837 26.1625 6.34974V6.9511Z" fill="black"/>
<path fill-rule="evenodd" clip-rule="evenodd" d="M26.0599 8.75451C25.9608 8.75451 25.8616 8.75451 25.7625 8.85474C24.5939 8.65789 23.9779 8.76175 23.4132 8.85695C23.1154 8.90716 22.8319 8.95497 22.4891 8.95497C22.4891 8.85474 22.4891 8.65429 22.2907 8.65429C22.2907 8.75451 22.1916 8.85474 22.1916 8.85474C21.8941 9.25565 21.7949 9.45611 21.8941 9.55633C21.9933 9.65656 22.1916 9.45611 22.2907 9.35588C22.3899 9.35588 22.7865 9.35588 23.1832 9.55633C23.2511 9.60212 23.3346 9.67929 23.43 9.76751C23.7524 10.0656 24.2115 10.4899 24.6706 10.2579C24.9229 10.1559 25.1496 9.89811 25.3505 9.66954C25.5444 9.449 25.7144 9.25565 25.8605 9.25565C25.9362 9.25565 26.012 9.27027 26.0767 9.28276C26.1814 9.30297 26.2571 9.3176 26.2571 9.25565C26.3574 9.25565 26.1591 8.65429 26.0599 8.75451ZM24.6717 9.95724C24.2953 10.084 24.0376 9.84988 23.7734 9.60995C23.62 9.4706 23.4645 9.3293 23.2823 9.25565C23.7781 9.15542 24.6706 9.0552 25.465 9.15542C25.314 9.23175 24.9902 9.59889 24.8007 9.81384C24.7415 9.88105 24.6953 9.93337 24.6717 9.95724Z" fill="black"/>
<path fill-rule="evenodd" clip-rule="evenodd" d="M21.4963 6.14961C21.4963 5.14618 21.9932 4.34436 22.5882 4.24413C22.8857 4.24413 23.0851 4.34436 23.2823 4.54597C23.6789 4.84665 23.8773 5.34779 23.8773 5.94915C23.8773 6.95143 23.3803 7.85347 22.7854 7.85347C22.4879 7.85347 22.2896 7.75325 22.0912 7.65302C21.6946 7.25211 21.4963 6.75097 21.4963 6.14961ZM23.5828 5.94862C23.5828 6.24929 23.4836 6.54997 23.3845 6.85065L23.3844 6.54998C23.3844 5.94862 23.0881 5.44633 22.6915 5.44633C22.2948 5.44633 21.9973 5.94862 21.9973 6.54998C21.9973 6.75044 21.9973 6.85182 22.0965 6.95204C21.8982 6.75159 21.799 6.45091 21.799 6.15022C21.799 5.34725 22.1957 4.64566 22.5923 4.64566C22.7906 4.54543 22.9889 4.64566 23.0881 4.74589C23.3844 5.04657 23.4847 5.44748 23.5828 5.94862Z" fill="black"/>
<path fill-rule="evenodd" clip-rule="evenodd" d="M42.13 31.2111C43.0236 32.2145 43.5194 33.5175 43.1227 34.2191C43.3199 35.522 41.3367 36.1234 40.442 35.4172C40.442 35.4172 39.4492 36.1188 39.3501 36.1188C38.4576 36.8215 37.6644 35.5174 37.6644 35.2167L37.6621 35.2145C37.4646 35.0148 37.2674 34.8155 37.1686 34.4149C36.2761 33.8147 36.0778 33.0106 36.4744 32.3101C36.3753 32.1085 36.2761 31.809 36.2761 31.809C35.0851 31.809 33.9943 31.4081 33.3002 30.3044C33.5977 31.809 33.3994 33.112 32.6061 34.3147C33.1019 36.2202 32.5069 38.0243 31.1187 39.2281C31.317 39.9286 31.4162 40.6313 31.1187 41.5334C32.0123 42.6359 32.1114 44.3409 30.5237 46.3466C30.6229 47.3489 30.2262 49.9559 27.9444 51.0584C28.5701 53.0482 28.6318 53.0805 29.7282 53.6549C29.8481 53.7177 29.9804 53.7869 30.1271 53.866C31.4173 54.6689 32.1114 55.4708 32.1114 56.6735C32.3097 56.9753 32.1114 57.4753 31.9131 57.8774C31.2201 59.4822 27.4498 59.8831 26.2599 59.4822C25.4138 59.176 25.0465 58.4976 24.6867 57.8329C24.4561 57.407 24.2285 56.9866 23.88 56.6735C23.8099 56.6026 23.7205 56.5215 23.619 56.4294C22.7154 55.6092 20.8471 53.9135 22.9876 50.7589C21.5993 49.8569 20.4094 47.7509 21.3019 45.4457C21.2202 45.2805 21.116 45.1153 21.0079 44.9438C20.7225 44.4908 20.4094 43.9941 20.4094 43.3398L20.3575 43.4722C20.1914 43.8967 20.0849 44.169 19.8145 44.4423C20.4094 46.5482 19.2195 48.4537 17.6318 49.3557C17.4346 50.9605 16.3439 52.5642 14.1612 53.0653C13.6654 54.3694 13.4671 55.1712 13.5663 55.6724C13.5663 55.8435 13.6468 56.2006 13.7452 56.6367C13.9356 57.4808 14.1928 58.6209 14.0621 59.2817C13.8637 61.0858 12.1769 61.5881 9.79706 61.4879C8.50684 61.4879 7.01944 60.5858 6.22616 59.4833C5.13427 58.079 5.33373 57.4776 6.22616 56.2749L6.37871 56.0733C7.6009 54.4582 8.62568 53.1041 9.1018 51.5619C6.81998 49.3569 7.6144 46.5494 8.90348 45.4469C8.70516 44.4434 8.50684 43.2407 8.90348 42.3387C9.30012 41.1359 10.0934 40.2339 10.8867 39.8318C11.085 39.3318 11.3825 38.8295 11.3825 38.8295C10.5881 36.9252 10.9858 34.6188 12.1757 33.2156C11.6799 31.5118 12.0766 29.8068 13.0682 28.7043C12.6715 27.6018 12.6715 26.3979 12.969 25.0949C12.5724 24.4935 12.3741 23.8922 12.2749 23.1906C10.8855 23.0904 9.4973 22.3888 8.5057 20.8854C7.01716 20.5847 4.83565 19.2806 4.53817 16.9753C3.44627 16.1735 2.55383 14.5699 2.75215 12.9651C2.15719 11.8614 2.45467 10.4582 3.14993 9.75665C0.967277 7.95255 0.570638 6.94912 0.768958 3.64161C-0.0977077 2.08317 0.251325 1.84912 0.817094 1.46973L0.868117 1.43546C0.868117 0.633637 2.15719 0.132499 3.04963 0.834092C3.64573 0.633637 4.73649 1.03455 5.72809 2.83864C6.02557 2.3375 7.01716 1.83637 8.0099 2.83864C8.20822 3.04025 8.60486 3.54139 8.10906 4.04252C8.0099 4.24298 7.91074 5.24525 8.30738 5.84662C8.5057 6.24753 8.80318 7.04935 8.70402 7.75094C9.39814 8.05278 10.0923 8.75437 10.2906 9.65642C10.8855 9.9571 11.2833 10.358 11.5785 10.8591C11.9752 10.9594 12.5701 11.1598 12.7684 11.3603C13.6609 11.1598 14.4553 11.3603 15.2486 11.7612H15.3477C16.2402 11.3603 17.6284 11.0596 18.6211 11.1598C17.5292 9.75665 17.5292 7.75094 18.6211 6.54821C18.4228 4.64389 19.5147 2.63819 21.3987 1.93659C21.6962 0.633637 24.8705 0.433182 25.4654 1.83637C27.1523 2.43773 28.3422 4.04252 28.243 5.74639C29.5333 6.94912 29.8319 9.0539 28.74 10.6587C30.2285 10.7589 31.3193 11.1598 32.1137 11.7623C33.8006 11.8626 36.9737 13.6667 36.1804 16.7749C38.0644 18.2794 37.5686 20.7851 37.172 21.6872C38.0644 22.3888 38.4611 23.4913 38.3619 24.4947C40.0476 25.2965 41.2375 27.2008 40.1468 29.407C40.1956 29.6539 40.4852 29.8522 40.8614 30.1097C41.2486 30.3748 41.7276 30.7027 42.13 31.2111ZM7.41559 13.3656C10.094 12.1628 9.89573 9.35532 8.30803 8.65373C7.9616 9.00388 7.99339 9.73632 8.00699 10.0497C8.00896 10.0951 8.01055 10.1318 8.01055 10.1571C8.01055 10.5581 7.31643 10.8587 7.21727 10.6583C7.13258 10.5306 7.19132 10.4029 7.26419 10.2446C7.36293 10.03 7.4876 9.75901 7.31643 9.35532C7.21811 9.05719 7.33913 8.83296 7.48618 8.56051C7.63574 8.28339 7.81223 7.95639 7.81223 7.451C7.81223 7.06935 7.61254 6.56612 7.46662 6.19841C7.38261 5.98672 7.31643 5.81995 7.31643 5.74713C7.01781 5.14461 7.01781 4.04211 7.41559 3.54097C7.11811 3.24029 6.72147 2.93961 6.42399 3.54097C5.9282 4.24257 6.12651 5.14461 6.42399 5.84621C6.42399 5.87326 6.38788 5.88571 6.33124 5.90523C6.17804 5.95804 5.87467 6.06261 5.72988 6.64803L5.53042 6.94871H5.3321C5.24301 6.40841 5.39405 6.11083 5.56947 5.7652C5.5893 5.72614 5.60944 5.68646 5.62958 5.64575C5.53042 5.54552 5.3321 5.04439 5.3321 4.14234C4.93546 2.93846 4.04302 1.83595 3.44806 1.73573C3.94386 2.53755 4.83744 4.24141 4.9366 4.44302C5.13378 4.94416 4.73714 5.04439 4.73714 5.04439C4.04302 3.6412 3.3489 2.33709 2.7528 1.73573C2.35616 1.43504 1.95953 1.23459 1.76121 1.53527C1.95953 1.53527 2.15785 1.73573 2.35616 1.93618C2.95112 2.738 4.24134 5.34507 4.24134 5.34507C4.24134 5.34507 4.14218 5.4453 3.94386 5.4453C3.74554 5.4453 3.54722 5.04439 3.24974 4.34279C3.13976 4.17621 3.01469 3.97904 2.88502 3.77461C2.54571 3.23968 2.17474 2.65486 1.95953 2.43732C1.66205 2.03641 1.46373 2.13664 1.26541 2.33709C1.46373 2.63777 1.66205 3.03868 1.66205 3.33937C2.15785 3.13891 2.7528 3.64005 2.85196 4.14119C2.85196 4.5421 3.05028 5.84505 3.3489 6.24712C3.24974 6.24712 2.95226 6.44757 2.95226 6.44757C2.70451 6.19811 2.52578 5.18966 2.41546 4.56718C2.39281 4.43942 2.37305 4.32791 2.35616 4.24257C2.35616 4.04211 2.257 3.84166 1.95953 3.74143C1.76121 3.74143 1.76121 3.84166 1.76121 3.94188C1.56289 6.74941 1.76121 7.451 4.24134 9.35532C4.43966 9.45555 4.63798 9.85646 4.8363 10.2574L4.8633 10.2985C5.06161 10.6013 5.3585 11.0547 5.92706 10.959L6.12538 11.1594C5.62958 11.6606 4.8363 11.3599 4.63798 11.1594C4.53882 10.959 4.14218 10.3576 4.14218 10.3576C2.35616 12.1628 4.73714 14.6685 7.41559 13.3656ZM10.8847 11.5621C11.58 12.8651 11.4797 14.6703 9.99229 16.0735C8.40573 17.5769 4.73568 17.4767 3.84324 13.7671C6.22421 15.471 9.89427 13.4664 10.1917 10.8594C10.3961 10.9984 10.5544 11.184 10.6976 11.3519C10.7621 11.4275 10.8235 11.4995 10.8847 11.5621ZM17.1331 20.8837C17.5309 20.2824 18.3242 18.5774 18.1258 16.673C23.4827 18.878 31.3187 17.0739 32.9041 14.968C36.5741 20.0819 30.0284 23.0887 23.8783 22.9885C19.8116 22.8883 18.0255 21.5853 17.1331 20.8837ZM33.7991 20.6832C35.0881 22.8894 33.8982 28.5033 24.4746 28.6035C18.8202 28.7037 13.762 25.8962 13.4645 23.0887C14.4561 22.8882 15.6471 22.5875 16.5396 21.5853C21.3015 25.3951 30.9223 23.6912 33.7991 20.6832ZM36.4762 22.3888C38.7569 24.5938 36.3759 27.4013 33.8969 27.6018C33.8969 27.5683 33.8859 27.4347 33.8712 27.2566C33.8418 26.9002 33.7978 26.3655 33.7978 26.0983C34.1944 25.596 34.8885 24.694 34.9877 23.5915C35.4835 23.391 36.1787 22.8899 36.4762 22.3888ZM37.9652 25.4984C37.3702 27.1032 35.7825 28.0052 33.8985 28.3059C33.601 29.6089 35.2867 31.6146 37.866 30.4118C39.7512 29.6089 40.4453 26.6009 37.9652 25.4984ZM37.2707 32.615C37.0724 32.8155 37.0724 33.3166 37.3698 33.6185C37.3698 33.5171 37.5682 32.9169 37.6673 32.7164C37.5682 32.516 37.3698 32.516 37.2707 32.615ZM38.8577 33.816C38.8329 33.7406 38.8205 33.6591 38.8082 33.5776C38.771 33.333 38.7339 33.089 38.3619 33.013C37.8661 32.8125 37.8661 34.4173 38.1636 34.3171L38.167 34.3137C38.3642 34.1144 38.5619 33.9145 38.8577 33.816ZM39.551 34.0172C38.8569 34.2176 38.3611 34.7188 38.6586 35.1197C38.7578 35.3201 38.8569 35.3201 39.2536 35.0195C39.4519 34.9192 39.8485 34.6174 39.9477 34.5172C39.8485 34.2176 39.551 34.0172 39.551 34.0172ZM40.1473 30.9116C39.9489 30.8114 39.5523 30.5107 39.354 30.21C38.8582 30.7112 37.7674 31.3137 37.2705 31.4128C37.3324 31.4128 37.3943 31.608 37.4561 31.8032C37.4934 31.9207 37.5307 32.0383 37.568 32.1132C37.7652 32.1132 37.9623 32.3125 38.1595 32.5119L38.1629 32.5153C38.3612 32.415 39.0554 32.5153 39.2548 33.2169C39.362 33.2891 39.5084 33.3747 39.6604 33.4635C39.93 33.6211 40.2188 33.7899 40.3456 33.9173C41.1388 34.9207 41.735 34.8205 41.9333 34.6189C42.4243 34.2644 42.0718 33.9105 41.6479 33.4849C41.4726 33.3089 41.2851 33.1207 41.14 32.915C40.8425 32.6132 40.0492 31.5107 40.0492 31.21C40.0492 31.1098 40.2476 31.21 40.4459 31.4105C40.4459 31.5107 41.5366 32.8137 42.1316 33.3148C41.6347 31.6132 40.1473 30.9116 40.1473 30.9116ZM11.9759 12.0609C12.9675 12.2614 15.1501 16.0712 12.9675 18.5768C10.3882 21.4846 6.51981 19.5791 5.72653 17.2739C8.99994 18.6782 12.67 15.7705 11.9759 12.0609ZM17.2327 18.0798C16.9352 22.7917 11.8758 22.8919 9.99175 20.8873C13.3643 20.786 16.4394 17.3782 13.8601 12.4659C16.0428 13.0673 17.431 14.8714 17.2327 18.0798ZM24.4737 32.9171C20.2075 33.0162 13.0669 31.3135 13.9593 25.8989C18.6221 30.2098 28.3421 30.6107 32.9045 27.0014C33.3012 29.1073 31.7146 32.6153 24.4737 32.9171ZM24.5732 33.7164C24.5732 36.3234 21.4981 38.1275 17.6297 37.3257C14.1591 36.3234 11.7781 32.4145 13.7625 29.607C16.6381 33.6173 22.6891 33.7164 24.5732 33.7164ZM12.8688 34.2197C14.6536 37.9293 19.4144 39.2322 22.8862 37.4281C22.6879 39.132 21.5971 41.6377 17.7287 41.8393C14.5545 42.0397 10.2895 38.3302 12.8688 34.2197ZM14.0607 44.8464C12.4742 44.245 10.9868 41.8395 12.1767 39.6334C14.0607 42.1402 16.8384 42.942 19.5168 42.3395C19.714 43.9443 17.4333 46.1493 14.0607 44.8464ZM11.3803 51.966C9.00048 51.1642 7.90858 47.6551 9.49628 46.3521C11.6789 50.663 15.5473 49.8612 16.4386 49.6596C16.2403 50.8635 14.7529 53.1699 11.3803 51.966ZM10.8874 41.2354C10.9866 43.1398 12.0785 44.5441 13.8633 45.4461C14.7558 45.9473 17.0376 46.4484 18.9216 45.1443C19.3183 46.3482 17.6326 50.4575 12.8717 48.7536C10.4908 47.9518 8.30812 43.8425 10.8874 41.2354ZM31.1198 57.4794L30.9215 57.3792C29.7305 58.4817 27.5489 58.3815 27.3506 58.0796V57.8792C28.5405 57.8792 30.0291 57.6787 30.624 57.0774C31.8106 55.803 30.3342 55.0326 29.1825 54.4317C28.7943 54.2291 28.443 54.0458 28.2431 53.8689C27.4509 53.7687 26.359 54.0705 26.359 54.0705L26.1607 53.4692C26.1607 53.4692 26.8548 53.1685 27.6481 53.1685C27.5489 52.968 27.4498 52.4669 27.4498 52.4669C26.5562 52.5671 25.8621 52.7676 25.8621 52.7676L25.5646 52.066C25.5646 52.066 26.3579 51.8655 27.2503 51.7653C27.1512 51.6651 27.1512 51.3632 27.1512 51.263C25.9601 51.5637 25.3651 51.6651 23.9769 51.1628C23.5803 51.6651 23.3819 51.9646 23.2828 52.4669L23.2629 52.5336C22.9732 53.5055 22.732 54.3145 24.671 56.1765C25.0338 56.5024 25.2001 56.8284 25.363 57.1478C25.6009 57.6141 25.8314 58.0659 26.6554 58.4817C27.8464 58.984 30.7232 58.2812 31.1198 57.4794ZM26.0637 48.0572C27.452 48.1574 28.6419 47.6551 29.4352 47.0538C29.4352 47.4547 29.336 50.9638 25.5668 50.7645C23.4844 50.6631 21.6004 49.2599 22.1954 46.2531C23.187 47.3556 24.378 48.0572 26.0637 48.0572ZM30.429 42.5384C31.2223 44.043 30.0312 47.4518 25.9645 47.3516C22.6911 47.3516 20.4104 43.7434 21.7998 41.2354C22.8906 44.7445 28.1472 45.3459 30.429 42.5384ZM30.2271 39.7336C30.7229 42.2404 28.5402 43.6448 26.557 43.6448C24.5738 43.6448 22.6887 42.5411 22.3912 40.6357C22.5426 40.4826 22.752 40.1539 22.9308 39.8733C22.9861 39.7866 23.0385 39.7044 23.0853 39.6334C25.0685 41.1379 27.9453 41.2382 30.2271 39.7336ZM23.7807 36.8248C23.8798 36.8248 23.979 36.7246 24.0781 36.6244C26.458 37.5264 29.6322 37.0253 31.6177 35.0207C32.0143 39.9319 26.1616 41.4364 23.384 39.0298C23.5823 38.4296 23.7807 37.5264 23.7807 36.8248ZM24.5728 36.1238C25.0686 35.4211 25.366 34.6193 25.366 33.7172C29.0361 33.5179 31.2187 32.1136 32.4087 31.0111C32.607 35.322 28.1437 37.2263 24.5728 36.1238ZM8.01202 55.7318C7.71952 56.1269 7.42144 56.5295 7.11555 56.9795C6.32228 57.9818 6.61976 58.483 7.11555 59.1845C8.10715 60.287 9.79401 60.8884 11.0831 60.4887V60.3884C9.49539 60.4887 8.20631 59.8861 7.51219 58.8839L7.61135 58.7836C9.39623 60.1868 11.7772 59.7859 12.6696 59.2848C12.9671 59.1845 13.0663 58.8839 13.0663 58.5843C13.0131 58.1542 12.8743 57.5795 12.7417 57.0307C12.6272 56.5564 12.5173 56.1014 12.4713 55.7757C12.3722 55.2745 12.5705 54.172 13.0663 52.9681C12.273 53.0684 10.6864 52.8691 10.1906 52.1663C9.47633 53.7537 8.76252 54.718 8.01202 55.7318ZM33.3003 14.0655C34.5894 14.9675 34.7889 16.7728 34.7889 17.4744C36.0779 14.9675 34.1939 13.4641 33.2012 13.1634C33.3995 13.5644 33.3995 13.9653 33.3003 14.0655ZM35.1876 22.2887C37.6666 20.8855 36.0801 17.8776 35.6834 17.6771C35.5843 17.9778 35.2868 18.7808 34.3943 19.783C34.8901 20.3832 35.1876 21.2853 35.1876 22.2887ZM17.9274 15.7715C19.7123 16.5733 21.5975 16.8752 23.4826 16.8752C28.6401 16.8752 32.211 15.3706 32.5085 13.8672C32.7068 12.5642 30.3258 11.7612 27.8468 11.5619C27.4502 11.9629 26.9544 12.1633 26.7549 12.1633C26.6558 12.1633 26.4574 12.0631 26.6558 11.9629C27.0524 11.7624 27.449 11.3615 27.0524 10.6599C27.3499 10.6599 28.2423 10.259 28.3415 8.65419C28.3415 7.35124 27.7465 6.54942 27.1516 6.14851C27.1516 6.14851 26.9532 5.94805 27.1516 5.94805C27.3499 4.34441 26.2591 3.04145 24.3739 2.63939V2.43778C24.4731 2.43778 24.4731 2.33756 24.4731 2.33756C24.3739 1.93665 22.9857 1.73619 22.3896 2.23733C22.2904 2.33756 22.6871 2.53801 22.7862 2.53801C22.9846 2.53801 23.0837 2.73847 22.8854 2.73847C21.6955 2.63824 19.7112 3.64052 19.7112 6.34781C19.7522 6.34781 19.8784 6.33061 20.0261 6.31047C20.2351 6.28197 20.4874 6.24758 20.6036 6.24758C20.8019 6.34781 20.7028 6.54826 20.6036 6.54826C18.7196 6.64849 18.0243 9.956 20.5044 11.0597C20.5044 11.0597 20.7028 11.1599 20.5044 11.2601C20.207 11.4606 20.0086 11.8615 20.4053 12.1622C20.6036 12.1622 20.7028 12.3626 20.6036 12.4628C20.6036 12.6633 20.3061 12.6633 20.1078 12.4628C18.8187 11.8615 17.3302 12.1622 16.1403 12.5631C17.035 13.2658 17.6299 14.4685 17.9274 15.7715Z" fill="black"/>
<path fill-rule="evenodd" clip-rule="evenodd" d="M32.8881 43.6893C32.8193 44.5936 32.475 45.5228 31.8605 46.4511H162.942L162.248 48.4557H31.4063C31.3438 48.6694 31.2692 48.8861 31.1812 49.1026C30.8291 49.9686 30.2415 50.8776 29.3101 51.5693C29.3521 51.6905 29.3903 51.7945 29.4266 51.8857C29.5265 52.1371 29.5837 52.2159 29.6078 52.2446C29.6248 52.2649 29.6609 52.3055 29.8251 52.4012C29.9407 52.4686 30.0585 52.5301 30.2177 52.6133C30.3372 52.6757 30.4803 52.7505 30.6632 52.849L30.6945 52.8659L30.7247 52.8847C30.7671 52.9111 30.8092 52.9376 30.851 52.9644H199.246V19.6797H38.681C38.6908 20.2993 38.6045 20.8799 38.4809 21.3631C39.0867 22.0745 39.4254 22.948 39.5004 23.8199C40.279 24.3321 40.9453 25.0582 41.3384 25.959C41.7564 26.9168 41.8382 28.0134 41.4815 29.1425L41.5304 29.176C41.9077 29.4342 42.4933 29.8352 42.9988 30.4645C43.5212 31.057 43.9465 31.7538 44.1863 32.4484C44.3772 33.0013 44.5089 33.7324 44.278 34.4185C44.2769 35.6089 43.3634 36.3524 42.5983 36.6476C42.0117 36.8739 41.2454 36.9588 40.5419 36.7421C40.4139 36.828 40.2748 36.9194 40.1547 36.9932C40.0931 37.0311 40.0205 37.0742 39.9498 37.1113L39.9319 37.1205L39.9174 37.1279L39.8999 37.1365C39.4912 37.4082 39.0265 37.524 38.553 37.4573C38.0602 37.388 37.6777 37.1383 37.4194 36.9084C37.1567 36.6746 36.9555 36.4029 36.8169 36.162C36.752 36.0492 36.6926 35.9288 36.6449 35.8062C36.5005 35.6419 36.3386 35.4232 36.2095 35.1284C35.7631 34.7558 35.4184 34.2915 35.2495 33.741C35.158 33.4427 35.1256 33.1427 35.1453 32.8501C34.9197 32.8038 34.6964 32.7419 34.4778 32.6624C34.3653 33.3017 34.1491 33.9204 33.8179 34.5188C34.1615 36.4271 33.6128 38.2495 32.3746 39.6024C32.463 40.1162 32.4838 40.6801 32.3551 41.3156C32.7527 41.9963 32.9556 42.8028 32.8881 43.6893ZM97.975 41.9398C97.5783 42.04 95.1974 42.54 92.5201 42.54C87.9576 42.7416 83.8909 40.8361 83.8909 37.5274C83.7917 31.6117 89.6433 28.4044 94.0075 27.6015C95.8915 27.2006 99.6607 26.6994 103.331 27.6015L101.148 32.8144C100.554 31.4113 98.9666 31.4113 98.2725 31.4113C96.7839 31.311 95.3957 31.8133 94.5033 32.2131C92.3206 33.2154 90.4366 36.4226 93.5117 37.7267C94.8508 38.2841 96.5041 38.0191 98.271 37.7359C98.7281 37.6626 99.1929 37.5881 99.6618 37.5263L97.975 41.9398ZM62.862 27.4031L57.6054 35.4225C57.6054 35.4225 58.002 31.2117 58.002 30.2095C58.1012 29.4076 58.002 27.4019 56.1169 27.4019H47.8843L42.5285 42.2391H48.9762L52.8446 31.5113L52.0513 42.2391H57.8037L64.8463 31.7117L60.978 42.2391H67.4245L72.8806 27.4019L62.862 27.4031ZM164.034 42.2391H156.991L162.347 27.4019H169.489L164.034 42.2391ZM78.6297 42.2391H71.5882L76.9439 27.4019H84.0857L78.6297 42.2391ZM117.015 27.4019L115.131 32.7152H111.46L113.444 27.4019H106.699L101.244 42.2391H107.988L109.874 37.2254H113.444L111.66 42.2391H118.404L123.859 27.4019H117.015ZM149.651 37.3256L153.222 27.4019H146.278L140.923 42.2391H154.808L156.594 37.3256H149.651ZM187.044 27.4031L183.274 37.6286C183.373 36.6263 183.572 32.5159 183.671 30.2095C183.771 29.2072 183.572 28.5056 183.077 28.0033C182.482 27.4019 181.787 27.4019 181.787 27.4019H173.554L168.099 42.2391H174.15L177.919 31.7117L177.522 42.2391H187.54L192.996 27.4019L187.044 27.4031ZM130.607 38.2288L131.202 36.6252H138.94L140.228 32.9156H132.491L133.087 31.312H141.221L142.609 27.4019H127.831L122.375 42.2391H137.451L138.841 38.2288H130.607Z" fill="black"/>
<path d="M7.78938 51.8267C6.90042 50.7446 6.53028 49.5659 6.51418 48.4557H4.04359V52.9644H7.18883C7.42661 52.5784 7.6277 52.2042 7.78938 51.8267Z" fill="black"/>
<path d="M6.87519 46.4511C7.07666 45.9305 7.35199 45.4616 7.67448 45.0712C7.61294 44.7052 7.56027 44.3081 7.54186 43.908C7.51375 43.2969 7.55988 42.5899 7.8389 41.9242C8.26553 40.6663 9.06601 39.629 9.99307 39.0234C10.0415 38.9195 10.0896 38.8217 10.1344 38.7337C9.51664 36.7636 9.86401 34.5474 10.9405 32.9542C10.6257 31.33 10.9525 29.7058 11.8058 28.4618C11.5553 27.4351 11.5684 26.3736 11.7628 25.3021C11.5703 24.9439 11.4283 24.5825 11.324 24.2113C10.0229 23.9188 8.78349 23.1723 7.82373 21.9014C7.00992 21.6647 6.11534 21.2194 5.34278 20.5644C5.03949 20.3072 4.74924 20.0123 4.48898 19.6797H4.04359V46.4511H6.87519Z" fill="black"/>
<path d="M41.1307 28.8858C41.1249 28.8792 41.1209 28.8758 41.1209 28.8758L41.1244 28.8796L41.1307 28.8858Z" fill="black"/>
</svg>
