<svg width="166" height="51" viewBox="0 0 166 51" fill="none" xmlns="http://www.w3.org/2000/svg">
<path d="M75.1806 0.5H69.2327V20.3721H75.1806V0.5Z" fill="black"/>
<path fill-rule="evenodd" clip-rule="evenodd" d="M55.8819 3.71511H41.2273C34.8255 3.71511 29.5876 7.44767 29.5876 12.0349C29.5876 16.6221 34.7847 20.3488 41.2273 20.3488H55.8819C62.2837 20.3488 67.5217 16.6279 67.5217 12.0349C67.5217 7.44186 62.3245 3.71511 55.8819 3.71511ZM35.2736 12.0349C35.2736 8.82558 38.9168 8.75 43.4214 8.75H53.6703C58.1632 8.75 61.8181 8.81976 61.8181 12.0349C61.8181 15.25 58.1749 15.407 53.6703 15.407H43.4214C38.9285 15.407 35.2736 15.2442 35.2736 12.0349Z" fill="black"/>
<path d="M144.507 9.07558V20.343H138.554V3.72093H157.265C160.489 3.72093 161.92 4.06976 163.567 5.34883C165.215 6.6279 165.663 8.65116 165.709 10.3198V20.3372H159.726V14.5814C159.715 14.1431 159.728 13.6858 159.741 13.2314C159.781 11.8355 159.821 10.4664 159.144 9.75581C158.462 9.03923 157.41 9.05629 156.115 9.07728C155.708 9.08388 155.277 9.09087 154.826 9.07558H144.507Z" fill="black"/>
<path d="M107.888 12.3605C107.888 10.5058 108.529 8.87209 114.477 8.87209C114.529 8.87209 130.074 8.91279 130.074 8.91279V20.3895L135.993 20.3546L136.022 3.76162L113.371 3.72674C104.973 3.77325 102.098 7.67441 102.098 11.9128C102.115 16.4302 104.28 20.1686 110.74 20.3721C110.793 20.3721 123.788 20.4012 123.788 20.4012L127.804 15.4535H114.191C109.169 15.4535 107.888 14.1046 107.888 12.3605Z" fill="black"/>
<path d="M100.003 3.75582H94.0546V20.3721H100.003V3.75582Z" fill="black"/>
<path d="M6.67462 20.3837V9.10465H17.0049C17.4577 9.1214 17.8903 9.1157 18.2987 9.11031C19.5911 9.09326 20.6409 9.07942 21.3175 9.7907C21.9943 10.5022 21.9549 11.8887 21.915 13.2968C21.9024 13.7412 21.8897 14.1881 21.8995 14.6163V20.3663H27.8532V10.3547C27.8067 8.69186 27.3411 6.65116 25.6999 5.37791C24.0587 4.10465 22.6211 3.76163 19.4027 3.76163H0.709229V20.3837H6.67462Z" fill="black"/>
<path d="M155.262 26.8314C158.526 27.1441 161.747 27.8028 164.871 28.7965L160.844 34.6337L160.675 34.5756C158.202 33.7233 155.784 32.8895 152.847 32.8895C150.746 32.8895 149.728 33.343 149.728 34.0523C149.728 34.892 151.244 35.0639 152.324 35.1863C152.41 35.1961 152.494 35.2056 152.574 35.2151C154.232 35.436 157.026 35.8256 158.638 36.1802C164.976 37.6628 165.674 40.7209 165.674 42.2674C165.674 43.5465 165.191 45.936 161.269 48.0814C157.876 49.9186 154.232 50.5 149.728 50.5C144.422 50.4804 139.156 49.5947 134.136 47.8779L138.536 41.6337C141.19 42.7326 144.461 44.0814 147.848 44.0814C150.211 44.0814 151.445 43.4012 151.445 42.6977C151.445 41.8607 149.983 41.6872 148.952 41.5649L148.815 41.5485C148.777 41.544 148.74 41.5394 148.703 41.5349C147.097 41.3779 144.624 41.0581 143.122 40.7616C140.87 40.2849 135.876 38.9128 135.876 34.843C135.901 33.5125 136.395 32.2335 137.273 31.2326C139.956 27.9535 145.811 26.6337 151.549 26.6337C152.195 26.6337 153.516 26.6628 155.262 26.8314Z" fill="black"/>
<path d="M0.709229 27.2442H45.5225L48.5023 30.9884L48.6161 31.1554C49.0617 31.8091 49.5085 32.4646 49.9107 33.1395C50.3918 32.3023 50.9284 31.4982 51.517 30.7326L54.2523 27.2442H69.9078L56.7549 40.0349V49.9767H42.8511V40.0349L29.7622 27.312V34.0698H22.1905V49.9651H8.22854V34.0698H0.709229V27.2442Z" fill="black"/>
<path fill-rule="evenodd" clip-rule="evenodd" d="M70.1813 27.2442V49.9651H83.1655V41.6337L90.2018 49.9651H104.92L95.7365 40.8605C96.7826 40.6551 97.8074 40.3534 98.7978 39.9593C100.544 39.2151 102.773 37.7674 102.773 34.8081C102.746 33.9199 102.509 33.0508 102.079 32.2724C101.65 31.4941 101.042 30.8287 100.305 30.3314C97.5698 28.1802 93.5948 27.4709 89.2473 27.3023C88.1241 27.2442 86.995 27.2442 85.866 27.2442H70.1813ZM83.1655 33.3953H84.9988C85.0168 33.3953 85.0386 33.3951 85.0637 33.3948L85.1327 33.3937C85.9827 33.3796 89.2939 33.3247 89.2939 35.2616C89.2929 35.483 89.2441 35.7015 89.1506 35.9022C89.0572 36.1029 88.9214 36.281 88.7526 36.4244C87.8971 37.1977 86.4247 37.2267 85.057 37.2267H83.1655V33.3953Z" fill="black"/>
<path d="M106.305 27.2442V49.9651H132.128V43.6279H119.196V41.5H130.79V35.4477H119.196V33.5872H131.762V27.2442H106.305Z" fill="black"/>
<path d="M84.7311 3.77325L75.6928 10.6337L85.057 20.3837H93.1001L83.1597 10.7384L93.1932 3.80814L84.7311 3.77325Z" fill="black"/>
</svg>
