<svg width="48" height="46" viewBox="0 0 48 46" fill="none" xmlns="http://www.w3.org/2000/svg">
<path fill-rule="evenodd" clip-rule="evenodd" d="M4.95453 41.0187H28.9545L32.2711 25.6864L37.1543 21.6035L33.0058 40.7821C32.7293 41.9649 32.0759 43.0258 31.144 43.8049C30.2122 44.5841 29.0524 45.0393 27.8393 45.1021H4.30353C3.77267 45.1176 3.24576 45.0065 2.76637 44.778C2.28697 44.5495 1.86886 44.2101 1.54662 43.788C1.22437 43.3658 1.00726 42.873 0.913219 42.3503C0.819181 41.8277 0.850924 41.2901 1.00583 40.7821L8.85182 4.51011C9.12841 3.32734 9.78185 2.26647 10.7137 1.48731C11.6456 0.708147 12.8054 0.252888 14.0184 0.190109H37.5542C38.0724 0.173873 38.5872 0.278923 39.0576 0.496883C39.528 0.714843 39.9409 1.03969 40.2635 1.44551L36.8819 4.27281H30.1731L28.4403 6.31421H20.4831L19.6331 4.27281H12.9031L4.95453 41.0187ZM12.4951 18.8821L15.9481 15.9951L21.7401 23.3641L45.8331 3.45312L48.0361 6.34013L20.4911 29.1391L12.4951 18.8821Z" fill="url(#business-icon)"/>
<defs>
<linearGradient id="business-icon" x1="0.881918" y1="22.6433" x2="48.0109" y2="22.6433" gradientUnits="userSpaceOnUse">
<stop offset="0.0838" stop-color="white"/>
<stop offset="1" stop-color="white" stop-opacity="0.3"/>
</linearGradient>
</defs>
</svg>
