<svg width="44" height="39" viewBox="0 0 44 39" fill="none" xmlns="http://www.w3.org/2000/svg">
<path fill-rule="evenodd" clip-rule="evenodd" d="M11.3593 17.1428C6.67269 17.1428 3.7011 13.3298 4.736 8.64282C5.31794 6.2966 6.6427 4.20134 8.51272 2.66953C10.3827 1.13772 12.6978 0.251421 15.1127 0.142822C19.7993 0.142822 22.7709 3.95572 21.736 8.64282C21.1541 10.989 19.8293 13.0843 17.9593 14.6161C16.0892 16.1479 13.7742 17.0342 11.3593 17.1428ZM14.2293 4.14282C12.9508 4.20026 11.7251 4.66945 10.7351 5.48042C9.74508 6.29138 9.04374 7.40067 8.73569 8.64282C8.57678 9.17771 8.54788 9.7428 8.65138 10.2911C8.75488 10.8394 8.9878 11.3551 9.33076 11.7952C9.67372 12.2354 10.1168 12.5873 10.6232 12.8217C11.1296 13.0561 11.6846 13.1662 12.2421 13.1428C13.5206 13.0854 14.7462 12.6162 15.7363 11.8052C16.7263 10.9942 17.4276 9.88496 17.7357 8.64282C17.8946 8.10796 17.9235 7.54289 17.82 6.99461C17.7165 6.44633 17.4836 5.93067 17.1407 5.49053C16.7978 5.05039 16.3547 4.69848 15.8484 4.46407C15.3421 4.22966 14.7871 4.11953 14.2296 4.14282H14.2293ZM29.9432 38.1428C25.2567 38.1428 22.2851 34.3298 23.3199 29.6428C23.9019 27.2966 25.2267 25.2013 27.0967 23.6695C28.9667 22.1377 31.2819 21.2514 33.6967 21.1428C38.3832 21.1428 41.3548 24.9557 40.3199 29.6428C39.738 31.989 38.4132 34.0843 36.5432 35.6161C34.6732 37.1479 32.3581 38.0342 29.9432 38.1428ZM32.8132 25.1428C31.5348 25.2002 30.3091 25.6694 29.3191 26.4804C28.329 27.2914 27.6277 28.4007 27.3196 29.6428C27.1608 30.1777 27.1319 30.7428 27.2354 31.2911C27.3389 31.8394 27.5718 32.3551 27.9148 32.7952C28.2578 33.2354 28.7009 33.5873 29.2072 33.8216C29.7136 34.056 30.2686 34.1661 30.8261 34.1428C32.1046 34.0853 33.3303 33.6161 34.3203 32.8052C35.3103 31.9942 36.0116 30.8849 36.3196 29.6428C36.4786 29.1079 36.5075 28.5429 36.404 27.9946C36.3005 27.4463 36.0677 26.9306 35.7247 26.4905C35.3818 26.0503 34.9387 25.6984 34.4324 25.464C33.926 25.2296 33.371 25.1195 32.8135 25.1428H32.8132ZM5.85383 37.1429H0.673828L38.2018 1.14291H43.3808L5.85383 37.1429Z" fill="url(#business-icon)"/>
<defs>
<linearGradient id="business-icon" x1="0.693352" y1="19.1406" x2="43.358" y2="19.1406" gradientUnits="userSpaceOnUse">
<stop offset="0.0838" stop-color="white"/>
<stop offset="1" stop-color="white" stop-opacity="0.3"/>
</linearGradient>
</defs>
</svg>
