<svg width="37" height="32" viewBox="0 0 37 32" fill="none" xmlns="http://www.w3.org/2000/svg">
<path fill-rule="evenodd" clip-rule="evenodd" d="M9.79909 14.4526C5.89359 14.4526 3.41725 11.2751 4.27967 7.36922C4.76462 5.41404 5.86859 3.66799 7.42694 2.39148C8.98529 1.11497 10.9145 0.376388 12.9269 0.285889C16.8324 0.285889 19.3088 3.46331 18.4463 7.36922C17.9614 9.32441 16.8574 11.0705 15.2991 12.347C13.7407 13.6235 11.8115 14.3621 9.79909 14.4526ZM12.1908 3.61922C11.1253 3.66708 10.104 4.05808 9.27893 4.73388C8.45391 5.40969 7.86946 6.3341 7.61275 7.36922C7.48033 7.81496 7.45624 8.28587 7.54249 8.7428C7.62874 9.19972 7.82284 9.62945 8.10864 9.99624C8.39444 10.363 8.76369 10.6563 9.18567 10.8516C9.60765 11.0469 10.0702 11.1387 10.5348 11.1192C11.6002 11.0713 12.6215 10.6803 13.4466 10.0045C14.2716 9.32874 14.856 8.40434 15.1128 7.36922C15.2452 6.92351 15.2693 6.45261 15.183 5.99571C15.0968 5.53881 14.9027 5.1091 14.6169 4.74231C14.3312 4.37553 13.962 4.08227 13.54 3.88693C13.1181 3.69159 12.6556 3.59981 12.191 3.61922H12.1908ZM25.2857 31.9526C21.3803 31.9526 18.904 28.7751 19.7663 24.8692C20.2513 22.914 21.3552 21.168 22.9136 19.8915C24.472 18.6149 26.4012 17.8764 28.4136 17.7859C32.319 17.7859 34.7954 20.9633 33.933 24.8692C33.448 26.8244 32.344 28.5705 30.7857 29.847C29.2273 31.1235 27.2981 31.8621 25.2857 31.9526ZM27.6774 21.1192C26.612 21.1671 25.5906 21.5581 24.7656 22.2339C23.9405 22.9097 23.3561 23.8341 23.0994 24.8692C22.967 25.315 22.9429 25.7859 23.0292 26.2428C23.1154 26.6997 23.3095 27.1294 23.5953 27.4962C23.8811 27.863 24.2504 28.1563 24.6724 28.3516C25.0944 28.5469 25.5569 28.6387 26.0215 28.6192C27.0869 28.5713 28.1082 28.1803 28.9332 27.5045C29.7582 26.8287 30.3427 25.9043 30.5994 24.8692C30.7318 24.4235 30.7559 23.9526 30.6697 23.4957C30.5835 23.0388 30.3894 22.6091 30.1036 22.2423C29.8178 21.8755 29.4486 21.5822 29.0267 21.3869C28.6047 21.1916 28.1422 21.0998 27.6776 21.1192H27.6774ZM5.2112 31.1193H0.894531L32.1679 1.11932H36.4837L5.2112 31.1193Z" fill="#00965E"/>
</svg>
