<svg width="53" height="38" viewBox="0 0 53 38" fill="none" xmlns="http://www.w3.org/2000/svg">
<path fill-rule="evenodd" clip-rule="evenodd" d="M35.4335 31H6.02491C5.72516 31.0126 5.42673 30.9532 5.15446 30.8267C4.88219 30.7002 4.64395 30.5103 4.45954 30.2727C4.27514 30.0351 4.14991 29.7568 4.09428 29.4609C4.03864 29.1649 4.0542 28.8599 4.13967 28.5712L9.00992 6.4287C9.1755 5.75829 9.55255 5.15957 10.0848 4.72188C10.6171 4.28419 11.2761 4.03097 11.9635 4H45.975C46.2748 3.98738 46.5732 4.04679 46.8454 4.17329C47.1177 4.29978 47.3559 4.48971 47.5403 4.72726C47.7247 4.96482 47.85 5.24314 47.9056 5.53908C47.9613 5.83501 47.9457 6.14001 47.8603 6.4287L45.1534 18.7359L48.7434 20.5302L51.845 6.4287C52.6246 2.8837 50.3862 0 46.8549 0H12.8433C11.0238 0.0820802 9.27959 0.75238 7.87067 1.91092C6.46175 3.06947 5.46366 4.65418 5.02526 6.4287L0.155008 28.5712C-0.624691 32.1162 1.61379 35 5.1451 35H36.2246L35.4335 31ZM48.3372 38L53 35.5096L47.0602 29.8584L52.1506 27.8289L38 20L41.3504 37.0486L44.7932 31.8327L48.3372 38ZM30.0958 11H26L26.9042 7H31L30.0958 11ZM40.9042 7L40 11H44.0958L45 7H40.9042ZM37.0958 11H33L33.9042 7H38L37.0958 11Z" fill="url(#business-icon)"/>
<defs>
<linearGradient id="business-icon" x1="0.0242295" y1="18.9977" x2="52.9717" y2="18.9977" gradientUnits="userSpaceOnUse">
<stop offset="0.0838" stop-color="white"/>
<stop offset="1" stop-color="white" stop-opacity="0.3"/>
</linearGradient>
</defs>
</svg>
