<svg width="66" height="38" viewBox="0 0 66 38" fill="none" xmlns="http://www.w3.org/2000/svg">
<path d="M61.8298 0.607053H30.2937C29.091 0.659978 27.9377 1.10085 27.0064 1.86373C26.0751 2.62661 25.4158 3.6705 25.1271 4.83925L24.516 7.60705H12.476C11.7746 7.63207 11.0879 7.81425 10.4663 8.14014C9.84474 8.46602 9.30429 8.92731 8.88481 9.48995L3.18201 15.8705C2.73753 16.4406 2.42297 17.1009 2.26031 17.8053L0.33541 26.5234C0.20701 26.9536 0.183319 27.4083 0.266314 27.8495C0.349308 28.2908 0.536582 28.7058 0.812523 29.0599C1.08846 29.4141 1.44507 29.6972 1.85262 29.8856C2.26017 30.0739 2.70685 30.1621 3.15541 30.1429H7.02921C6.88617 31.0992 6.95697 32.0753 7.2365 33.0009C7.51603 33.9266 7.99734 34.7787 8.64578 35.496C9.29421 36.2133 10.0936 36.7779 10.9865 37.1491C11.8793 37.5204 12.8434 37.689 13.8092 37.6429C16.0472 37.5407 18.2036 36.7721 20.0018 35.4358C21.7999 34.0994 23.1577 32.2563 23.901 30.1429H36.0292C35.8862 31.0992 35.957 32.0753 36.2365 33.0009C36.516 33.9266 36.9973 34.7787 37.6458 35.496C38.2942 36.2133 39.0936 36.7779 39.9865 37.1491C40.8793 37.5204 41.8434 37.689 42.8092 37.6429C45.0472 37.5407 47.2036 36.7721 49.0018 35.4358C50.7999 34.0994 52.1577 32.2563 52.901 30.1429H55.3045C56.5072 30.0899 57.6605 29.649 58.5918 28.8861C59.5231 28.1233 60.1824 27.0794 60.4711 25.9107L65.1272 4.83925C65.2774 4.3362 65.3051 3.80453 65.208 3.28859C65.111 2.77264 64.892 2.28737 64.5694 1.87324C64.2467 1.45911 63.8297 1.12811 63.3532 0.907857C62.8766 0.687602 62.3543 0.584468 61.8298 0.607053ZM8.40531 26.1429H4.41981L6.26261 17.7962L11.8184 11.6071H23.6326L21.4039 21.6843C20.2469 20.9827 18.9154 20.6217 17.5625 20.6429C15.698 20.721 13.8829 21.2654 12.2832 22.2262C10.6835 23.187 9.35019 24.5337 8.40531 26.1429ZM14.6922 33.6429C14.1347 33.6662 13.5797 33.5561 13.0733 33.3217C12.5669 33.0873 12.1238 32.7354 11.7809 32.2953C11.4379 31.8551 11.205 31.3395 11.1015 30.7911C10.998 30.2428 11.0269 29.6777 11.1858 29.1429C11.4939 27.9007 12.1952 26.7914 13.1852 25.9804C14.1753 25.1695 15.4009 24.7003 16.6794 24.6429C17.1439 24.6199 17.6081 24.6916 18.044 24.8536C18.4799 25.0156 18.8783 25.2645 19.215 25.5852C19.5517 25.906 19.8197 26.2918 20.0027 26.7193C20.1856 27.1468 20.2798 27.607 20.2794 28.0721L19.8222 30.1429H19.8442C19.3934 31.1458 18.6731 32.004 17.7635 32.6219C16.8539 33.2398 15.7907 33.5933 14.6922 33.6429ZM43.6922 33.6429C43.1347 33.6662 42.5797 33.5561 42.0733 33.3217C41.5669 33.0873 41.1238 32.7354 40.7809 32.2953C40.4379 31.8551 40.205 31.3395 40.1015 30.7911C39.998 30.2428 40.0269 29.6777 40.1858 29.1429C40.4939 27.9007 41.1952 26.7914 42.1852 25.9804C43.1753 25.1695 44.4009 24.7003 45.6794 24.6429C46.2369 24.6195 46.7919 24.7296 47.2983 24.964C47.8047 25.1984 48.2478 25.5503 48.5907 25.9904C48.9337 26.4306 49.1666 26.9463 49.2701 27.4946C49.3736 28.0429 49.3447 28.608 49.1858 29.1429C48.8778 30.385 48.1764 31.4943 47.1864 32.3052C46.1964 33.1162 44.9707 33.5854 43.6922 33.6429ZM56.4197 26.1429H53.2912C53.0512 24.555 52.2297 23.113 50.9864 22.0966C49.743 21.0803 48.1664 20.5622 46.5625 20.6429C44.698 20.721 42.8829 21.2654 41.2832 22.2262C39.6835 23.187 38.3502 24.5337 37.4053 26.1429H24.4198L29.1785 4.60705H61.1785L56.4197 26.1429Z" fill="url(#business-icon)"/>
<defs>
<linearGradient id="business-icon" x1="0.24751" y1="19.125" x2="65.23" y2="19.125" gradientUnits="userSpaceOnUse">
<stop offset="0.0838" stop-color="white"/>
<stop offset="1" stop-color="white" stop-opacity="0.3"/>
</linearGradient>
</defs>
</svg>
