<svg width="39" height="48" viewBox="0 0 39 48" fill="none" xmlns="http://www.w3.org/2000/svg">
<path fill-rule="evenodd" clip-rule="evenodd" d="M31.6205 4.33605C31.2 4.11323 30.7308 3.99778 30.2547 4H19.3603C14.7477 4 7.71212 12.568 4.99307 24.8629C2.91976 34.2375 4.42046 40.3429 6.33522 42.7229C6.60019 43.1178 6.95895 43.4411 7.37949 43.6639C7.80003 43.8868 8.26927 44.0022 8.74537 44H19.6397C24.2528 44 31.2879 35.4322 34.0068 23.1378C36.0801 13.7627 34.5795 7.657 32.6647 5.277C32.3997 4.88213 32.041 4.55887 31.6205 4.33605ZM19.3603 0H30.2547C37.5283 0 40.895 10.5419 37.9189 24C34.9427 37.4581 26.9133 48 19.6397 48H8.74547C1.47174 48 -1.89503 37.4577 1.08112 24C4.05728 10.5423 12.0867 0 19.3603 0ZM16.3949 22.6401C17.0966 19.9493 17.2674 17.1425 16.8974 14.3835C15.7044 15.5361 13.7579 19.0174 12.605 24.3604C11.9034 27.0511 11.7326 29.8578 12.1027 32.6168C13.2956 31.4642 15.242 27.983 16.3949 22.6401ZM8.7982 23.5002C10.2481 16.7805 13.4739 10 17.4128 10C21.3518 10 21.6515 16.7804 20.2017 23.5002C18.7519 30.2201 15.5267 37 11.5877 37C7.64871 37 7.34832 30.22 8.7982 23.5002Z" fill="url(#business-icon)"/>
<defs>
<linearGradient id="business-icon" x1="0.0178293" y1="23.9972" x2="38.9791" y2="23.9972" gradientUnits="userSpaceOnUse">
<stop offset="0.0838" stop-color="white"/>
<stop offset="1" stop-color="white" stop-opacity="0.3"/>
</linearGradient>
</defs>
</svg>
