<svg width="213" height="31" viewBox="0 0 213 31" fill="none" xmlns="http://www.w3.org/2000/svg">
<path d="M0.266846 0L15.1857 15.4949L15.2448 15.546L15.1857 15.6278L0.36532 31H2.98475L17.8544 15.546L2.88627 0.0102276L0.266846 0ZM12.1035 0L9.47422 0.0102276L24.403 15.4949L24.4424 15.546L24.403 15.6278L9.58254 31H12.2118L27.0815 15.546L12.1035 0ZM14.0927 0L29.0017 15.4949L29.0608 15.546L29.0017 15.6278L14.201 31H16.8204L31.6802 15.546L16.7121 0H14.0927ZM18.6914 0L33.6103 15.4949L33.6596 15.546L33.6103 15.6278L18.7998 31H21.4192C21.468 30.9521 36.3479 15.4949 36.3479 15.4949L51.2668 0H48.6376L35.0284 14.1244L34.9791 14.1857L34.9201 14.1244L34.0436 13.2243L33.9747 13.163L34.0436 13.1016L46.6582 0H44.029L32.6748 11.8027L32.6158 11.7413L31.7393 10.8413L31.6802 10.7697L42.0496 0.0102276H39.4302L30.4395 9.34807L30.3705 9.41966L30.3114 9.34807L29.435 8.43781L29.3759 8.38667L29.435 8.3253L37.4607 0.0102276L34.8314 0L28.1352 6.96503L28.0662 7.01617L28.0071 6.9548L27.1307 6.05477L27.0716 5.98317L27.1307 5.92181L32.8324 0.0102276H30.2228L25.821 4.5513L25.7718 4.6229L25.7127 4.5513L21.3207 0.0102276L18.6914 0ZM4.87546 0.0102276L19.7845 15.4949L19.8534 15.546L19.7845 15.6278L4.99363 31H7.6032L22.4729 15.546L7.49488 0.0102276H4.87546Z" fill="black"/>
<path d="M78.0404 3C71.612 3 66.3867 8.38412 66.3867 15.0102C66.3867 21.6233 71.612 27 78.0404 27C84.4716 27 89.6941 21.6233 89.6941 15.0102C89.6941 8.38412 84.4828 3 78.0404 3ZM101.726 3L94.6743 13.0529V3.01025H90.6802V26.5901H94.6743V16.8753L101.378 26.5901H106.398L97.8716 15.0307L106.736 3H101.726ZM114.665 3C108.227 3 103.001 8.38207 103.001 14.9898C102.996 21.6212 108.227 27 114.665 27C121.104 27 126.334 21.6212 126.328 14.9898C126.328 8.38207 121.096 3 114.665 3ZM51.2668 3.20495L58.4881 17.9821V26.795H62.2631V17.9821L69.4844 3.20495H65.2015L60.3806 13.3809L55.5498 3.20495H51.2668ZM127.325 3.20495V26.795H131.408V17.2545H139.636V26.795H143.709V3.20495H139.636V13.2067H131.408V3.20495H127.325ZM153.062 3.20495L144.596 26.795H148.869L150.99 20.7694H159.228L161.319 26.795H165.612L157.146 3.20495H153.062ZM166.469 3.20495V26.795H170.553L170.622 11.3723L176.36 26.795H180.164L185.892 11.3723L185.961 26.795H190.055V3.20495H188.89H185.882H185.015L178.272 21.2921L171.499 3.20495H170.622H167.644H166.469ZM199.707 3.20495L191.24 26.795H195.533L197.635 20.7694H205.872L207.984 26.795H212.267L203.81 3.20495H203.362H199.886H199.707ZM114.675 6.9146C119.013 6.9146 122.514 10.5382 122.514 14.9898C122.52 19.4565 119 23.0752 114.665 23.0751C110.335 23.0751 106.806 19.4565 106.806 14.9898C106.806 10.5382 110.339 6.9146 114.675 6.9146ZM78.0404 6.92485C82.3784 6.92485 85.8892 10.5464 85.8892 15.0102C85.8892 19.4585 82.3784 23.0854 78.0404 23.0854C73.7136 23.0854 70.1916 19.4585 70.1916 15.0102C70.1916 10.5464 73.7136 6.92485 78.0404 6.92485ZM201.759 9.42528L204.637 17.4594H198.87L201.759 9.42528ZM155.094 9.43552L157.983 17.4594H152.226L155.094 9.43552Z" fill="black"/>
</svg>
